<?xml version="1.0" encoding="utf-8"?>
<!-- Generator: Adobe Illustrator 24.3.0, SVG Export Plug-In . SVG Version: 6.00 Build 0)  -->
<svg version="1.1" id="Layer_1" xmlns="http://www.w3.org/2000/svg" xmlns:xlink="http://www.w3.org/1999/xlink" x="0px" y="0px"
	 viewBox="0 0 462.9 87.6" style="enable-background:new 0 0 462.9 87.6;" xml:space="preserve">
<style type="text/css">
	.st0{fill:#FFCC06;}
	.st1{fill:#F7F8F8;}
</style>
<g>
	<path class="st0" d="M300.2,78.6c0.8-6.1,1.5-11.8,2.5-17.5c0.6-3.4-0.4-6-2.8-8.3c-4.2-3.9-8.5-7.8-12.7-11.8
		c-1.1-1-2.3-2.1-1.8-3.8c0.6-1.8,2.1-2.1,3.8-2.3c5.5-0.7,11-1.5,16.6-2.3c3.2-0.4,5.5-2,6.8-5c2.1-4.7,4.4-9.4,6.6-14.1
		c0.7-1.6,1.3-3.5,3.4-3.6c2.3-0.2,2.9,1.7,3.7,3.3c2.6,4.7,5.2,9.5,7.6,14.2c1.6,3.2,4.2,4.8,7.7,5.3c5.6,0.7,11.2,1.5,16.8,2.3
		c1.5,0.2,3,0.6,3.5,2.3c0.5,1.6-0.5,2.6-1.5,3.6c-3.9,3.9-7.7,7.8-11.7,11.6c-2.6,2.4-3.3,5.2-2.5,8.6c1.2,5.4,2.3,10.9,3.5,16.3
		c0.3,1.4,0.5,2.8-0.8,3.8c-1.3,1-2.6,0.6-3.9-0.1c-5.3-2.7-10.6-5.3-15.9-8.1c-2.9-1.5-5.6-1.5-8.5,0.1c-5.1,2.7-10.2,5.4-15.3,8
		C302.2,82.8,300.1,81.4,300.2,78.6z"/>
	<path class="st0" d="M207.4,77c0.6-4.2,1.2-9.4,2.1-14.5c0.7-4.2-0.1-7.6-3.5-10.4c-4.1-3.5-7.9-7.3-11.9-11
		c-1.1-1.1-2.2-2.2-1.7-3.8c0.5-1.7,2.1-1.9,3.6-2.1c5.6-0.8,11.2-1.5,16.8-2.4c3-0.4,5.3-1.9,6.6-4.9c2.1-4.7,4.4-9.4,6.6-14.1
		c0.8-1.6,1.3-3.7,3.6-3.7c2.1,0,2.8,1.9,3.6,3.4c2.6,4.7,5.2,9.4,7.6,14.2c1.5,3,3.9,4.6,7.2,5.1c5.6,0.8,11.2,1.6,16.8,2.3
		c1.6,0.2,3.3,0.4,3.9,2.2c0.6,1.7-0.6,2.8-1.7,3.8c-3.8,3.8-7.6,7.6-11.5,11.4c-2.5,2.4-3.4,5.1-2.6,8.5c1.3,5.3,2.3,10.7,3.4,16
		c0.3,1.4,0.7,3-0.7,4.1c-1.5,1.2-3,0.4-4.4-0.3c-5-2.6-10.1-5.1-15.1-7.7c-3.1-1.6-5.9-1.6-9,0c-4.9,2.7-9.8,5.2-14.8,7.8
		C208.9,82.8,207.2,81.7,207.4,77z"/>
	<path class="st0" d="M114.7,77.7c0.6-4.4,1.1-9.4,2-14.2c1-5,0-9-4.2-12.3c-4-3.2-7.6-6.9-11.3-10.4c-1.1-1-2-2.1-1.5-3.6
		c0.5-1.5,1.9-1.9,3.4-2.1c5.6-0.8,11.2-1.6,16.8-2.3c3.3-0.4,5.6-2.1,7-5.2c2.2-4.9,4.5-9.8,6.8-14.6c0.6-1.4,1.3-2.8,3-2.9
		c1.9-0.1,2.7,1.4,3.5,2.8c2.7,5.1,5.5,10.1,8.2,15.2c1.5,2.8,3.8,4.3,6.8,4.7c5.6,0.8,11.2,1.6,16.8,2.3c1.6,0.2,3.3,0.4,3.9,2.1
		c0.7,1.8-0.6,2.9-1.7,4.1c-3.8,3.8-7.6,7.6-11.5,11.4c-2.3,2.3-3.2,4.8-2.5,8.1c1.2,5.1,2.2,10.3,3.2,15.5c0.1,0.6,0.3,1.3,0.3,1.9
		c0.3,3.3-1.4,4.6-4.4,3.1c-4.6-2.2-9.3-4.4-13.6-7c-4.7-2.8-8.9-2.9-13.5,0.1c-4.1,2.6-8.5,4.6-12.8,6.8
		C116.5,82.7,114.7,81.6,114.7,77.7z"/>
	<path class="st0" d="M25.6,59.8c0.2-3.1-1-5.6-3.3-7.7c-4.3-3.9-8.5-7.8-12.7-11.8c-0.8-0.8-1.9-1.5-1.5-2.8
		c0.4-1.3,1.6-1.3,2.7-1.5c5.8-0.8,11.6-1.7,17.3-2.6c3.3-0.5,5.6-2.3,7-5.3c2.3-5,4.6-9.9,7-14.9c0.5-1,0.8-2.2,2.1-2.3
		c1.5-0.1,2,1.1,2.6,2.2c2.5,4.7,5.2,9.2,7.5,14c2.1,4.3,5.4,6.3,10.1,6.8c5.3,0.6,10.5,1.5,15.7,2.2c1.1,0.1,2.1,0.3,2.5,1.4
		c0.5,1.2-0.4,1.9-1.1,2.6c-3.9,3.9-7.8,7.9-11.9,11.8c-2.7,2.6-3.4,5.6-2.7,9.1c1.1,5.4,2.3,10.9,3.5,16.3c0.2,1.1,0.6,2.3-0.5,3.1
		c-1.1,0.8-2.2,0.1-3.1-0.4c-5.1-2.5-10.1-5.1-15.1-7.7c-3.4-1.8-6.7-1.9-10.1,0c-4.7,2.6-9.5,5-14.3,7.5c-1.1,0.6-2.2,1.4-3.4,0.6
		c-1.3-0.8-0.8-2.2-0.7-3.3C23.9,71.4,24.8,65.6,25.6,59.8z"/>
	<path class="st0" d="M417.1,71.9c-0.6-0.1-1.3,0.6-2.1,1c-5.6,2.4-11.1,5.3-16.5,8.1c-1.3,0.7-2.7,1.5-4.2,0.4
		c-1.5-1.1-1.3-2.6-1-4.3c0.9-5.4,1.6-10.8,2.3-16.3c0.4-3.1-0.4-5.7-2.7-7.8c-4.4-4-8.7-8.1-13.1-12.2c-1.1-1.1-2.1-2.2-1.5-3.9
		c0.6-1.6,2-1.8,3.4-2c5.5-0.8,11-1.6,16.5-2.3c3.4-0.5,5.8-2.1,7.2-5.3c2.2-4.9,4.5-9.8,6.8-14.6c0.6-1.4,1.3-2.8,3.1-2.8
		c1.8-0.1,2.6,1.3,3.3,2.6c2.7,5,5.4,9.9,8,15c1.6,3.2,4.2,4.8,7.7,5.3c5.6,0.7,11.2,1.5,16.8,2.3c1.4,0.2,2.8,0.6,3.4,2
		c0.7,1.7-0.4,2.8-1.5,3.9c-3.9,3.9-7.7,7.8-11.7,11.6c-2.4,2.3-3.3,5-2.5,8.3c1.2,5.3,2.3,10.7,3.4,16c0.3,1.5,0.8,3.2-0.8,4.4
		c-1.5,1.1-3,0.4-4.4-0.4c-5.1-2.6-10.3-5.2-15.4-7.8C420.5,72.5,419.1,72,417.1,71.9z"/>
	<path class="st1" d="M416.2,12.6c2.8,5.1,5.7,10.2,8.2,15.4c2.2,4.4,5.7,6.6,10.5,7.1c5,0.6,9.9,1.4,14.9,2.1
		c0.9,0.1,2.2-0.2,2.5,0.8c0.4,1.1-0.9,1.7-1.6,2.4c-3.6,3.6-7.2,7.3-10.9,10.8c-2.9,2.8-4,6.1-3,10.1c1.2,5.3,2.3,10.7,3.4,16.1
		c0.1,0.7,0.5,1.6-0.1,2.1c-0.7,0.5-1.4-0.2-2-0.5c-4.9-2.5-9.8-4.9-14.7-7.4c-1.5-0.8-3.1-1.7-4.7-1.6c-3,0.3-3.1-1.3-3.1-3.6
		c0-17.5,0-35,0-52.5c0-0.4,0.1-0.7,0.1-1.1C415.9,12.7,416.1,12.7,416.2,12.6z"/>
</g>
</svg>
