<?xml version="1.0" encoding="utf-8"?>
<!-- Generator: Adobe Illustrator 24.3.0, SVG Export Plug-In . SVG Version: 6.00 Build 0)  -->
<svg version="1.1" id="Layer_1" xmlns="http://www.w3.org/2000/svg" xmlns:xlink="http://www.w3.org/1999/xlink" x="0px" y="0px"
	 viewBox="0 0 500 500" style="enable-background:new 0 0 500 500;" xml:space="preserve">
<g>
	<path d="M250,55.8c-0.4,0.6,0.1,0.9,0.3,1.3c11.4,23.7,22.7,47.3,34.1,71c2,4.2,3.7,8.5,6,12.5c-0.9,0.3-1.6,0.9-2.2,1.6
		c-2,2.3-4,4.6-6.1,6.8c-3.9,4.4-7.9,8.7-11.8,13.1c-5.9,6.5-11.7,13-17.6,19.5c-0.5,0.5-1,1.1-1.8,1.2c-3.3-6.7-6.6-13.5-9.8-20.2
		c-4.6-9.6-9.6-19-13.6-28.9c-3.5-8.5-5-17.5-3.7-26.6c1.2-8.4,4.2-16.2,8.2-23.7c4.9-9.2,10.7-17.8,16.9-26.2
		c0.5-0.7,0.5-0.7,0.4-1.4C249.5,55.8,249.7,55.8,250,55.8z"/>
	<path d="M334.1,444.1c0.1-1.2-0.9-0.8-1.4-1c-6.5-2.2-12.2-5.6-16.6-10.9c-12.9-15.5-8.5-38.8,9.5-48.4c13.8-7.4,28.2-7.4,42-0.4
		c12.6,6.4,18.6,17.4,17.3,31.6c-1.3,13.8-9.3,22.7-22.1,27.5c-2.5,0.9-2.5,0.9-2.9,1.5C351.3,444.1,342.7,444.1,334.1,444.1z
		 M346.7,388.4c-3.3,0.1-6.8,0.5-10.2,1.5c-10,3-16.2,10.9-16.4,21.2c-0.2,10.9,5.5,19.2,15.6,22.4c7.3,2.3,14.8,2.4,22.1,0.1
		c8.5-2.7,14.2-8.3,15.6-17.3c1.5-9.3-0.9-17.4-9-23.1C359.3,389.6,353.2,388.6,346.7,388.4z"/>
	<path d="M10.9,442.1c1,0.4,1-0.6,1.2-1.1c4.2-8,8.3-16,12.4-24c6.1-11.7,12.2-23.4,18.2-35.2c0.7-1.4,1.5-1.9,3-1.8
		c2.4,0.1,4.9,0.1,7.4,0c1.3-0.1,1.9,0.4,2.4,1.5c3.2,6.3,6.5,12.7,9.8,19c7,13.5,14.1,27.1,21.1,40.6c0.3,0.6,0.6,1.3,1.1,2.2
		c-4.2,0-8.2,0-12.1,0c-1,0-1.1-0.8-1.4-1.4c-1.9-3.8-3.9-7.7-5.7-11.5c-0.4-0.8-0.8-1.1-1.8-1.1c-11.6,0-23.1,0-34.7,0
		c-1,0-1.5,0.3-2,1.2c-1.8,3.8-3.8,7.6-5.6,11.4c-0.5,1.1-1.2,1.5-2.4,1.5c-3.6-0.1-7.3-0.1-10.9-0.1
		C10.9,442.9,10.9,442.5,10.9,442.1z M49.2,391.9c-4.7,9.4-9.1,18.4-13.7,27.5c9.2,0,18.1,0,27.3,0
		C58.2,410.2,53.8,401.2,49.2,391.9z"/>
	<path d="M234.1,444.1c0.1-1.2-1-0.9-1.5-1c-6.8-2.1-12.5-5.7-17.1-11.2c-10.7-12.9-9.3-32.4,3.1-43.7c6.6-6,14.5-8.9,23.3-9.6
		c11.2-0.9,21.7,1.1,30.8,8.2c2,1.6,3.7,3.4,5.3,5.4c0.7,0.8,0.8,1.3-0.3,2c-2.3,1.4-4.5,3-6.8,4.5c-0.6,0.4-1.1,0.6-1.6-0.2
		c-5.6-7.5-13.6-9.9-22.4-10c-7.2-0.1-13.9,1.4-19.7,6.1c-11,8.8-11,31.2,6.2,37.9c8.6,3.4,17.2,3.3,25.8,0.1
		c3.9-1.5,7.3-3.9,9.7-7.3c0.7-0.9,1.1-1.2,2.2-0.4c2.1,1.5,4.2,3,6.4,4.3c1.1,0.7,1.1,1.2,0.3,2.1c-4.6,5.7-10.4,9.4-17.2,11.6
		c-0.7,0.2-1.6,0.2-2.2,0.9c0,0,0,0.1,0.1,0.1c0,0,0.1,0.1,0.1,0.1C250.5,444.1,242.3,444.1,234.1,444.1z"/>
	<path d="M133.6,444.1c0.2-1.1-0.8-0.8-1.3-1c-4.7-1.4-9-3.6-12.8-6.7c-8.7-7.3-13-16.7-11.7-27.9c1.8-14.8,10.6-24.2,24.8-28.2
		c12.4-3.6,24.7-2.6,36.1,4.1c3.4,2,6.3,4.7,8.7,7.8c0.7,0.8,0.8,1.3-0.3,1.9c-2.3,1.4-4.5,3-6.8,4.5c-0.6,0.4-1.1,0.6-1.6-0.2
		c-5.8-7.8-14.2-10-23.4-10c-5.7,0-11.2,1.2-16.2,4.2c-13.1,8.1-13.7,28.3-1.2,37.3c4,2.9,8.4,4,13.1,4.7c0.1,0.8-0.1,1.4-0.7,2
		c-1.5,1.5-2.9,3.1-4.3,4.7c-0.7,0.8-1.5,1.5-1.3,2.7C134.4,444.1,134,444.1,133.6,444.1z"/>
	<path d="M134.8,444.1c-0.1-1.2,0.6-1.9,1.3-2.7c1.4-1.6,2.8-3.1,4.3-4.7c0.5-0.6,0.8-1.2,0.7-2c5.2,0.4,10.3,0.3,15.4-1.3
		c4.9-1.5,9.1-4.1,12.1-8.3c0.6-0.8,1-1,1.9-0.4c2.2,1.6,4.5,3.1,6.8,4.6c1.1,0.7,0.8,1.2,0.2,2c-4.6,5.6-10.4,9.4-17.2,11.7
		c-0.7,0.2-1.6,0.2-2.1,0.9c0,0,0.1,0.1,0.1,0.1c0,0,0.1,0.1,0.2,0.1C150.5,444.1,142.7,444.1,134.8,444.1z"/>
	<path d="M250.9,182.8c0.8-0.1,1.3-0.7,1.8-1.2c5.9-6.5,11.7-13,17.6-19.5c3.9-4.4,7.9-8.7,11.8-13.1c2-2.3,4.1-4.5,6.1-6.8
		c0.6-0.7,1.4-1.3,2.2-1.6c3.9,8.1,7.9,16.2,11.8,24.3c23.2,48.2,46.4,96.3,69.6,144.5c0.3,0.7,0.6,1.4,1,2.2
		c-0.7,0.5-1.4,0.3-2,0.3c-18.5,0-37.1,0-55.6,0c-1.5,0-2.2-0.5-2.8-1.8c-13.2-27.6-26.5-55.1-39.7-82.6c-0.9-1.8-1.8-3.7-2.6-5.5
		c-0.5-1.2-0.9-1.3-2-0.6c-5.7,3.3-10.7,7.4-15.3,12c-7.9,7.9-14.7,16.7-21.7,25.4c-10.3,12.9-21.6,24.6-35.5,33.7
		c-18.3,12-38.3,19.7-59.9,23.3c-1,0.2-2,0.1-3,0.1c-0.7,0-1.4-0.1-1.6-0.8c-0.2-0.7,0.5-1,1-1.3c0.9-0.5,1.9-1,2.8-1.4
		c7.3-3.4,14.8-6.6,21.3-11.5c4-3.1,7.7-6.5,10.3-11c1.5-2.7,1.9-5.3,0.3-8.3c-1.5-2.8-3-5.6-4-8.6c0.8,0,1.3-0.4,1.8-1
		c4.4-4.9,8.7-9.7,13.1-14.6c3.9-4.3,7.8-8.6,11.7-13c5.8-6.4,11.5-12.8,17.2-19.2c3-3.3,5.9-6.8,9-10.1c2.4-2.5,4.4-5.5,7.3-7.6
		c3.2,8.1,4.5,16.6,3.8,25.3c0,0.5-0.1,1-0.2,1.7c1.2-0.1,2.1-0.6,3-1.1c14-7,27.1-15.5,39.3-25.5c2.9-2.4,5.7-5,8.8-7.1
		c7-4.9,14.3-5.2,21.7-1.3c3.4,1.8,6.8,2.6,10.5,1.7c0.5-0.1,1.2,0,1.2-0.7c0-0.5-0.7-0.5-1.1-0.7c-3.8-1.2-7-3.5-10.2-5.7
		c-4.8-3.4-10.1-4.7-15.8-3.8c-3.9,0.6-7.3,2.4-10.5,4.5c-3.8,2.5-7.2,5.5-10.7,8.3c-1.3,1-1.8,0.8-2.5-0.7
		C257.2,195.9,254,189.4,250.9,182.8z"/>
	<path d="M223,207.5c-2.9,2.1-4.9,5-7.3,7.6c-3.1,3.2-6,6.7-9,10.1c-5.7,6.4-11.5,12.8-17.2,19.2c-3.9,4.3-7.8,8.6-11.7,13
		c-4.4,4.9-8.8,9.7-13.1,14.6c-0.5,0.6-1,1-1.8,1c-4.2-9.4-5.3-19.1-3.5-29.2c1.3-7.2,3.9-13.9,7.3-20.3c4.2-8,8.4-15.9,12.5-24
		c5.4-10.4,8-21.6,9.9-33c0.4-2.2,0.6-4.4,0.9-6.6c0.4-0.1,0.6,0,0.8,0.2c11.9,12.1,22.5,25.2,29.6,40.7
		C221.3,202.9,222.1,205.2,223,207.5z"/>
	<path d="M468.1,418.8c7,8.2,13.7,16.2,20.6,24.3c-1.8,0.5-3.5,0.2-5.2,0.3c-2.7,0-5.7,0.7-7.8-0.3c-2.2-1-3.5-3.8-5.2-5.9
		c-4.4-5.4-8.8-10.8-13.1-16.3c-0.8-1-1.5-1.4-2.8-1.4c-7,0.1-14.1,0.1-21.1,0c-1.6,0-2.2,0.4-2.1,2.1c0.1,6.6,0,13.3,0.1,19.9
		c0,1.6-0.5,2.1-2,2c-2.3-0.1-4.7-0.1-7,0c-1.7,0.1-2.1-0.5-2.1-2.1c0.1-12.9,0-25.9,0-38.8c0-6.8,0-13.5,0-20.3
		c0-1.5,0.3-2.1,2-2.1c12.9,0.1,25.9,0,38.8,0c5.1,0,10,0.7,14.7,2.9c13.6,6.4,12.3,25.1,1.9,31.6
		C474.8,416.5,471.7,417.7,468.1,418.8z M448.1,409.5c4.8,0,9.5,0,14.3,0c2.3,0,4.6-0.4,6.7-1.5c3.6-1.9,5.5-5.3,5.1-9.5
		c-0.4-3.9-2.7-6.3-6.3-7.6c-1.4-0.5-2.9-0.8-4.5-0.8c-10.3,0-20.6,0-30.8-0.1c-1.2,0-1.4,0.4-1.4,1.5c0,5.5,0.1,11,0,16.5
		c0,1.2,0.4,1.6,1.6,1.6C437.9,409.4,443,409.5,448.1,409.5z"/>
</g>
</svg>
