<?xml version="1.0" encoding="utf-8"?>
<!-- Generator: Adobe Illustrator 24.3.0, SVG Export Plug-In . SVG Version: 6.00 Build 0)  -->
<svg version="1.1" id="Layer_1" xmlns="http://www.w3.org/2000/svg" xmlns:xlink="http://www.w3.org/1999/xlink" x="0px" y="0px"
	 viewBox="0 0 500 500" style="enable-background:new 0 0 500 500;" xml:space="preserve">
<path d="M331.7,333.2c-19,0.7-35.6-6.4-50.5-17.7c-9.2-7-17.7-15.1-26.2-23c-3.1-2.9-4.8-3.3-8,0c-11.2,11.9-23.5,22.5-37.9,30.4
	c-18,9.9-37.1,13.5-57.2,8.3c-29.4-7.6-47.7-34-49.7-58.2c-1.4-16.6,2.7-31.5,9.6-46c19.8-41.4,39.5-82.7,59.6-123.9
	c10.4-21.2,20.8-42.5,32.8-62.9C223.8,6.8,266,2.8,291.5,32c7.4,8.5,12.2,19.3,17.7,29.3c6.9,12.8,13.4,25.9,19.8,39
	c12.8,26.2,25.6,52.5,38.1,78.8c8.8,18.5,17.8,36.9,25.9,55.7c8.8,20.4,9.9,41-0.3,61.6C381.4,319.2,357.5,334.5,331.7,333.2z
	 M382.5,267.4c-1.3-6.3-1.5-13-4-18.7c-9.1-21.2-18.8-42.1-28.5-63c-8.3-17.9-16.9-35.7-25.7-53.3c-11.9-24-24-47.9-36.3-71.7
	c-3.4-6.5-7.3-13-12.2-18.3c-7.6-8.2-17.4-12.2-29-10.7C232.2,33.6,223.3,42.8,217,55c-13.4,25.9-27,51.8-39.7,78
	c-17.8,36.7-35,73.8-52.4,110.7c-5.1,10.8-7.1,22.1-4.2,34c8,32.9,40.6,46.3,70.1,34.7c17.5-6.9,31.1-19.7,44-33.1
	c2.9-3,2.8-5.3,0.3-8.5c-13.5-17-25.3-35-32.7-55.7c-5.1-14.4-7.3-29-3.9-44.1c5.5-24.3,26.8-40,53.2-39.7
	c31.2,0.4,53.3,22.8,53.2,54c-0.1,15.8-4.5,30.8-12.1,44.5c-7.8,14-17,27.2-25.9,40.6c-2.5,3.7-3.2,6.1,0.5,9.4
	c7.2,6.3,13.7,13.5,21.2,19.5c14.5,11.5,30.5,18.7,49.9,16.7C362.4,313.6,383.1,291.1,382.5,267.4z M250.5,259.9
	c0.8,0.1,1.7,0.1,2.5,0.2c8.6-14.6,18-28.7,25.4-43.8c6.1-12.7,10.3-26.1,6.7-41.1c-6.5-27-40.3-30.2-55.7-18.7
	c-14.5,10.8-15.9,25.8-12.4,41.9c3.9,17.8,13.1,33.2,23.3,48C243.5,251,247.1,255.4,250.5,259.9z"/>
<path d="M403.7,482.6c-2.7,3.9-13.6,6.8-17.5,4.2c-1.2-0.8-1.6-3.5-1.6-5.3c-0.1-28.1-0.1-56.2-0.1-84.3c0-5.7,0.2-11.5,0-17.2
	c-0.1-3.7,0.9-5.4,5-5.2c13.7,0.5,12.3-2.2,12.4,12.4c0.1,8.3,0,16.6,0,25c0,3.8,1.2,5.9,5.3,3.4c11.1-6.8,21.7-5.4,33.5-0.4
	c25.2,10.6,27.8,51.1,5,67.1c-12,8.4-27.7,8.8-40.5,0.8C404.9,482.7,404.2,482.7,403.7,482.6z M401.9,449.7c0,16.4,1.1,19,13,22.3
	c4.2,1.2,9.4,0.2,13.8-1c8.2-2.2,15.8-9,14.9-23.5c-0.5-9.1-6.4-16.8-16-19.6c-15-4.5-25.8,3.2-25.8,18.5
	C401.9,447.5,401.9,448.6,401.9,449.7z"/>
<path d="M235.1,417.5c21.8-11.8,39.7-8,52.9,10.7c10,14.2,8,35.6-2.6,47.7c-6.2,7.1-13.8,11.6-23.3,12.6c-7.9,0.8-11.1,0-25.7-5.9
	c-2.4,4-12.8,6.9-16.8,4.1c-1.3-0.9-1.7-3.8-1.7-5.8c-0.1-24.6-0.1-49.2-0.1-73.8c0-9.1,0.1-18.1-0.1-27.2c-0.1-3.9,1.4-5.2,5.2-5.1
	c14.1,0.3,11.9-1.7,12,11.5C235.2,396.2,235.1,406.1,235.1,417.5z M235.1,449.2C235.1,449.2,235.1,449.2,235.1,449.2
	c0,3.7-0.4,7.4,0.1,11.1c0.3,2.4,1.2,5.4,2.9,6.8c11.4,9.5,24.2,7.4,33.1-2.3c6.9-7.6,7.5-17,2.9-25.9c-4.1-8-11.3-11.4-20.5-11.8
	c-10.7-0.5-20.9,5.2-18.5,18.3C235.3,446.6,235.1,447.9,235.1,449.2z"/>
<path d="M98.1,417.6c2.6-4.4,13.7-7.3,17.6-4.6c1,0.7,1.5,2.5,1.5,3.8c0.1,22,0,44,0.1,66c0,3.3-1.4,4.7-4.7,4.5
	c-2.4-0.1-4.8-0.1-7.2,0c-3.4,0.1-6.6,0-6.1-5.9c-11.1,8.7-22.6,9.6-33.8,5.2c-6.4-2.5-13.1-7-17-12.4c-13.4-18.3-9.4-40.1,3.8-53
	C62,411.5,82.7,405.3,98.1,417.6z M100,449.9c0-3-0.2-5.9,0-8.9c0.5-5.7-2.7-9.1-7.1-11.4c-12.3-6.5-27.4-1.4-32.9,10.7
	c-5.3,11.6-0.6,26.1,13.5,31.3c14.2,5.2,26.4-2.9,26.4-17.8C100,452.4,100,451.2,100,449.9z"/>
<path d="M321.7,418.6c7.8-7.1,15.9-7.7,24.4-7.6c12.6,0.1,26.5,11.7,25.9,25.5c-0.6,15.1-0.1,30.3,0,45.5c0.1,4.2-1.6,5.5-5.6,5.4
	c-13.8-0.3-11.5,1.5-11.7-11.3c-0.1-11.3,0-22.6-0.1-33.9c-0.1-8.7-3.5-13.8-10.3-15.8c-6.1-1.8-17.9,2-21,7.2
	c-1.1,1.8-1.3,4.2-1.4,6.3c-0.1,13.7-0.2,27.4,0.1,41.1c0.1,4.7-1.1,6.6-6.2,6.4c-12.7-0.5-11.3,1.5-11.3-11.3
	c0-19.2,0.1-38.5-0.1-57.7c-0.1-4.7,1.6-6.6,6.1-5.9C314.7,413.1,320.5,409.7,321.7,418.6z"/>
<path d="M182.5,415.1c6.9-1.5,13.5-3,20.2-4.2c3.2-0.6,4.7,1.2,4.6,4.5c-0.1,3.8,0,7.6,0,12.1c-8.6-2.9-15.5-0.8-22,2.9
	c-3.2,1.8-4.5,4.4-4.4,8.2c0.2,14-0.1,28.1,0.2,42.1c0.1,4.8-1.1,6.9-6.4,6.8c-12-0.3-12,0-12-12.1c0-17.7,0-35.5,0-53.2
	c0-10.5-1.4-9.8,9.9-9.5C176,412.7,179.4,414.3,182.5,415.1z"/>
<path d="M148.8,450.4c0,10.2-0.2,20.3,0.1,30.5c0.1,4.6-1,6.6-6.1,6.5c-12.5-0.4-11.2,1.3-11.2-11.4c0-18.8,0.1-37.7-0.1-56.5
	c-0.1-5.1,1.1-7.3,6.7-7.1c11.6,0.4,10.5-1.1,10.5,10.4C148.7,431.9,148.7,441.2,148.8,450.4C148.7,450.4,148.7,450.4,148.8,450.4z"
	/>
<path d="M152.8,387.5c0.1,6.3-6.1,12.4-12.5,12.4c-6.2-0.1-11.7-5.4-12-11.6c-0.3-6.1,6-12.7,12.4-12.9
	C146.4,375.1,152.6,381.4,152.8,387.5z"/>
</svg>
