<?xml version="1.0" encoding="utf-8"?>
<!-- Generator: Adobe Illustrator 24.3.0, SVG Export Plug-In . SVG Version: 6.00 Build 0)  -->
<svg version="1.1" id="Layer_1" xmlns="http://www.w3.org/2000/svg" xmlns:xlink="http://www.w3.org/1999/xlink" x="0px" y="0px"
	 viewBox="0 0 500 500" style="enable-background:new 0 0 500 500;" xml:space="preserve">
<path d="M101.6,264c-2.1,0-3.9,0-6.3,0c0-10.5,0-20.7,0-30.9c0-11-3-15.3-10.5-15.6c-8.1-0.2-14.2,5.5-14.9,15
	c-0.6,9.2-0.2,18.6-0.3,27.8c0,1.1-0.3,2.3-0.4,3.6c-2.1,0-3.8,0-6.3,0c0-15.8-0.1-31.2,0.1-46.6c0-1.4,1.7-2.7,2.6-4.1
	c1.7,1.6,3.5,3.3,5.4,5.1c11.9-9.5,21.5-9.1,29,1.3c3.9-2.3,7.4-5.4,11.5-6.7c12.5-4.1,22.1,2.8,22.4,15.9c0.3,11.4,0.1,22.8,0.1,35
	c-2.1,0.2-4,0.4-6.1,0.7c-0.3-1.4-0.6-2.3-0.6-3.2c-0.1-10.2,0-20.5-0.1-30.7c-0.1-8.7-2.9-12.2-10-12.9
	c-7.7-0.8-13.8,3.5-14.5,11.4c-0.8,9.7-0.5,19.5-0.7,29.2C102,260.1,101.8,262,101.6,264z"/>
<path d="M151.7,257.6c-0.1,2-0.3,4-0.4,6.1c-3.7,1.4-5.8,1-5.8-3.7c0.1-21.6,0.1-43.2,0.1-64.8c4.5-1.9,7-1.3,6.8,4
	c-0.2,6.6,0,13.2,0,20.8c2.9-2.2,4.9-4.1,7.3-5.4c10.7-6.1,24.9-1.6,30.2,9.7c3.9,8.3,4.2,17,1.4,25.7c-5.3,16.7-24.4,21.4-37,9.2
	c-0.6-0.6-0.7-1.8-1.1-2.7C152.7,256.9,152.2,257.2,151.7,257.6z M152.1,237.4c0.3,4,0.3,6.5,0.8,8.8c1.7,8.3,7.9,13.7,15.8,14
	c8.2,0.3,14.9-4.2,16.3-12.9c1-6.4,0.4-13.3-1.1-19.6c-1.6-6.5-7.1-10-14-10.1c-7.1-0.1-12.5,3.2-15.3,9.7
	C153,230.9,152.7,235.1,152.1,237.4z"/>
<path d="M328.1,257.7c0,7.4,0.1,13.5,0,19.7c-0.1,5.4-0.2,5.4-6.4,5.1c0-22.8,0-45.5,0-68.3c5.2-0.6,5.2-0.6,6.3,6.4
	c7.2-8.5,16.2-11,26.3-7.1c9.2,3.6,13.2,11.4,14.1,20.7c1.1,11.1-0.6,21.6-10.9,28.4C349,268.2,338.6,266.6,328.1,257.7z M328,237.7
	c0.2,3,0.2,5.4,0.6,7.7c1.4,8.6,7.6,14.4,15.7,14.8c8.2,0.4,14.9-4,16.3-12.7c1.1-6.5,0.6-13.8-1.1-20.2c-1.8-6.7-7.7-10-14.9-9.7
	c-7.7,0.3-13.3,4.4-15.3,11.6C328.4,232.1,328.3,235.2,328,237.7z"/>
<path d="M11.7,230.3c0.7-11.3,4.8-16.1,14.7-17.8c13.6-2.4,26.2,1.8,24.8,19.9c-0.5,6.1-0.2,12.4,0,18.6c0.1,3.3-1.2,7.5,4.4,8.1
	c0.5,0.1,1.4,2.2,1.1,2.9c-0.5,1-2.2,2.5-2.8,2.2c-3.5-1.2-6.8-2.9-11.1-4.9c-4.3,5.2-11.7,7.5-20.3,6.3
	c-7.8-1.1-12.8-6.1-13.4-13.5c-0.6-7.3,2.9-12.6,10.7-14.7c5.5-1.5,11.2-2.1,16.8-2.9c4-0.6,7.6-1.2,7.8-6.4
	c0.1-4.9-1.8-8.1-6.7-9.6c-8.7-2.7-15.2,0.2-19.6,8.5C17.2,228.5,14.4,229,11.7,230.3z M43.7,238.2c-6.6,1.2-13.4,2.1-19.9,3.7
	c-4.6,1.1-8.5,3.8-7.9,9.3c0.7,5.8,4.6,8.5,10.2,8.9C35.5,260.9,47.4,254.5,43.7,238.2z"/>
<path d="M269.8,230.9c0-10.2,3.9-15.6,10.9-17.3c5.6-1.3,11.8-1.3,17.5-0.4c6.5,1,10.3,5.8,10.6,12.6c0.3,8.3,0.1,16.7,0.4,25
	c0.1,3.2-1.6,7.6,4.1,8.3c0.5,0.1,1.4,2.1,1.1,2.8c-0.4,1-2.1,2.6-2.7,2.3c-3.5-1.3-6.9-3-11.2-5c-3.8,5-10.8,7.4-19.2,6.5
	c-8-0.9-13.4-5.5-14.2-12.6c-1-8.1,2.5-13.5,11-15.8c5.5-1.5,11.4-1.4,16.8-3c2.8-0.9,7.2-4.1,7-5.9c-0.3-3.4-2.7-7.9-5.6-9.4
	c-8.1-4.2-15.8-0.6-20.5,7.8C275.2,228.2,272.9,228.9,269.8,230.9z M302.2,238.1c-6.8,1.2-13.6,2.1-20.2,3.7
	c-4.9,1.2-8.8,4.1-7.8,10.1c1,5.6,4.9,7.8,10.2,8.2C296.8,261,303.6,252.5,302.2,238.1z"/>
<path d="M432.7,228.2c0-7.5,3.9-12.9,10.9-14.6c5.8-1.4,12.3-1.3,18.2-0.3c6.4,1.1,9.9,6.2,10.1,13c0.2,8.5-0.1,17.1,0.4,25.6
	c0.1,2.4,2.5,4.6,3.8,7c0.6,1.1,1.6,2.5,1.3,3.4c-0.3,0.9-2.3,2.2-3,1.9c-3.3-1.3-6.4-3.1-10.5-5.1c-3.9,4.8-10.8,7.5-19.1,6.7
	c-8.4-0.8-13.8-5.6-14.6-13c-0.8-8.2,2.5-13.2,11.2-15.6c5.5-1.5,11.3-1.5,16.8-3c2.6-0.7,6.6-3,6.6-4.7c0.1-3.3-1.2-7.9-3.6-9.7
	c-7.1-5.5-18-1.7-22,6.3c-0.8,1.7-3,2.7-4.6,4C433.9,229.5,433.3,228.8,432.7,228.2z M465.2,238.1c-6.5,1.1-13.1,2-19.5,3.5
	c-5.1,1.2-9.7,3.7-8.6,10.2c1,6.3,5.6,8.4,11.4,8.4C460.5,260.1,466.4,252.4,465.2,238.1z"/>
<path d="M227.2,194.9c0,14.1,0,27.8,0,41.9c12.5-7.2,19.8-20.8,33.9-24.3c0.5,0.6,1,1.3,1.5,1.9c-6.7,6-13.5,12-20.5,18.2
	c7.6,10.5,14.9,20.7,22.2,30.8c-0.5,0.7-1,1.4-1.5,2.1c-3-1.7-6.7-2.8-8.8-5.3c-6-7.3-11.4-15.1-16.7-22.3
	c-14.4,4.5-9.4,16.4-10.7,25.9c-4.7,1.7-6.6,0.4-6.5-4.6c0.2-20,0.2-39.9,0-59.9C220.3,194.4,222.3,193.4,227.2,194.9z"/>
<path d="M402.7,194.8c0,23,0,45.8,0,68.5c-6.2,1.3-6.4,1.3-6.4-4c-0.1-20,0.1-39.9-0.1-59.9C396.1,194.9,397.6,193.2,402.7,194.8z"
	/>
<path d="M421,264c-2,0.1-3.8,0.2-5.6,0.2c-0.3-1-0.8-1.6-0.8-2.3c-0.1-20.9,0-41.9-0.2-62.8c0-4.9,2-5.7,6.5-4.4
	C421,217.6,421,240.6,421,264z"/>
<path d="M486.8,212.4c1.4,1.8,3.9,3.6,4,5.5c0.3,14,0.3,28.1,0,42.1c0,1.8-2.7,3.5-4.1,5.3c-0.7-0.4-1.3-0.9-2-1.3
	c0-16.6,0-33.1,0-49.7C485.4,213.7,486.1,213.1,486.8,212.4z"/>
<path d="M206.1,265.2c-1.3-1.8-3.6-3.6-3.6-5.5c-0.3-14-0.3-28,0-41.9c0-1.5,1.9-3,2.9-4.5c1.2,1.4,3.3,2.7,3.3,4.1
	c0.2,15.4,0.1,30.7,0.1,46.1C208,264,207,264.6,206.1,265.2z"/>
<path d="M381.8,265.2c-1.3-1.8-3.5-3.7-3.6-5.5c-0.3-13.7-0.1-27.5-0.2-41.2c0-4.3,1.3-6.2,6.2-4.5c0.1,1.4,0.4,2.8,0.4,4.1
	c0,15.1,0,30.2,0,45.4C383.6,264.1,382.7,264.6,381.8,265.2z"/>
<path d="M484.6,204.8c0-4,0-6.8,0-10.6c2.2,0.5,5.2,0.3,5.8,1.5c1,1.8,1,4.8,0.1,6.7C489.9,203.7,487.1,203.9,484.6,204.8z"/>
<path d="M384.3,194.9c0,3.1,0,5.8,0,8.6c-0.6,0.5-1.2,1-1.8,1.5c-1.5-1.6-3.8-3-4.2-4.8C377.4,196.2,378.2,192.8,384.3,194.9z"/>
<path d="M208.5,203.6c-6.7,0.5-6.7,0.5-5.6-8.4C209.2,194,209.2,194,208.5,203.6z"/>
</svg>
