<?xml version="1.0" encoding="utf-8"?>
<!-- Generator: Adobe Illustrator 24.3.0, SVG Export Plug-In . SVG Version: 6.00 Build 0)  -->
<svg version="1.1" id="Layer_1" xmlns="http://www.w3.org/2000/svg" xmlns:xlink="http://www.w3.org/1999/xlink" x="0px" y="0px"
	 viewBox="0 0 500 500" style="enable-background:new 0 0 500 500;" xml:space="preserve">
<g>
	<path d="M55.9,173.8c0-23.7,0.1-47.4-0.1-71.2c0-4.2,0.9-5.5,5.3-5.4c23.7,0.2,47.4,0.2,71.2,0c3.1,0,5.2,0.9,7.4,3.2
		c12.8,14,25.7,27.8,38.8,41.5c2.7,2.8,2.4,4.5,0,7.4c-26.7,31.7-53.3,63.5-79.8,95.4c-3.2,3.8-6.4,5.8-11.6,5.5
		c-8.6-0.5-17.2-0.4-25.8,0c-4.2,0.2-5.5-0.9-5.5-5.3C56.1,221.2,55.9,197.5,55.9,173.8z M90,124.9c-6,0-6,0-6.1,5.6
		c0,7.6-0.1,7.6-7.5,7.8c-1.9,0.1-4.3-1-5.1,2.2c-1.8,6.9,0.2,10,7.2,9.7c4.2-0.2,6.1,0.9,5.5,5.4c-0.3,1.9,0,3.8,0,5.7
		c0,1.1,0,2.1,1.4,2.7c5.3,2.2,9.6-0.5,9.6-6.1c0-1.3,0.1-2.7,0-4c-0.3-2.7,0.7-3.9,3.5-3.6c1.5,0.2,3.1-0.2,4.6,0.1
		c4.6,0.7,4.9-2,4.6-5.4c-0.3-3.1,1.4-7-4.6-6.8c-8,0.3-8.3-0.1-8-7.6C95.3,126.1,94.4,123.8,90,124.9z"/>
	<path d="M155.9,396.3c0,12.3,0,23.1,0,34c0,15.1-0.2,30.2,0.1,45.3c0.1,4.9-1.5,6.3-6.1,5.8c-4.4-0.4-8.8-0.3-13.2,0
		c-4.4,0.3-5.8-1.1-5.8-5.7c0.2-30.2,0.1-60.4,0.1-90.6c0-23.3,0.1-46.7-0.1-70c0-4.3,1.3-5.4,5.2-5c2.5,0.3,5,0,7.5,0
		c10.6,0,10.6,0,11.4,10.5c0.3,0,0.9,0.1,1,0c10.8-17.5,41.7-18.4,56.7,3.2c12.2,17.7,12.6,51.8,0.8,69.9
		C201.4,412.6,173.1,417.7,155.9,396.3z M197.4,359.1c0.3-7-0.6-14.1-4.3-20.7c-4.1-7.4-10.2-11-18.8-10.3
		c-8.3,0.6-13.2,5.5-16.1,12.7c-4.3,10.8-4.4,22-1.2,33.1c3.3,11.4,9.8,16.4,20.4,16.3c9.1-0.1,15.8-6.3,18.7-17.1
		C197.3,368.6,197.4,364.1,197.4,359.1z"/>
	<path d="M113.2,407.9c-13.7,0-13.7,0-17.9-13c-1.5-4.5-2.9-9.1-4.2-13.7c-0.7-2.7-2.2-3.6-4.9-3.5c-13,0.1-26,0.2-39-0.1
		c-3,0-3.9,1.5-4.6,3.8c-2.4,7.6-5,15.2-7.3,22.9c-0.8,2.6-2,3.7-4.8,3.6c-6.1-0.2-12.2-0.2-18.4,0.1c-4.2,0.1-5.3-0.8-3.8-5.2
		c9.1-25.9,18-51.8,27-77.7c5.6-16,11.3-32,16.7-48c1.1-3.1,2.4-4.2,5.6-4.1c6.5,0.2,13,0.2,19.5,0c3.3-0.1,4.5,1.1,5.6,4.2
		c14.3,42,28.8,83.9,43.3,125.8c1.2,3.6,1.3,5.3-3.2,4.9C119.7,407.6,116.5,407.9,113.2,407.9z M67.2,305.9
		C61.8,322.5,57,337.6,52,352.7c-0.8,2.4,0,3.1,2.3,3.1c8.6-0.1,17.2-0.1,25.8,0c2.1,0,2.7-0.8,2.1-2.8
		C77.3,337.8,72.5,322.6,67.2,305.9z"/>
	<path d="M320.3,359.7c-0.5,18.9-5.6,35.9-23.6,45.2c-26.4,13.7-64.1,3-68.5-36.9c-1.5-13.9-0.2-27.1,7.1-39.3
		c9.9-16.4,25.1-22.3,43.4-20.8c18.7,1.6,31.5,11.6,38,29.3C319.4,344.4,320.5,351.9,320.3,359.7z M252.4,359.6
		c-0.3,6.3,0.6,13.1,3.6,19.4c6.4,13.7,25,15.4,33.9,3.2c7.6-10.5,7.8-35.2,0.2-45.9c-8.7-12.3-26.6-11.2-33.7,2.1
		C253.1,344.9,252.4,351.9,252.4,359.6z"/>
	<path d="M399.2,360.2c0.8-22.1,7-40.3,28-48.9c25.7-10.6,59.1,0.7,64.1,37.3c2.2,15.8,0.6,31-9,44.3
		c-10.7,14.7-30.2,21.1-48.6,16.3c-17.9-4.7-30.6-18.7-33.2-36.9C399.9,367.9,399.6,363.5,399.2,360.2z M424.3,359.1
		c0,7.1,0.4,14.1,3.9,20.5c3.9,7.1,9.8,10.8,18.1,10.5c8.1-0.3,14-3.8,17.2-11c5.4-12,5.2-24.5,1.3-36.8
		c-3.4-10.5-10.3-14.7-20.7-14.2c-8.6,0.4-15.3,6.2-18,15.7C424.6,348.9,424.3,354,424.3,359.1z"/>
	<path d="M98.7,299.1c0-13.7,0-27.4,0-41.1c0-1.7,1-2.8,1.9-4c27.1-32.3,54.2-64.6,81.3-97c0.5-0.6,0.5-1.5,0.7-2.2
		c0.6,0.3,1.1,0.6,1.7,1c0,7.5,0,15.1,0,22.6c0,12.2-0.1,24.5,0,36.7c0,3.1-0.3,5.5-4.2,4.9c-3.7-0.6-4.9,1.4-5.6,4.6
		c-1.4,5.9-3.1,11.8-4.5,17.7c-1.3,5.4-4.3,8.3-10.1,7.9c-0.6,0-1.2,0.1-1.7,0c-13-2.8-21.1,3.6-28.4,13.6
		c-9.2,12.5-19.8,24.1-29.8,36C99.6,299.6,99.1,299.4,98.7,299.1z M163,188.3c5.3,7.2,5.5,7.2,10.3-0.3c-2.5,0-4.7,0-7,0
		C165.4,188,164.5,188.2,163,188.3z"/>
	<path d="M141.9,299.6c26.7-32.8,52.6-64.5,78.5-96.2c0.5,0.4,1.1,0.6,1,0.8c-1,6,1.8,7.4,7.3,7c7.6-0.5,15.3,0,22.9-0.2
		c3.5-0.1,5.1,0.7,5,4.7c-0.3,9-0.2,18,0,26.9c0.1,3.7-1.2,4.9-4.9,4.8c-7.1-0.2-14.1,0.2-21.2,0c-3.4-0.1-5.6,0.9-7.7,3.6
		c-11.7,15.1-23.8,29.9-35.5,45c-2.1,2.7-4.2,3.7-7.6,3.7C167.5,299.4,155.5,299.6,141.9,299.6z"/>
	<path d="M352.2,340.5c0,20.7-0.1,41.3,0.1,62c0.1,4.4-1.2,5.7-5.5,5.4c-4.8-0.4-9.6-0.4-14.3,0c-4.3,0.3-5.4-1.2-5.4-5.5
		c0.2-26,0.1-52,0.1-78c0-15.3,0.1-30.6-0.1-45.9c-0.1-4.2,1.1-5.8,5.5-5.5c4.8,0.4,9.6,0.4,14.3,0c4.5-0.4,5.5,1.5,5.4,5.6
		C352.1,299.2,352.2,319.9,352.2,340.5C352.2,340.5,352.2,340.5,352.2,340.5z"/>
	<path d="M392.4,340.6c0,20.8-0.1,41.7,0.1,62.5c0,3.7-0.9,5.1-4.8,4.8c-5.1-0.3-10.3-0.2-15.5,0c-3.4,0.1-4.7-0.8-4.7-4.5
		c0.1-41.8,0.1-83.7,0-125.5c0-3.7,1.1-5.1,4.9-4.8c4.9,0.3,9.9,0.3,14.9,0c3.9-0.2,5.2,0.9,5.2,5.1
		C392.3,298.9,392.4,319.7,392.4,340.6z"/>
	<path d="M239.2,146.1c-4.6-16.6-17.4-22.6-32.3-24.3c-24.5-2.8-38.8-20.3-43.9-41.3c-0.4-1.8-1.1-4.2,0.3-5.5
		c1.5-1.2,3.1,0.7,4.6,1.4c16,7.8,33.7,9.4,50.6,13.9c12.5,3.3,22.6,10.6,25.3,23.8C246.1,124.9,244.9,135.9,239.2,146.1z"/>
	<path d="M239.6,149.2c8.8,0,17.6,0,26.4,0c2.8,0,5,0.4,2.4,3.6c-11.7,14.6-15.8,31.2-13.4,49.6c0.4,3.2-0.7,4.4-4.1,4.3
		c-7.1-0.2-14.1-0.2-21.2,0c-3,0.1-4.3-0.9-3.9-3.9c0-0.2,0-0.4,0-0.6c2.7-18.6-2.1-34.9-14.6-49c-0.8-0.9-2.2-2-1.2-3.4
		c0.9-1.2,2.5-0.6,3.7-0.6C222.4,149.2,231,149.2,239.6,149.2z"/>
	<path d="M245.5,138.5c0.6-2.7,1.1-5.1,1.8-7.4c4.9-17.3-2.4-36.8-17-47.6c-11.9-8.8-25.7-11-39.6-13.6c-11.1-2.1-21.5-6-31.5-11.5
		c-7.3-4-8.2-10.5-8.8-17.3c-0.6-6.6-0.2-13.3-0.2-20c0-1.1-0.3-2.5,1.3-2.7c1.1-0.1,1.5,1,1.8,1.9c6.6,20.1,23.4,28,41.2,34.8
		c9.4,3.6,19.5,5.3,28.8,9.2c27.2,11.4,39.6,46.7,25.1,72.2C248,137.4,247.6,138.3,245.5,138.5z"/>
	<path d="M255.1,270.3c0,1.7-0.3,3.5,0.1,5.1c2.4,11.1-3.4,17.8-11.9,23.5c-2,1.3-3.3,2-5.3,0.1c-3.2-3-6.6-5.8-10.1-8.5
		c-1.8-1.4-2-3.1-2-5c0-9.9,0.1-19.9-0.1-29.8c0-3.2,0.9-4.4,4.3-4.3c7.1,0.2,14.1,0.2,21.2,0c3.3-0.1,3.9,1.3,3.8,4
		C255,260.3,255.1,265.3,255.1,270.3z"/>
	<path d="M251.7,457.2c-0.4,9.3-2.5,16.8-11,20.6c-9,4-19.1-0.1-22.6-9.1c-2.4-6.2-2.5-12.7-0.4-19.1c3-9,9.9-13.3,18.8-12.2
		c8.4,1,13.9,6.9,14.9,16.1C251.6,455.1,251.6,456.6,251.7,457.2z M221.5,458.5c0,1.3-0.1,2.7,0,4c0.9,6.9,4.9,11.2,11.1,11.7
		c7.4,0.6,10.9-2,13-9.7c1.5-5.5,1.6-10.9-1.2-16c-2.9-5.3-9.8-7.8-15.2-5.2C222.9,446.3,221.4,452,221.5,458.5z"/>
	<path d="M467.2,437.4c6.1-0.1,11.4,3,12.7,7.7c0.4,1.5,2.5,3.7-0.5,4.8c-2.2,0.8-3.4-0.6-4.2-2.6c-1.8-5-5.8-5.4-10.3-4.8
		c-3.4,0.5-4.9,2.8-5.2,5.9c-0.4,3,1.4,4.6,4,5.4c3.3,1,6.6,1.9,9.9,2.8c5.2,1.4,8.2,4.7,8.3,10.2c0.1,5.6-2.3,9.4-7.8,11.3
		c-9.4,3.3-18.5-0.5-20.3-8.8c-0.3-1.5-1.4-3.5,1.3-4.1c2.1-0.4,3,0.8,3.7,2.6c2.3,6.1,8.2,8.4,14.1,5.8c2.6-1.1,4-3.2,4-5.8
		c0-2.6-1.1-4.8-3.9-5.7c-3.1-1-6.2-1.9-9.3-2.8c-7.3-2.3-10-5.8-9.1-11.7C455.7,441.5,460.6,437.4,467.2,437.4z"/>
	<path d="M273.6,437.4c6.4,0,11.7,3.3,13,8.3c0.4,1.4,1.5,3.6-1.1,4.2c-1.8,0.5-2.8-0.3-3.7-2.3c-2.2-5.1-7.5-6.8-12.3-4.6
		c-2.4,1.1-3.3,2.9-3.4,5.4c-0.1,2.7,1,4.5,3.5,5.3c3.6,1.1,7.3,2.1,11,3.2c4.4,1.3,7.2,4,7.6,8.9c0.4,5-1,8.9-5.6,11.5
		c-9,5.1-20.2,1.1-22.1-8c-0.3-1.6-1.3-3.5,1.4-4c2.1-0.4,2.7,0.8,3.4,2.8c2,6.4,9.7,8.8,15.3,5c4.2-2.9,4-8.4-0.6-10.5
		c-3.1-1.4-6.5-2.2-9.8-3.1c-7.4-2.2-9.6-5.2-8.7-11.7C262.1,441.3,266.9,437.4,273.6,437.4z"/>
	<path d="M177.8,457.9c0-5.4,0-10.7,0-16.1c0-1.7-0.1-3.5,2.5-3.5c2.6,0,2.7,1.6,2.6,3.4c0,0.6-0.1,1.2,0,1.7
		c0.3,3.5-1.9,8.8,1,10.2c4.6,2.4,10.4,0.8,15.8,0.7c2.3,0,1.7-2.1,1.8-3.5c0.1-3.2,0.1-6.5,0-9.7c0-1.8,0.5-2.8,2.6-2.9
		c2.1,0,2.6,1,2.6,2.8c0,11.3,0,22.6,0,33.8c0,1.6-0.1,3.1-2.3,3.2c-2.4,0.1-2.8-1.3-2.8-3.3c0-3.6-0.3-7.3,0.1-10.9
		c0.4-3.8-1.4-4.8-4.6-4.5c-0.2,0-0.4,0-0.6,0c-13.3-0.3-13.3-0.3-13.5,13c0,2.1,1.5,5.7-2.7,5.6c-3.9,0-2.2-3.4-2.3-5.3
		C177.6,467.9,177.7,462.9,177.8,457.9C177.7,457.9,177.7,457.9,177.8,457.9z"/>
	<path d="M386.7,478.1c-3.7,0.3-4.2-0.8-3.4-3c4-11.5,8-23,12-34.4c0.6-1.6,1.5-2.4,3.4-2.3c1.6,0.1,3,0.2,3.6,2
		c3.9,11.7,7.9,23.4,11.8,35.1c0.3,1,0.5,2-0.6,2.5c-1.2,0.5-2.8,0.7-3.7-0.5c-0.9-1.2-1.7-2.6-1.9-4c-0.8-6.1-4.1-7.6-10.2-7.5
		c-5.3,0.1-7.4,2-8.6,6.7C388.6,474.7,388.9,477.8,386.7,478.1z M398.9,445.5c-2.7,4.2-3.2,8.8-4.9,12.9c-0.4,0.9-1,2.7,0.4,2.9
		c2.8,0.4,5.7,0.6,8.4,0.1c2-0.4,0.4-2.2,0.1-3.3C401.7,453.9,400.3,449.9,398.9,445.5z"/>
	<path d="M299.4,458c0-5.3,0.1-10.7,0-16c-0.1-2.6,0.7-3.8,3.5-3.7c4.6,0.2,9.2-0.1,13.7,0.2c6.4,0.5,10,5,9.8,11.7
		c-0.2,6.8-4,10.7-10.5,11.1c-3.7,0.2-8.8-1.8-10.9,0.9c-1.9,2.5-0.6,7.3-0.9,11c-0.1,1.8,1.2,4.7-2.3,4.8c-3.6,0.1-2.3-2.9-2.4-4.7
		C299.3,468.3,299.5,463.2,299.4,458C299.4,458,299.4,458,299.4,458z M310.4,456.8c4.3-0.3,9.4,1,10.7-5c0.7-3.1,0.4-6.4-3-7.8
		c-4.3-1.7-9.8-2.5-13,0c-2.5,2-1.3,7.6-0.5,11.4C305.1,458.1,308.5,456.1,310.4,456.8z"/>
	<path d="M423,457.9c0-5.3,0-10.7,0-16c0-1.7-0.2-3.5,2.5-3.5c2.6,0,2.5,1.7,2.5,3.5c0,9,0.1,17.9-0.1,26.9
		c-0.1,3.6,1.1,4.7,4.6,4.5c3.4-0.3,6.9-0.1,10.3-0.1c1.9,0,3.5,0.2,3.5,2.6c0,2.1-1.5,2.4-3.1,2.4c-5.7,0-11.5-0.1-17.2,0
		c-2.8,0-3-1.6-3-3.7C423,469,423,463.5,423,457.9C423,457.9,423,457.9,423,457.9z"/>
	<path d="M363.7,460.7c0-4.2-0.3-8.4,0.1-12.6c0.3-4.1-1.2-5.2-5.2-5.2c-2.4,0-7.2,2.4-7-2.5c0.2-4,4.6-1.8,7.1-2
		c6.1-0.4,12.2-0.2,18.3,0c1.7,0,4.1-0.8,4.1,2.5c-0.1,2.8-2.1,2.2-3.7,2.3c-8.8,0.5-8.8,0.5-8.8,9.3c0,6.9,0.1,13.7-0.1,20.6
		c-0.1,1.9,1.5,5.3-2.4,5.1c-3.8-0.1-2.1-3.4-2.2-5.3C363.5,468.8,363.7,464.7,363.7,460.7z"/>
	<path d="M342.8,458.6c0,5.3,0,10.7,0,16c0,1.7,0.3,3.6-2.3,3.7c-2.7,0.1-3-1.6-3-3.7c0-10.9,0-21.7,0-32.6c0-1.7-0.3-3.5,2.4-3.7
		c2.9-0.2,2.9,1.7,2.9,3.7C342.7,447.6,342.7,453.1,342.8,458.6C342.8,458.6,342.8,458.6,342.8,458.6z"/>
	<path d="M244.1,142.5c-0.2-0.3-0.6-0.6-0.5-0.7c0.2-0.5,0.5-1,0.9-1.2c0.8-0.4,0.8,0.4,0.6,0.8C245,141.8,244.5,142.1,244.1,142.5z
		"/>
</g>
</svg>
