<?xml version="1.0" encoding="utf-8"?>
<!-- Generator: Adobe Illustrator 24.3.0, SVG Export Plug-In . SVG Version: 6.00 Build 0)  -->
<svg version="1.1" id="Layer_1" xmlns="http://www.w3.org/2000/svg" xmlns:xlink="http://www.w3.org/1999/xlink" x="0px" y="0px"
	 viewBox="0 0 500 500" style="enable-background:new 0 0 500 500;" xml:space="preserve">
<g>
	<path d="M254,30.4c-1.9,3.8,2,3.5,3.4,4.3c17.7,10.4,35.4,20.5,53.2,30.7c1.9,1.1,3.7,2.5,5.5,3.7c-4.9,3-11,0.2-15.9,3.2
		c-7-1.9-12.5-6.6-18.7-9.9c-9.6-5.2-18.8-10.9-28.1-16.6c-6-3.7-9.4,1.7-13.3,3.9C224.9,58.2,210,67.3,195,76.1
		c-0.5-3.2-2.8-4-5.6-4.1c-2.3,0-4.8,0.3-6.6-1.7c19.8-11.7,39.6-23.4,59.3-35.2c1.6-1,5.4-0.8,3.9-4.7
		C248.7,30.4,251.3,30.4,254,30.4z"/>
	<path d="M416.7,127.2c16.1,9.2,32.3,18.6,48.5,27.7c8.4,4.8,16.5,10.3,25.5,14c0,4.9,0,9.9,0,14.8c-2.6-0.1-4.4-1.9-6.5-3.1
		c-25.2-14.6-50.4-29.3-75.6-44c-1.9-1.1-3.6-2.5-5.4-3.7c2-2.3,4.4-2.4,7.2-1.8C413.4,131.7,416.2,131.1,416.7,127.2z"/>
	<path d="M9.3,170.2c2.9,1.1,4.5-1.3,6.4-2.5c20.3-11.7,40.6-23.4,60.9-35.2c2.4,1.3,5.1,1.4,7.8,1.4c3.1,0,6.3-0.5,8.4,2.7
		c-19.2,11.6-38.5,23.2-57.7,34.7c-8.5,5.1-17.1,10-25.7,15C9.3,181,9.3,175.6,9.3,170.2z"/>
	<path d="M249.8,274.8c-1.5-9.9,2.1-20-2.1-31.2c-9.4,9.9-13.6,22.2-20.6,32.7c-3.1,0-6.2,0-9.3,0c-1.1-3.7-1.7-7.3-1.5-11.2
		c0.8-19,5.3-37.2,11.4-55.1c1.6-4.8,4.4-9.2,4.7-14.4c0.1-1.6,1.1-3.9-0.9-4.8c-2.2-1-3.8,0.7-5,2.4
		c-11.2,15.2-22.1,30.6-29.9,48.1c-3.7,8.3-5.2,16.7-5.1,25.6c-2.5,0-4.9,0-7.4,0c-0.8-5.5-1.8-10.9-2.5-16.4c-0.8-5.9-3-7-7.8-3.4
		c-6.4,4.9-11.4,11.2-16.8,17.1c-6.5-1.3-13.4,1.7-19.8-1.4c-0.5-2.2,1.5-5.3-1.5-6.5c-2.2-0.9-4.1,1.3-5.8,2.6
		c-5.2,4-10.4,8.1-15.5,12.2c-2.6-0.7-5.3-1.1-7.2-3.2c1.3-4.8,1.4-9.6,1.4-14.5c-0.1-33.6,0.4-67.1-0.2-100.7
		c-0.2-9.4,2.7-14.7,11.9-17c1.1,1.6,0.5,3.6,0.5,5.4c0.1,34,0.1,68,0.1,102c0,4.1-0.5,8.9,5.3,8.8c5.5-0.1,7.1-4.1,7.1-9.3
		c-0.1-34.4,0-68.9,0.1-103.3c0-1.8,0.1-3.6,0.2-5.4c3.8,0,7.5-0.1,11.3-0.1c0.3,38.9,0.6,77.8,0.9,116.7c0,3.7-1.3,9.1,3.4,9.9
		c5.2,0.9,6.8-4.4,8.4-8.7c1.1-3.1,1-6.1,1-9.3c0.1-34.4,0.1-68.9,0.2-103.3c3.9,0,7.9,0,11.8,0c0.1,25.7,0.2,51.4,0.4,77
		c0,2.8-0.9,6.4,2.8,7.4c3.7,1,5.5-2.2,7.1-4.9c2.5-4.2,2.4-9,2.4-13.7c0.2-25.5,0.4-50.9,0.6-76.4c4.1,0,8.3,0,12.4,0
		c1.8,18.7,0.7,37.5,1.6,56.2c0.1,2.7-2.6,7.7,2.9,7.9c4.9,0.1,7.3-4,7.4-8.5c0.4-13.2,0.4-26.3,0.6-39.5c4.1,0,8.3,0,12.4,0
		c0.1,6.9,0.2,13.8,0.2,20.7c0.1,9.5,0.8,10.3,11.5,12.1c0-8.8,0-17.5,0-26.1c4.2,0,8.3,0,12.5,0c0.1,5.8,0.4,11.6,0.1,17.3
		c-0.2,4.8,2,5.3,5.6,3.9c5.2-1.9,9.5-4.3,8.5-11.3c-0.5-3.7,0-7.5,0.1-11.3c4.2,0,8.5-0.1,12.7-0.1c0.1,5.8,0.3,11.6,0.1,17.3
		c-0.1,3.9,0.9,6.7,5.2,6.6c3.9-0.1,5.9-2.6,6-6.6c0.1-9.3,0.2-18.7,0.3-28c4.1,0,8.3,0,12.4,0c0.2,11.4,0.3,22.8,0.5,34.2
		c0,1.8-0.2,3.6,0.1,5.4c0.6,4.4,0.8,10.2,6.6,9.9c5.5-0.4,3.8-6.2,3.9-9.8c0.4-14.5,0.6-29.1,0.9-43.6c4.3,0,8.7,0.1,13,0.1
		c0.2,22.6,0.4,45.2,0.5,67.8c0,4.2,0.5,8,3.3,11.3c1.7,2,3.6,3.4,6.4,2.6c3-0.9,3-3.4,3-5.9c0-21.3,0.1-42.5,0.2-63.8
		c3.9,0,7.8,0,11.7,0c0.1,32.2,0.2,64.4,0.1,96.5c0,4,0.7,7.5,3,10.7c0.9,1.3,2,2.7,4,2.2c2.1-0.5,2.5-1.9,2.6-3.9
		c0.5-6.1-2.1-11.1-5.8-15.9c9.5-1.9,9.4-1.9,9.5-11.9c0.1-28.2,0.3-56.3,0.5-84.5c3.8,0,7.6,0,11.3,0.1c0.1,30.5,0.3,60.9,0.3,91.4
		c0,4.8,1.3,8.7,4.3,12.3c1.4,1.7,2.7,3,5,2.5c2.7-0.7,3.1-2.9,3.1-5.3c0-1.6,0-3.1,0-4.7c0-31.1,0.1-62.3,0.1-93.4
		c0-2.1,0-4.3,0-6.7c12.1,5,12.1,5,12.1,16.8c0,32.2,0.1,64.5,0,96.7c0,4.5,1,8.1,4.1,11.5c1.5,1.7,2.9,2.8,5,2.3
		c2.3-0.6,4-2.1,4.2-4.6c0.2-1.8,0.1-3.6,0.1-5.4c0-34,0-68.1,0-102.2c10.5,2.9,12.3,5.1,12.2,15.4c-0.1,34.5-0.2,69-0.2,103.5
		c-7.5,0.6-15.2-0.9-22.7,1.3c-7.4-6.7-14.5-13.6-22.6-19.5c-3.6-2.6-8.3-6.6-11.6-4.5c-3.5,2.2,0.8,7,1.8,10.7
		c1.4,5.3,3.7,10.4,4.3,16c-3.3,0.4-6.8-0.9-9.7,1.7c-8.8-12.4-20.4-21.6-33.4-29.3c-5.4-3.2-8.8-2.6-9.9,2.4
		c-2,8.7-3.5,17.6-5.2,26.4c-2.1-0.4-4.2-0.9-6.3-1.3c0.3-2,0.7-4,0.7-6c0.4-7.9,5.1-15.6,1.8-23.6c-7.3-17.5-15.3-34.7-28.5-48.8
		c-2.2-2.4-4.6-7.7-7.9-5.3c-2.7,1.9-0.1,7.1,1.5,10.4c6.9,14.2,9.8,29,9.4,44.8c-0.2,8.1,0.7,16.3,1.1,24.4c-3,0.4-6,0.9-9,1.3
		c-4.7-5.7-6.9-12.8-10.9-18.9c-1-1.6-1.8-4.2-4.3-3.6c-2.5,0.6-1.8,3.3-1.8,5.1c-0.1,6.7,0.1,13.3,0.1,20
		C255.9,274.8,252.8,274.8,249.8,274.8z M250,210c-0.4-5.9,1.3-12-1.2-17.8c-0.6-1.3,0-3.5-2.1-3.5c-1.6-0.1-2.3,1.7-3.2,3
		c-5.2,7.3-7.5,15.8-10.2,24.2c-4.1,12.8-7.5,25.7-8.6,39.2c-0.1,1.4-0.9,3.3,1.4,3.9c2,0.4,2.6-1.3,3.4-2.6
		c4.2-6.6,7.7-13.7,12.7-19.7C248.8,228.7,251.7,220.2,250,210z M258.1,191c0,10.8,0.5,20.6-0.2,30.2c-0.6,8.1,2.3,14.6,7,20.6
		c2,2.6,4.2,5,5.9,7.8c1.1,1.7,1.8,4.1,4.1,3.5c2.2-0.6,2.1-3.1,1.9-5.2c-1.2-14.2-2.5-28.4-8.7-41.4
		C265.8,201.6,264.9,195.2,258.1,191z M322.2,236c3.2,0.1,4.9,0.8,5.5-0.8c0.7-2.1-0.6-4-1.7-5.6c-10.3-15.8-21.9-30.4-36.6-42.4
		c-1.5-1.2-3.5-3.4-5.2-1.9c-2.2,1.9,0.2,4.4,1.4,5.7c9.5,9.9,17.2,21.1,22.9,33.7C311.5,231.4,315.3,237.4,322.2,236z M215.1,191.9
		c-10.5,8.3-18.1,16.7-25.1,25.6c-3,3.8-8.1,7.9-1.6,13.2c1,0.8-0.3,3.6,1.9,3.7c1.9,0.1,2.9-1.8,3.8-3.4
		c6.8-11.5,13.6-23,20.4-34.6C214.8,195.7,214.7,194.8,215.1,191.9z"/>
	<path d="M217.8,276.3c3.1,0,6.2,0,9.3,0c-6.6,15.1-11.9,30.6-17.1,46.1c-4.6,14-3.2,17.4,9.2,25.2c8.1,5.1,15.9,10.9,23.9,16.2
		c2.7,1.8,3.8,3.6,1.8,6.6c-2.3,3.4-4.2,1-6.1-0.4c-17.3-13.1-34.9-25.8-54.5-35.4c-8-3.9-12.5-3.4-19.2,2.9
		c-10.5,9.8-19.4,21.1-29,31.7c-4,4.5-17.8,7-23.1,4.5c-1.5-0.7-2.2-2-2.9-3.5c-3.1-6.9-6.3-13.8-9.4-20.8c-1.7-3.8-4.4-6.4-8.4-7
		c-9.1-1.4-18.2-2.5-27.3-3.6c-4.1-0.5-6,0.5-5.6,5.5c0.7,8.5,0.5,17,0.8,25.5c0.1,3.1-1,4.4-4.2,4.4c-3.1,0-3.8-1.4-3.7-4.1
		c0.1-7.6,0.1-15.2,0-22.8c0-1.9,0.6-4.2-2.6-4.4c-3.4-0.1-3.3,2.3-3.3,4.5c0,7.2-0.3,14.3,0.1,21.5c0.3,5.5-3.3,4.8-6.6,4.8
		c-3.1,0-6.3,0.7-6.2-4.4c0.3-31.1,0.3-62.2,0.4-93.3c3.8,0.1,7.7,0.1,11.5,0.2c0,16.1,0.2,32.2,0,48.3c-0.1,4.8,1.2,7.2,6.2,7.1
		c5,0,6.6-2.9,6.6-7.3c0-14.8-0.1-29.5-0.1-44.3c0-2.7,0.4-5.3,0.6-8c3.6,0,7.3,0.1,10.9,0.1c0.1,9.8,0.1,19.6,0.4,29.5
		c0.1,2.2-1.3,5.5,2,6.2c2.9,0.6,5.7-0.8,7.5-3.5c2.8-4.3,3.2-9.2,3.3-14.1c0.2-5.6,0.3-11.1,0.4-16.7c4.1,0,8.2,0,12.3,0
		c4.8,0.1,8.6-2,11.6-5.6c2,2.1,4.7,2.5,7.2,3.2c-13.6,13.6-25.4,28.5-33.8,46.1c-7.5,15.6-4.3,18.7,12,19.5
		c7,0.4,11.2,3.6,13.6,9.8c1.4,3.5,2.6,7.2,4.1,10.6c0.7,1.7,1.3,4,4,3.8c3.1-0.3,2.2-2.8,2.5-4.6c0.7-6.2,1.1-12.5,2.2-18.6
		c4.6-25.3,13.6-49.5,18.2-74.8c6.4,3.1,13.3,0.1,19.8,1.4c0.1,2.3-1.8,3.5-3,5c-6.5,8-12.3,16.7-16.5,25.9
		c-8.7,19.2-13.7,39.7-13.2,61.1c0.1,3.4-1.6,8.3,2.2,9.8c3.9,1.5,5.6-3.5,8-5.9c9.1-9.2,16.6-20,26.6-28.3
		c6.2-5.1,13.1-7.6,21.2-5.3c12.8,3.7,13,3.6,10.3-9.4c0-0.2-0.1-0.4-0.2-0.7c-2.9-16.5-7-32.7-8.5-49.4c2.5,0,4.9,0,7.4,0
		c1.2,7.1,2.3,14.3,3.6,21.4c1.5,8,3.3,16,4.9,24c0.3,1.6,0.8,3.1,2.9,3.1c1.6,0,2.3-1.1,2.8-2.4C210,300.7,216.2,289.2,217.8,276.3
		z"/>
	<path d="M399.4,272.3c7.4-2.2,15.1-0.8,22.7-1.3c0.1,4,0.6,8,0.3,12c-0.5,5.9,3.2,9.5,6.4,13.4c2.4,2.8,4.2,1.2,5.5-1.5
		c1.9-4.1,0.7-8.4,1-12.6c0.2-2.4,0.3-4.9,0.4-7.3c3.6,0,7.3-0.1,10.9-0.1c1.4,11.4,0.1,22.8,0.5,34.1c0.1,2.5,0.1,4.9,0,7.4
		c-0.1,4.5,1.7,7.5,6.5,7.3c4.9-0.1,6.2-3.5,6.2-7.8c0-13.4-0.1-26.8-0.1-40.3c0-2.9,0.2-5.8,0.3-8.7c3.8,0,7.6,0,11.4-0.1
		c0.1,26.2,0.2,52.4,0.3,78.5c0,7.6-0.3,15.2,0.1,22.8c0.4,5.7-2.9,5.5-6.7,5.3c-3.5-0.2-7.2,0.9-6.9-5.1c0.5-8.5,0.2-17,0-25.5
		c0-2,1.8-5.7-2.5-5.5c-3.9,0.2-2.3,3.7-2.4,5.8c-0.3,8.7-0.3,17.5-0.5,26.2c0,2.4,0.6,5.3-3.4,5.1c-3.7-0.2-2.5-3.1-2.5-5.1
		c-0.1-9.8,0-19.7-0.1-29.6c0-6.8-1.5-8.1-8-6.6c-7.2,1.6-14.3,3.5-21.6,4.9c-6,1.2-9.7,3.9-9.5,10.7c0.2,7.1-0.4,14.3-0.4,21.5
		c0,3.3-1.4,4.1-4.4,4.1c-3,0-3.8-1.2-3.8-4c0.1-8.3-0.1-16.6,0.2-24.8c0.2-5.4,2.9-9.3,8.5-10.7c4.8-1.2,9.5-2.4,14.3-3.7
		c9.2-2.6,11.2-6.9,7-15.4c-7.4-15.1-15.5-29.8-28.1-41.3C400.3,273.8,399.9,273,399.4,272.3z"/>
	<path d="M275.8,272.2c3-0.4,6-0.9,9-1.3c3.9,8.2,7.8,16.4,11.8,24.6c1,2,1.2,5.6,4.5,4.8c2.7-0.7,2.2-4,2.8-6.3
		c1.7-6.3,0.1-13,2.7-19.1c2.1,0.4,4.2,0.9,6.3,1.3c-1.2,12.9-3.1,25.7-3.1,38.7c0,5.1-2.9,11.3,2.9,14.8c5.6,3.3,9.5-1.9,13.8-4.3
		c10.5-5.9,16.8-5.2,25.2,3.2c7.9,7.9,15.8,15.8,23.8,23.7c1.8,1.8,3.5,5,6.5,3.7c3.3-1.5,2-5,1.8-7.8c-2-25.5-9.2-49.4-22.3-71.5
		c2.9-2.6,6.5-1.2,9.7-1.7c10.7,28.6,21,57.3,20.2,88.5c0,1.1,0.1,2.2,0,3.4c-0.2,2.8,1.1,6.3-2.2,7.8c-3.4,1.5-5.2-1.7-7.2-3.7
		c-11.8-12.2-23.6-24.5-35.4-36.7c-6.1-6.3-8.3-6.6-15.7-2.1c-19.2,11.7-38.3,23.6-55.7,37.9c-3.6,3-7.1,4.6-11.9,0.6
		c7.2-5.6,14.1-11.1,21.1-16.6c4.9-3.9,9.8-7.8,14.9-11.5c5.5-3.9,6.2-8.2,3.5-14.5C294.6,309.1,286.1,290.2,275.8,272.2z"/>
	<path d="M92.8,136.7c-2-3.3-5.3-2.7-8.4-2.7c-2.7,0-5.3-0.1-7.8-1.4c27.8-16.4,55.6-32.9,83.5-49.3c7.5-4.4,15-8.6,22.6-12.9
		c1.8,2,4.3,1.7,6.6,1.7c2.9,0.1,5.1,0.9,5.6,4.1c-10.7,6.5-21.3,13.2-32.2,19.4c-13.8,7.9-27.2,16.5-41.1,24.2
		C111.9,125,102.5,131.1,92.8,136.7z"/>
	<path d="M95.7,273.6c-4.1,0-8.2,0-12.3,0c-0.1-37.6-0.2-75.2-0.2-112.7c0-7.5,7.6-6.9,12.2-12c0,3.8,0,5.9,0,8
		c0,36.2,0,72.5,0,108.7C95.3,268.2,95.6,270.9,95.7,273.6z"/>
	<path d="M416.7,127.2c-0.5,3.9-3.3,4.5-6.3,3.8c-2.8-0.6-5.2-0.6-7.2,1.8c-18-10.3-36-20.4-53.9-30.8c-15-8.7-29.9-17.6-44.8-26.5
		c-1.5-0.9-2.8-2.1-4.2-3.1c4.9-3,11-0.3,15.9-3.2C349.6,88.5,383.2,107.9,416.7,127.2z"/>
	<path d="M446.5,274.8c-3.6,0-7.3,0.1-10.9,0.1c0-36,0-71.9,0-107.9c9.9,2.2,11.4,3.8,11.3,13.3
		C446.8,211.8,446.7,243.3,446.5,274.8z"/>
	<path d="M69.8,272.3c-3.6,0-7.3-0.1-10.9-0.1c-0.1-32.5-0.2-64.9-0.4-97.4c0-7.2,6.9-6.3,11.3-10.6C69.8,201,69.8,236.6,69.8,272.3
		z"/>
	<path d="M245.5,151.5c-4.2,0-8.3,0-12.5,0c0-26.4-0.4-52.8,0-79.2c0.1-7,8.1-6.1,12.9-11.4C245.5,92.6,246.8,122,245.5,151.5z"/>
	<path d="M45.6,276.3c-3.8-0.1-7.7-0.1-11.5-0.2c-0.1-28.8-0.2-57.6-0.3-86.4c0-3.2,7.7-10.5,10.7-10.1c2.8,0.3,1.7,2.8,1.7,4.3
		c0,10.7-0.2,21.4-0.3,32.1C45.8,236.1,45.7,256.2,45.6,276.3z"/>
	<path d="M272.7,150c-4.2,0-8.5,0.1-12.7,0.1c-1.4-28.6,0-57.2-0.5-85.9c11.6,3,13.4,5.2,13.4,16.1
		C272.8,103.6,272.7,126.8,272.7,150z"/>
	<path d="M249.8,274.8c3,0,6.1,0,9.1,0c1,22.8-0.1,45.5-0.1,68.3c0,8.3-0.1,16.5,0.1,24.8c0.1,3.5-1.6,4-4.5,4c-2.9-0.1-5.2,0-5.1-4
		c0.1-30.6,0.1-61.2,0.1-91.8C249.3,275.6,249.6,275.2,249.8,274.8z"/>
	<path d="M471.3,266.8c-3.8,0-7.6,0-11.4,0.1c-0.2-23-0.3-46-0.5-69c0-4.7-0.3-9.4-0.4-14c0-2.7,0.7-3.5,3.6-2.1
		c6.1,2.9,9.4,6.3,9.2,14.1C471.1,219.5,471.4,243.1,471.3,266.8z"/>
	<path d="M221.3,144.8c-4.1,0-8.3,0-12.4,0c0.2-19.7,0.2-39.3,0.8-59c0.2-6.6,7.1-6.1,11.6-9.6C221.3,99.8,221.3,122.3,221.3,144.8z
		"/>
	<path d="M296.5,139.4c-4.1,0-8.3,0-12.4,0c0-20.3,0-40.5,0-60.8c11,2.9,12.4,4.3,12.2,15.4C296,109.1,297.7,124.2,296.5,139.4z"/>
	<path d="M83.5,437.5c0-9.3,0-18.7,0-28c3.3,0,6.6,0,9.9,0c0.1,4,0.6,8,0.3,12c-0.3,4.1,1.9,4.3,4.9,3.9c5.1-0.7,8-3.7,8.7-8.7
		c0.4-2.9,0.2-5.8,0.2-8.7c3.4,0,6.8,0.1,10.3,0.1c1.8,7.5,0.3,14.1-6.6,18.3c-2.1,1.3-2.2,2.1-1.1,4c1.4,2.2,2.4,4.7,3.6,7
		c-3.8,0-7.6,0.1-11.5,0.1c-1.3-2.1-2.5-4.1-3.8-6.2c-0.8-1.3-1.4-3.2-3.3-2.6c-2,0.6-1.1,2.6-1.3,4c-0.2,1.5-0.2,3.1-0.3,4.6
		C90.2,437.5,86.9,437.5,83.5,437.5z"/>
	<path d="M321.4,135.5c-4.3,0-8.7-0.1-13-0.1c0-14.2,0-28.4,0-43c13.3,4.8,13.7,5.1,13.5,17.1C321.8,118.2,322.8,126.8,321.4,135.5z
		"/>
	<path d="M306.7,432.3c-1.2-1.3-1.6-4.2-4.1-3.3c-2,0.7-1,3-1.3,4.6c-0.2,1.3-0.2,2.6-0.3,3.9c-3.2,0-6.4-0.1-9.5-0.1
		c-0.8-9.2-0.7-18.5,0-27.7c3.2-0.1,6.3-0.2,9.5-0.2c0.1,3.1-0.1,6.3,0.4,9.3c0.4,2.3-2,5.9,2,6.6c3.6,0.7,7.1-0.4,9.4-3.7
		c2.6-3.7,2-8,2.1-12.2c3.4,0,6.8,0,10.2-0.1c1.3,7.5-0.6,13.7-7.6,17.8c-1.6,0.9-0.2,2.3-0.2,3.5
		C314.2,433.8,310.3,432.3,306.7,432.3z"/>
	<path d="M471.2,410.9c0.4,10.1-4.1,16.9-13.2,17.2c-7.4,0.2-8.3,3.7-7.8,9.4c-3.3,0-6.7,0-10,0c-0.6-9.7-0.5-19.5,0.1-29.2
		c3.3,0,6.6-0.1,9.9-0.1c0.1,4,0,8,0.3,12c0.1,1.7-1.3,4.4,1.3,5.1c2.5,0.6,4.7-0.8,6.3-2.8c2.8-3.5,1.3-7.7,2-11.6
		C463.7,410.9,467.4,410.9,471.2,410.9z"/>
	<path d="M196.4,128.8c-4.1,0-8.3,0-12.4,0c-1.4-9.5-0.9-19.1-0.3-28.6c0.4-5.9,7.8-5.5,11.8-9C195.9,103.9,198,116.3,196.4,128.8z"
		/>
	<path d="M244.7,432.4c0.9,3.9,1.6,7.8,2.8,11.6c1.2,3.8,3.6,6.7,7.4,8.1c7.3,2.7,11.5-0.2,11.5-7.8c0-3.1-0.1-6.2-0.2-9.3
		c3.6,0,7.2,0,10.8,0c0,2.2-0.1,4.5-0.1,6.7c-0.1,11.8-0.4,12.2-12.5,14.1c-16.7,2.6-28.9-6.5-31-23.2
		C237.2,432.5,240.9,432.5,244.7,432.4z"/>
	<path d="M346.6,147.4c-3.9,0-7.8,0-11.7,0c0-13.1,0-26.3,0-39.4c11.2,3.3,11.9,4.2,11.9,15.4C346.8,131.3,346.7,139.3,346.6,147.4z
		"/>
	<path d="M170.8,437.7c-2.7,11.4-12.4,19.3-22.8,18.7c-11.7-0.8-20.4-10.1-22.2-23.7c3.7-0.1,7.5-0.2,11.2-0.2
		c1.3,5.1,1.1,10.6,4,15.3c4.3,6.9,12,7,15.9-0.2c1.7-3,2.3-6.6,3.4-10C163.9,437.6,167.4,437.6,170.8,437.7z"/>
	<path d="M186.2,406.9c1.3,9,9.9,10.8,15.5,15.5c2.9,2.5,5.7,4.6,7.1,8.1c-3.5,3.9-8.9,0.4-12.6,3.3c-5.3-2.8-10.5-5.9-13.9-11
		c-3.2-4.9-5-10.3-1.9-16.1C182.3,406.9,184.3,406.9,186.2,406.9z"/>
	<path d="M378.5,438.1c-3.8,11.6-11.9,18.3-22,18.3c-10.5,0-18.9-7.5-22.3-19.7c3.6-0.1,7.3-0.3,10.9-0.4c1.1,3.6,1.9,7.3,3.3,10.8
		c1.4,3.5,4.2,5.7,8.3,5.7c4.1,0,6.7-2.4,8.3-5.7c1.4-3,2.2-6.2,3.3-9.3C371.7,437.7,375.1,437.9,378.5,438.1z"/>
	<path d="M48.2,409.5c0.1,2.9,0.1,5.8,0.4,8.7c0.2,1.9-1.1,4.6,1.3,5.4c2.7,0.9,4.4-1.3,5.9-3.4c0.8-1.2,0.4-3.2,3.6-3.7
		c0,4.6,0,9.1,0,13.6c0,2.2-0.9,2.7-2.9,1.5c-7.5-4.7-7.5-4.6-7.9,4.6c0,0.4-0.1,0.9-0.2,1.3c-3.4,0-6.8-0.1-10.1-0.1
		c0-9.3,0-18.6,0-27.9C41.5,409.6,44.9,409.5,48.2,409.5z"/>
	<path d="M170.6,139.3c-3.9,0-7.9,0-11.8,0c-0.1-7.8-0.4-15.6-0.2-23.4c0.1-7.2,7.3-6.5,12-10.7
		C170.6,117.4,170.6,128.3,170.6,139.3z"/>
	<path d="M196.2,433.9c3.7-2.9,9.1,0.6,12.6-3.3c4,7.7,2.2,14.9-3.1,20.9c-5.1,5.7-11.7,6-18.3,2.4c-3.2-1.8-5.4,0.2-8.1,1.7
		c0-6.9,0-13.4,0-19.9c2.8,0.2,1.9,2.5,2.4,3.9c1.6,4.5,3.5,8.7,7.7,11.4c4,2.6,8.2,2.9,11.5-0.9c3.1-3.6,3.2-7.7-0.2-11.4
		C199.1,437.2,197.6,435.6,196.2,433.9z"/>
	<path d="M38.1,437.5c3.4,0,6.8,0.1,10.1,0.1c0.1,0.9,0.2,1.8,0.4,2.6c0.6,3.9-1.8,9,3.6,10.9c5.7,2,12.3-0.9,15.8-6.1
		c0.7-1.1,1.3-2.3,2-3.6c3.9,9.4,1.4,13.5-8,13.6c-9.6,0-19.1,0-29.2-0.4C41,450.6,36.5,443.2,38.1,437.5z"/>
	<path d="M391.1,437.6c-1.2-9.3-0.8-18.6-0.1-27.9c3.3,0,6.5,0,9.8,0c0.7,9.2,0.9,18.5,0,27.7C397.6,437.5,394.4,437.5,391.1,437.6z
		"/>
	<path d="M127.5,413.3c3-10.3,10.6-16.7,20.4-17.2c9.3-0.4,17.6,5.1,21.5,14.4c-2.8,2.5-6.2,1.2-9.3,1.6c-0.7-1.9-1.3-3.8-2-5.6
		c-1.7-4.1-4.5-7.2-9.3-7.1c-4.9,0.1-8,2.7-9,7.8c-0.4,2.1-1.2,4.2-1.9,6.3C134.4,413.5,131,413.4,127.5,413.3z"/>
	<path d="M345.1,436.2c-3.6,0.1-7.3,0.3-10.9,0.4c-2.3-8.8-2.3-17.5,1.9-25.8c3.2,0,6.4,0,9.7,0
		C344.3,419.3,344.8,427.7,345.1,436.2z"/>
	<path d="M235.4,413.5c5.4-14.9,17.1-20.3,31.6-15.1c2.9,1,6.8,4.1,9.7-3.4c0,8.3,0,14.3,0,20.8c-2.4-1.6-2.4-4.3-3.5-6.2
		c-3.2-5.8-7.2-10.4-14.4-10.2c-7.5,0.1-10.1,5.6-12,11.6c-0.3,0.8-0.6,1.7-1,2.5C242.3,413.5,238.8,413.5,235.4,413.5z"/>
	<path d="M391.1,437.6c3.2-0.1,6.4-0.1,9.7-0.2c0.3,1.5,0.8,3,0.9,4.6c0.3,5,2,8.8,7.5,9.6c6,0.9,9-3,11.3-7.6
		c1.1-2.3,0.2-5.5,3.1-7.1c1.3,5.8-0.7,12.3-5.7,16c-5.9,4.3-12.6,4.6-19.1,1.2C392.1,450.7,390.6,444.5,391.1,437.6z"/>
	<path d="M160.1,412.2c3.1-0.4,6.5,0.9,9.3-1.6c4.4,8.8,4.9,17.8,1.5,27.1c-3.5-0.1-7-0.1-10.4-0.2C162,429,160.3,420.6,160.1,412.2
		z"/>
	<path d="M378.5,438.1c-3.4-0.2-6.8-0.3-10.3-0.5c0-8.5,0.8-17-0.7-25.4c3.3-0.1,6.6,0,9.5-1.9C381.4,419.3,381.6,428.6,378.5,438.1
		z"/>
	<path d="M301,409.5c-3.2,0.1-6.3,0.2-9.5,0.2c-1.6-4,0.9-9.8-5-12.2c8.2,0,16.5-0.2,24.7,0c8.3,0.2,12.8,4.2,14.1,12
		c-3.4,0-6.8,0-10.2,0.1c-0.2-0.8-0.5-1.7-0.7-2.5c-1.4-5.1-5.4-7-10-6.6c-5.6,0.4-1.8,5.2-3,7.8C301.1,408.6,301.1,409.1,301,409.5
		z"/>
	<path d="M306.7,432.3c3.7,0,7.6,1.5,10.8-1.5c5.7,7.3,8,16.7,14.9,23.5c-13.1,1.9-13.2,1.9-18.9-9.1
		C311.3,440.9,308.9,436.6,306.7,432.3z"/>
	<path d="M377,410.3c-2.9,1.9-6.2,1.9-9.5,1.9c-1-2.6-1.9-5.4-3.1-7.9c-1.7-3.4-4.7-5.4-8.6-4.9c-3.6,0.5-6.5,2.2-7.8,6
		c-0.6,1.8-1.5,3.6-2.3,5.4c-3.2,0-6.4,0-9.7,0c2.8-8.8,9.2-13.4,17.9-14.5c8.5-1.1,15.5,2.1,20.2,9.6
		C375.1,407.4,376.1,408.8,377,410.3z"/>
	<path d="M450.1,408.2c-3.3,0-6.6,0.1-9.9,0.1c-1.2-3.7,1.3-9.2-5.2-10.8c7.4,0,14.8-0.3,22.2,0.1c8.1,0.4,11.9,4.4,14,13.4
		c-3.7,0-7.5-0.1-11.2-0.1c-0.2-5-1.3-10.1-7.3-10C448,400.9,451.6,405.9,450.1,408.2z"/>
	<path d="M117.8,408.2c-3.4,0-6.8-0.1-10.3-0.1c-0.4-0.7-1-1.4-1.3-2.2c-1.9-4.7-5.9-6.3-10.1-5.4c-4.3,0.9-1.4,5.2-2.3,7.8
		c-0.1,0.4-0.2,0.8-0.3,1.3c-3.3,0-6.6,0-9.9,0c-1-4.2,1.7-9.9-5-12c8.8,0,17.7-0.4,26.4,0.1C111.4,398,116.1,401.6,117.8,408.2z"/>
	<path d="M48.2,409.5c-3.4,0-6.7,0.1-10.1,0.1c-0.8-8.9-0.8-8.9-6.1-12.1c11.8,0,22.5,0,33.3,0c2.4,0,3.8,0.6,3.8,3.3
		c-0.1,3.9,0,7.8-0.6,11.9c-1.9-3.5-2.6-7.4-6-9.9c-3.5-2.5-7.7-3-11.5-2.3C45.9,401.5,50,406.7,48.2,409.5z"/>
	<path d="M291.5,437.4c3.2,0,6.4,0.1,9.5,0.1c0.1,2.4,0.3,4.9,0.3,7.3c-0.1,4.2,0.1,8.2,5.5,9.6c-6.9,0-13.8,0-21.5,0
		C293.7,450.7,289.7,443.2,291.5,437.4z"/>
	<path d="M83.5,437.5c3.3,0,6.7,0,10-0.1c0.1,2.7,0.3,5.3,0.3,8c0,3.7,0.1,7.3,5,8.6c-7.1,1.4-13.9,1-22.9,0.7
		C86.7,450.9,82,443.2,83.5,437.5z"/>
	<path d="M440.1,437.5c3.3,0,6.7,0,10,0c0.1,2.2,0.2,4.5,0.2,6.7c0.1,4.2-0.7,8.8,5.1,10.4c-6.8,0-13.5,0-21.8,0
		C443,450.6,438.5,443.2,440.1,437.5z"/>
	<path d="M102.2,437.6c3.8,0,7.6-0.1,11.5-0.1c4,5.2,5.8,11.9,11,16.5c-11.8,2.4-13.4,1.7-18.5-8.1
		C104.7,443.2,103.5,440.4,102.2,437.6z"/>
	<path d="M127.5,413.3c3.5,0.1,6.9,0.1,10.4,0.2c-0.3,6.3-0.6,12.5-0.8,18.8c-3.7,0.1-7.5,0.2-11.2,0.2
		C124.3,426,124.9,419.6,127.5,413.3z"/>
	<path d="M235.4,413.5c3.5,0,6.9,0,10.4,0c-1,6.3-1.2,12.6-1.1,18.9c-3.7,0.1-7.5,0.1-11.2,0.2C231.9,426,232.6,419.6,235.4,413.5z"
		/>
	<path d="M371.8,140.7c-3.8,0-7.6,0-11.3-0.1c0-6,0-12,0-18C372.1,126,373.1,127.6,371.8,140.7z"/>
	<path d="M186.2,406.9c-1.9,0-3.9,0-5.8-0.1c3.6-10.4,9.9-13.1,19.1-8.3c2.6,1.4,5.2,2.4,7.9-2c0,6.7,0,11.9,0,17
		c-2.2-3.6-3.3-7.6-6.3-10.6c-2.7-2.6-5.5-4.3-9.5-3.4C187.7,400.6,186.6,403.5,186.2,406.9z"/>
	<path d="M400.8,409.7c-3.3,0-6.5,0-9.8,0c-1.8-3.9,1.8-10.1-5-12.1c6.6,0,13.2,0,22.2,0C399.9,399.9,402.4,405.7,400.8,409.7z"/>
	<path d="M144.9,134c-3.8,0-7.5,0.1-11.3,0.1c-2.7-9.4,5.8-9.6,11.3-13.8C144.9,125.4,144.9,129.7,144.9,134z"/>
	<path d="M277,435c-3.6,0-7.2,0-10.8,0c-1.2-1.9-3.1-2.7-5-3.9c6.8,0,13.5,0,22.2,0C280,432.5,278,433.1,277,435z"/>
	<path d="M416.6,397.5c4.9,0,8.9,0,12.9,0C423.6,402.6,423.6,402.6,416.6,397.5z"/>
	<path d="M423.1,419.1c2.4,4.2,1.4,8.6,0.6,13C421.3,428,422.4,423.5,423.1,419.1z"/>
	<path d="M420.5,442.7c1.2-9.2,4.1-31.8,0.2-42.3l5.3-1c0,0,2.3,46-3.8,48.2c-3.4,1.2-3.7,0.5-3.3-0.3
		C419.7,445.9,420.3,444.4,420.5,442.7z"/>
</g>
</svg>
