<?xml version="1.0" encoding="utf-8"?>
<!-- Generator: Adobe Illustrator 24.3.0, SVG Export Plug-In . SVG Version: 6.00 Build 0)  -->
<svg version="1.1" id="Layer_1" xmlns="http://www.w3.org/2000/svg" xmlns:xlink="http://www.w3.org/1999/xlink" x="0px" y="0px"
	 viewBox="0 0 937.6 919.9" style="enable-background:new 0 0 937.6 919.9;" xml:space="preserve">
<style type="text/css">
	.st0{fill:#1877F1;}
</style>
<path class="st0" d="M934.3,460.2c0,62.8-12.3,123.8-36.6,181.2c-23.4,55.4-57,105.2-99.8,148c-42.8,42.8-92.5,76.3-148,99.8
	c-34.7,14.7-70.6,25-107.5,30.8v-1c0-102.8,0.1-205.6-0.3-308.4c-0.1-11.1,3.2-13.7,13.8-13.4c26.9,0.7,53.9-0.6,80.8,0.6
	c12.7,0.6,16.3-4,17.8-15.5c4.7-35.7,10-71.4,16.1-106.9c1.8-10.4,0.1-13.2-10.6-13c-33.7,0.6-67.3-0.3-101,0.5
	c-12.5,0.3-17.8-2.1-17-16.1c1.3-23,0.3-46.2,0.4-69.2c0.1-49.9,25.5-75.6,75.4-76.1c16.8-0.2,33.7-0.3,50.5,0.1
	c7.5,0.2,10-2.1,9.9-9.8c-0.3-32.7-0.3-65.4,0-98.1c0-6.7-2.3-9.3-8.9-10.1c-39.1-4.7-78.2-9.2-117.7-6.5
	c-85.2,5.9-143.9,61.5-153.9,146c-5,42.2-1.6,84.5-2.2,126.8c-0.1,9.9-2.5,13.2-12.7,13c-31.3-0.7-62.5,0.2-93.8-0.5
	c-10.3-0.2-12.9,3-12.8,13c0.6,36.5,0.6,73.1,0,109.6c-0.2,10.5,3.6,12.7,13.2,12.6c30.8-0.5,61.6,0.2,92.3-0.4
	c10.5-0.2,13.8,2.3,13.8,13.4c-0.5,102.8-0.3,205.6-0.3,308.4v1c-36.9-5.9-72.9-16.1-107.5-30.8c-55.4-23.4-105.2-57-148-99.8
	c-42.8-42.7-76.3-92.5-99.8-148C15.6,584,3.3,523,3.3,460.2c0-62.8,12.3-123.8,36.6-181.2c23.4-55.4,57-105.2,99.8-148
	c42.8-42.8,92.5-76.3,148-99.8C345,6.9,405.9-5.4,468.8-5.4S592.6,6.9,650,31.2c55.4,23.4,105.2,57,148,99.8
	c42.7,42.7,76.3,92.5,99.8,148C922,336.3,934.3,397.3,934.3,460.2z"/>
</svg>
