<?xml version="1.0" encoding="utf-8"?>
<!-- Generator: Adobe Illustrator 24.3.0, SVG Export Plug-In . SVG Version: 6.00 Build 0)  -->
<svg version="1.1" id="Layer_1" xmlns="http://www.w3.org/2000/svg" xmlns:xlink="http://www.w3.org/1999/xlink" x="0px" y="0px"
	 viewBox="0 0 500 500" style="enable-background:new 0 0 500 500;" xml:space="preserve">
<g>
	<path d="M267,195.7c7.7,7.5,14.7,14,21.4,20.8c6.6,6.8,13,13.8,19.7,20.5c2.1-1.5,1.4-2.9,1.4-3.9c0.1-9.3,0.2-18.7,0-28
		c-0.1-3,0.4-4.3,3.9-4.2c11,0.2,11,0,11,11.2c0,18.2,0,36.5,0,54.7c0,1.4,0,2.8,0,5.7c-14.4-14.1-28-27.2-42.4-41.3
		c0,8.2,0,15.4,0,22.6c0,11.9,0,11.8-12.1,11.3c-2.3-0.1-3-0.8-2.9-3.1C267,240.5,267,218.8,267,195.7z"/>
	<path d="M67.1,202.8c-3.1,5.4-5.5,9.5-7.8,13.7c-1.2,2.4-2.5,1.2-3.8,0.4c-4.8-2.9-10-3.2-15.3-2.1C29.6,217,24.4,227,27.5,238.7
		c2.5,9.6,12.7,14.9,22.5,11.8c2.2-0.7,2.9-1.8,2.8-4.1c-0.2-4.8,0-9.6-0.1-14.4c-0.1-2.1,0.6-2.6,2.7-2.7
		c12.3-0.6,12.3-0.7,12.3,11.6c0,3.8-0.3,7.6,0.1,11.4c0.4,4-1.3,6.3-4.4,8.2c-10.8,6.7-22,8.1-33.7,2.5c-11.6-5.6-17.3-15.5-18-28
		c-1.4-25.6,21-41.9,45.7-33.5C60.2,202.4,62.8,203.8,67.1,202.8z"/>
	<path d="M424.8,264.9c-0.8,0.2-0.9,0.3-1.1,0.3c-5.1-0.1-11,1.4-15-0.7c-3.9-2-5-8.2-7.3-12.5c-3.8-7.2-7.5-14.5-11.3-21.8
		c-1.7,0.7-1.9,2.3-2.4,3.4c-4.4,9.5-8.8,19-13,28.6c-1,2.3-2.2,3.3-4.9,3.2c-4.1-0.2-8.2-0.1-13-0.1c10.7-23.5,21.2-46.7,32-70.5
		C400.9,218.5,412.7,241.5,424.8,264.9z"/>
	<path d="M263.4,265.3c-5.3,0-9.9-0.1-14.6,0.1c-2.4,0.1-2.9-1.5-3.7-3c-4.9-9.4-9.8-18.9-14.7-28.3c-0.7-1.3-1.4-2.5-2.5-4.5
		c-3.1,6.6-5.8,12.6-8.6,18.6c-2.3,4.9-4.6,9.8-6.7,14.7c-0.8,1.9-1.9,2.6-4,2.5c-4.2-0.1-8.5,0-13.6,0c10.6-23.4,21.1-46.4,32-70.4
		C239.6,218.8,251.4,241.8,263.4,265.3z"/>
	<path d="M78.3,233.3c0-9.5,0.1-18.9-0.1-28.4c0-2.7,0.5-3.8,3.5-3.7c7.7,0.2,15.5,0.2,23.2,0c2.4,0,3.4,0.6,3.2,3.1
		c-0.3,3.8,1.1,8.5-0.7,11c-1.8,2.5-6.8,0.8-10.4,0.7c-3.2-0.1-3.9,1.1-3.8,4c0.1,2.6,0.1,4.2,3.6,4.2c9.6-0.1,9.2,0.1,9.7,9.7
		c0.2,4.8-1.5,5.4-5.6,5.3c-7.9-0.3-7.8-0.1-7.7,7.9c0,2.4,0.7,3.4,3.2,3.3c3.3-0.2,6.7,0.1,10.1-0.1c2.5-0.1,3.8,0.4,3.6,3.3
		c-0.3,3.8,1.3,8.7-0.6,11c-2,2.5-7.1,0.7-10.8,0.8c-5.5,0.1-11.1-0.1-16.6,0.1c-3,0.1-4-0.6-3.9-3.8
		C78.4,252.2,78.3,242.7,78.3,233.3z"/>
	<path d="M122.2,233.3c0-9.5,0.1-18.9,0-28.4c0-2.7,0.4-3.9,3.5-3.8c7.6,0.2,15.2,0.2,22.7,0c2.5,0,3.5,0.5,3.6,3.3
		c0.1,11.4,0.3,11.6-11.4,11.5c-3.5,0-3.6,1.5-3.6,4.1c0,2.7,0.1,4.2,3.6,4.1c9.7-0.1,9.5,0.1,9.8,9.6c0.1,4.1-0.8,5.5-5.2,5.4
		c-8.8-0.4-8.7-0.1-8.2,8.5c0.1,2.2,0.9,2.7,2.9,2.6c3.6-0.1,7.3,0.1,10.9-0.1c2.2-0.1,3,0.6,3.1,2.9c0.5,12.2,0.6,12.2-11.5,12.2
		c-5.7,0-11.4-0.1-17.1,0.1c-2.6,0.1-3.2-0.8-3.1-3.3C122.3,252.6,122.2,242.9,122.2,233.3z"/>
	<path d="M191.7,241c0,7.1-0.1,14.3,0,21.4c0,2.3-0.6,3.1-2.9,3c-3.8-0.2-8.6,1.2-11-0.7c-2.5-2-0.8-7.1-0.8-10.8
		c-0.1-11.1-0.2-22.2,0-33.3c0.1-3.8-1.2-4.9-4.7-4.4c-0.6,0.1-1.2,0-1.7,0c-3.3-0.2-8.6,1.4-9.5-0.7c-1.6-3.7-0.6-8.5-0.7-12.9
		c0-1.8,1.4-1.6,2.5-1.6c14.2,0,28.3,0,42.5-0.1c2.2,0,2.5,1,2.6,2.9c0.6,12.2,0.6,12.5-11.6,12.1c-4.2-0.1-5,1.3-4.9,5.1
		C191.9,227.8,191.6,234.4,191.7,241C191.7,241,191.7,241,191.7,241z"/>
	<path d="M354.2,232.9c0,8.5-0.1,16.9,0,25.4c0.2,12.7-6.8,20.5-17.2,26.2c-1.5,0.8-2.4,0.5-3-1c-0.4-0.8-0.8-1.5-1.2-2.3
		c-1.4-2.7-4-5.4-4-8.1c-0.1-2.8,4.3-3.1,6.3-5.1c2.8-2.8,4.4-5.9,4.4-10c-0.1-17.6,0.1-35.3-0.2-52.9c0-3.4,1-4,4.1-4
		c10.9,0.1,10.9,0,10.9,10.9C354.2,218.9,354.2,225.9,354.2,232.9z"/>
	<path d="M444.5,225.9c0,7,0.1,14-0.1,21c-0.1,2.7,0.5,3.9,3.6,3.7c4.5-0.3,9,0,13.6-0.2c2.6-0.1,3.5,0.6,3.6,3.4
		c0.3,11.6,0.4,11.6-11.3,11.6c-7.1,0-14.3,0-21.4,0.1c-2.2,0-3-0.5-3-2.9c0.1-19.5,0.1-39.1,0-58.6c0-2.4,0.9-2.8,3-2.9
		c12.1-0.5,12.1-0.5,12.1,11.3C444.5,216.9,444.5,221.4,444.5,225.9z"/>
	<path d="M470.6,233.3c0-9.5,0.1-19-0.1-28.5c0-2.7,0.4-3.8,3.5-3.8c11.5,0,11.5-0.1,11.5,11.5c0,16.3-0.1,32.7,0.1,49
		c0,2.8-0.6,3.9-3.6,3.7c-3.6-0.3-8.3,1.1-10.6-0.7c-2.5-1.9-0.7-6.8-0.8-10.4C470.5,247.4,470.6,240.4,470.6,233.3z"/>
	<path d="M174.5,273.1c2.8-0.9,3.9,0.2,4.9,2.2c4.2,9.4,1.3,20.6-7.3,27.5c-7.9,6.3-19.6,6.4-27.6,0.1c-8.6-6.7-11.7-18-7.5-27.4
		c0.3-0.7,0.6-1.3,1-1.9c0.8-1.1,2.1-1.3,3.1-0.8c1.5,0.8,0.1,1.7-0.2,2.5c-4.5,10.8-1.4,21.1,8,26.4c7.1,4,16.1,2.9,22.3-2.7
		c6.2-5.6,8.3-14.3,5.1-21.9C175.9,275.8,175.2,274.6,174.5,273.1z"/>
	<path d="M226.1,298.5c0-6.8,0-13.3,0-19.8c0-1.2,0-2.3,0-3.5c0-1.1-0.3-2.5,1.5-2.5c1.7,0,1.7,1.2,1.7,2.4c0,4.4,0,8.7,0,13.1
		c0,6.3,0,12.7,0,20.2c-10.9-12.2-20.9-23.5-31.1-35c2.5-1.4,3.9-0.6,5.4,1.1c5.7,6.4,11.4,12.8,17.1,19.2
		C222.3,295.3,223.4,297.2,226.1,298.5z"/>
	<path d="M44.1,295.4c-0.3,4.5-2.4,7.9-6.6,10c-5.2,2.6-10.5,2.2-15.6-0.1c-0.9-0.4-2.5-0.7-1.5-2.4c0.7-1.3,1.6-1.4,2.9-0.8
		c3.7,1.7,7.5,2.2,11.4,0.8c6.5-2.4,8.1-9.2,2.8-13.7c-2.7-2.4-5.9-4.3-8.8-6.5c-2.6-2-4.6-4.5-5.1-7.9c-0.2-0.9-0.3-1.8,0.9-2
		c0.9-0.2,2-0.1,2.2,0.9c1.4,6.2,7.2,8.1,11.4,11.5C41.3,287.8,44,290.7,44.1,295.4z"/>
	<path d="M108.2,289.5c0-4.7,0-9.3,0-14c0-1.3-0.2-2.8,1.8-2.7c2.1,0.1,1.6,1.7,1.7,2.9c0,8,0.1,16-0.1,24.1
		c-0.1,2.7,0.6,3.6,3.4,3.5c3.6-0.2,7.3-0.1,10.9-0.1c1.1,0,2.4-0.3,2.5,1.5c0.1,2-1.1,2-2.6,2c-5,0-9.9-0.1-14.9,0
		c-2.4,0.1-2.9-1-2.9-3.1C108.2,298.8,108.2,294.1,108.2,289.5C108.2,289.5,108.2,289.5,108.2,289.5z"/>
	<path d="M71.8,273.8c-0.3,0.8-0.6,1.4-0.8,2.1c-3.8,9.1-7.7,18.1-11.6,27.2c-0.4,0.9-0.8,1.9-1.3,2.7c-0.6,0.9-1.6,0.7-2.4,0.5
		c-1.3-0.4-0.6-1.4-0.3-2.1c4.1-9.9,8.3-19.8,12.4-29.7c0.6-1.5,1.6-1.9,3.1-1.7C71.6,272.8,72,273.1,71.8,273.8z"/>
	<path d="M92.5,305.2c0.1,0.7-0.1,1.1-0.8,1.2c-1,0.1-2.1,0.2-2.7-0.9c-0.6-1.3-1.2-2.6-1.8-4c-3.6-8.6-7.3-17.1-10.9-25.7
		c-0.4-0.9-1.6-2.3,0-3c1.2-0.5,2.4-0.1,3.1,1.5c4.2,10,8.6,20,12.9,30C92.4,304.6,92.4,304.9,92.5,305.2z"/>
	<path d="M193.9,289.4c0,4.8,0,9.6,0,14.4c0,1,0.6,2.5-1.3,2.7c-1.9,0.2-2.1-1.1-2.1-2.5c0-9.6,0-19.2,0-28.7c0-1.2,0-2.4,1.7-2.5
		c2.1-0.1,1.7,1.5,1.7,2.7C194,280.1,194,284.7,193.9,289.4z"/>
</g>
</svg>
