<?xml version="1.0" encoding="utf-8"?>
<!-- Generator: Adobe Illustrator 24.3.0, SVG Export Plug-In . SVG Version: 6.00 Build 0)  -->
<svg version="1.1" id="Layer_1" xmlns="http://www.w3.org/2000/svg" xmlns:xlink="http://www.w3.org/1999/xlink" x="0px" y="0px"
	 viewBox="0 0 937.6 919.9" style="enable-background:new 0 0 937.6 919.9;" xml:space="preserve">
<style type="text/css">
	.st0{fill:#34A753;}
	.st1{fill:#E94335;}
	.st2{fill:#4285F3;}
	.st3{fill:#FABB05;}
</style>
<g>
	<path class="st0" d="M448.9,914.3c-7.5-2.9-15.4-2.2-23.2-3.1c-73.2-8.7-140.2-33.8-201.1-75.3C161,792.5,111.5,736.3,76,667.9
		c-0.7-1.3-1.3-2.7-1.9-4.1c26.4-20.5,52.8-41,79.3-61.5c23.6-18.3,47.2-36.5,70.9-54.7c5.8,14.3,11.2,28.8,18.7,42.4
		c40.3,72.6,99.8,121.1,181.4,138.5c72.1,15.3,140.8,3.9,204.2-34.9c1.6-1,3.3-1.8,4.9-2.7c0.8,0.8,1.5,1.7,2.4,2.4
		c31.3,24.3,62.7,48.6,94,73c16.2,12.6,32.4,25.4,48.5,38.1c-26.6,25.3-56.7,45.7-89.3,62.3c-48,24.4-98.9,38.7-152.3,44.4
		c-7.9,0.8-15.8,1.4-23.7,2.2c-1.1,0.1-2.3-0.3-2.9,1.1C489.8,914.3,469.4,914.3,448.9,914.3z"/>
	<path class="st1" d="M74.2,257.2c14.2-29.4,32-56.5,52.5-81.8c51.9-63.9,116.2-110.6,193.2-139.9c38-14.4,77.2-23.3,117.7-26.9
		c70-6.2,137.9,2.2,203.6,27.3c51.1,19.5,96.4,48.3,136.8,85c3.4,3.1,3.8,4.7,0.3,8.2c-40.6,40.4-81.1,80.9-121.5,121.5
		c-3.1,3.1-4.7,3.1-8,0.2c-39.8-36.3-86.5-57.4-140.1-62.7c-87.4-8.7-161.3,19.7-222.2,82.4c-27.9,28.7-47.8,62.6-61.1,100.3
		c-0.3,0.9-0.8,1.7-1.2,2.5c-1.4-0.9-2.9-1.8-4.2-2.8C171.5,332.8,122.8,295,74.2,257.2z"/>
	<path class="st2" d="M778.4,804.3c-16.2-12.7-32.3-25.5-48.5-38.1c-31.3-24.4-62.7-48.6-94-73c-0.9-0.7-1.6-1.6-2.4-2.4
		c12.9-9.9,25.8-19.8,36.9-31.7c26.1-28,43.5-60.5,52.1-97.8c1.1-5,0-5.8-4.8-5.8c-77.1,0.2-154.2,0.1-231.4,0.1
		c-7.4,0-7.4,0-7.4-7.2c0-52.4,0.1-104.7-0.1-157.1c0-5.1,1.3-6.7,6.6-6.6c138.4,0.2,276.7,0.1,415.1,0c4.9,0,6.3,1.5,7,6.2
		c3.9,25.8,6.2,51.8,6.1,77.9c-0.4,109.7-28.1,210.6-98.4,297.1C803.9,779.6,792,792.8,778.4,804.3z"/>
	<path class="st3" d="M74.2,257.2c48.6,37.8,97.3,75.6,145.9,113.3c1.3,1,2.8,1.9,4.2,2.8c-4.8,16.8-9.4,33.7-11.7,51.1
		c-5.2,39.6-2.2,78.5,9.8,116.7c0.7,2.1,1.2,4.3,1.7,6.5c-23.6,18.2-47.3,36.4-70.9,54.7c-26.4,20.5-52.8,41-79.3,61.5
		C55,627.1,42,588.2,33.7,547.7c-7.5-36.9-9.9-74.1-7.9-111.6C29.4,373.2,45.2,313.4,74.2,257.2z"/>
</g>
</svg>
