<?xml version="1.0" encoding="utf-8"?>
<!-- Generator: Adobe Illustrator 24.3.0, SVG Export Plug-In . SVG Version: 6.00 Build 0)  -->
<svg version="1.1" id="Layer_1" xmlns="http://www.w3.org/2000/svg" xmlns:xlink="http://www.w3.org/1999/xlink" x="0px" y="0px"
	 viewBox="0 0 500 500" style="enable-background:new 0 0 500 500;" xml:space="preserve">
<g>
	<path d="M85.6,245.3c0,13.2,0,26.4,0,39.7c0,1.1-0.3,1.4-1.4,1.3c-2.7-0.1-5.4-0.1-8.1,0c-1,0-1.2-0.3-1.2-1.3
		c0-12.9,0-25.7,0.1-38.6c0-1.2-0.3-1.5-1.5-1.5c-14.8,0-29.5,0-44.3,0c-1.1,0-1.3,0.4-1.3,1.4c0,12.9,0,25.8,0,38.7
		c0,1-0.2,1.3-1.2,1.3c-2.8-0.1-5.5-0.1-8.3,0c-0.9,0-1.2-0.2-1.2-1.2c0-8.3,0-16.6,0-24.9c0-18.2,0-36.4,0-54.6
		c0-1.1,0.3-1.3,1.3-1.3c2.8,0.1,5.5,0.1,8.3,0c0.9,0,1.1,0.2,1.1,1.1c0,10.9,0,21.8,0,32.7c0,1.2,0.3,1.5,1.5,1.5
		c14.8,0,29.5,0,44.3,0c1,0,1.3-0.3,1.3-1.3c0-10.9,0-21.8-0.1-32.7c0-1.1,0.3-1.4,1.4-1.3c2.7,0.1,5.4,0.1,8.1,0
		c1,0,1.3,0.2,1.3,1.2C85.5,218.7,85.6,232,85.6,245.3z"/>
	<path d="M257.1,215.9c-2.1,5.3-4,10.4-6,15.4c-7.4,18.9-14.8,37.8-22.2,56.8c-2.9,7.5-5.9,15-8.7,22.6c-0.4,0.9-0.8,1.2-1.8,1.2
		c-2-0.1-4-0.1-5.9,0c-0.9,0-1-0.1-0.7-1c1.9-4.2,3.7-8.5,5.5-12.7c6.2-14.5,12.5-29,18.7-43.6c7.4-17.1,14.7-34.3,22.1-51.4
		c0.4-0.9,0.8-1.3,1.8-1.2c1,0.1,1.9-0.2,2.5,1.1c6.7,15.2,13.6,30.5,20.4,45.7c6.7,15.1,13.5,30.2,20.2,45.2
		c2.5,5.5,4.9,11,7.4,16.5c0.5,1,0.3,1.2-0.8,1.2c-3.6-0.1-7.1,0-10.7,0c-0.7,0-1.1-0.2-1.4-0.9c-6.3-14.9-12.7-29.8-19-44.7
		c-4.8-11.3-9.6-22.5-14.4-33.8c-2.1-4.9-4.2-9.8-6.3-14.7C257.6,217.1,257.4,216.7,257.1,215.9z"/>
	<path d="M349.8,248c0-12.3,0-24.6,0-36.9c0-1.1-0.3-1.4-1.4-1.4c-8.3,0.1-16.6,0-24.9,0c-0.9,0-1.2-0.2-1.1-1.1
		c0.1-1.1,0.1-2.2,0-3.3c-0.1-0.9,0.3-1.1,1.1-1c2,0.1,4,0,5.9,0c19,0,38,0,57,0c1.1,0,1.5,0.2,1.4,1.3c-0.1,1-0.1,2.1,0,3.1
		c0.1,0.8-0.2,1-1.1,1c-8.2,0-16.3,0-24.5,0c-2,0-1.7-0.2-1.7,1.7c0,24.5,0,48.9,0,73.4c0,1.2-0.3,1.5-1.5,1.5
		c-2.7-0.1-5.4-0.1-8.1,0c-1,0-1.3-0.3-1.2-1.3C349.9,272.7,349.8,260.3,349.8,248C349.8,248,349.8,248,349.8,248z"/>
	<path d="M131.2,204.2c3.7,0,7.3,0,10.9,0c0.7,0,0.9,0.4,1.1,0.9c3.8,6.5,7.7,13.1,11.5,19.6c4.2,7.2,8.5,14.4,12.7,21.6
		c0.6,1,0.8,0.6,1.2-0.1c8.3-13.7,16.6-27.4,24.9-41c0.4-0.7,0.9-1,1.7-1c1.9,0.1,3.7,0,5.6,0c0.4,0,0.9-0.2,1.1,0.2
		c0.2,0.3-0.3,0.6-0.5,0.9c-3.4,5.1-6.8,10.2-10.1,15.3c-6.2,9.4-12.4,18.8-18.7,28.2c-0.4,0.6-0.6,1.2-0.6,2c0,11.4,0,22.8,0,34.2
		c0,1-0.3,1.3-1.2,1.2c-2.7-0.1-5.5-0.1-8.2,0c-1.1,0-1.5-0.2-1.5-1.4c0-10.7,0-21.5,0-32.2c0-1-0.3-1.8-0.8-2.6
		c-9.7-15-19.3-30-29-44.9C131.3,204.9,131.1,204.7,131.2,204.2z"/>
	<path d="M447.4,247.9c0-12.2,0-24.5,0-36.7c0-1.1-0.1-1.5-1.4-1.5c-7.4,0.1-14.8,0-22.2,0.1c-0.9,0-1.2-0.2-1.1-1.1
		c0.1-1.1,0.1-2.2,0-3.3c0-0.8,0.2-1.1,1-1c1.4,0.1,2.9,0,4.3,0c17.8,0,35.6,0,53.5,0c1.2,0,1.5,0.3,1.4,1.5c-0.1,1-0.1,2,0,3
		c0.1,0.8-0.2,1.1-1,1.1c-3.3-0.1-6.7,0-10,0c-4.1,0-8.2,0-12.2,0c-1.1,0-1.4,0.3-1.4,1.4c0,22.6,0,45.3,0,67.9c0,2.1,0,4.3,0,6.4
		c0,0.8-0.3,0.9-1,0.9c-2.9,0-5.7-0.1-8.6,0c-1,0-1.3-0.3-1.2-1.2C447.4,272.6,447.4,260.3,447.4,247.9z"/>
	<path d="M174.9,271.2c0-1.5,0-3.1,0-4.6c0-0.7,0.2-0.9,0.9-1.1c8.4-1.8,16.9-3.4,25.4-4.6c5.7-0.8,11.4-1.5,17.1-2.1
		c4-0.4,8-0.7,12-1c1.4-0.1,1.4-0.1,0.9,1.2c-1.5,3.4-2.9,6.8-4.4,10.2c-0.3,0.7-0.7,1-1.4,1c-8,0.5-16,1.4-24,2.4
		c-8.1,1-16.3,2.3-24.3,3.8c-2,0.4-2,0.4-2-1.6c0-0.6,0-1.3,0-1.9C174.9,272.3,174.9,271.8,174.9,271.2
		C174.9,271.2,174.9,271.2,174.9,271.2z"/>
	<path d="M158.5,275.1c0,1.4,0,2.9,0,4.3c0,0.7-0.2,0.9-0.9,1.1c-7.4,1.6-14.8,3.5-22.2,5.6c-8.8,2.4-17.5,5.2-26.1,8.2
		c-9.3,3.3-18.5,6.8-27.5,10.8c-4.7,2.1-9.4,4.3-14.1,6.6c-0.3,0.1-0.6,0.3-0.9,0.4c-0.5,0.2-1.1,0.7-1.4,0
		c-0.4-0.7,0.3-0.9,0.8-1.2c13.5-8.4,27.4-16,41.8-22.6c10.6-4.9,21.5-9.2,32.6-13c5.5-1.9,11.1-3.6,16.8-5.2
		c0.8-0.2,1.1-0.2,1.1,0.8C158.4,272.3,158.5,273.7,158.5,275.1z"/>
	<path d="M289.9,258.1c2.8,0.3,5.5,0.5,8.2,0.8c6.7,0.8,13.3,1.6,20,2.8c9.4,1.6,18.8,3.7,28,6.1c0.8,0.2,1.2,0.5,1.1,1.4
		c-0.1,2.8-0.1,5.6,0,8.4c0,0.9-0.2,1.1-1.1,0.9c-14.5-3.2-29.2-5.5-44-7.2c-1.9-0.2-3.9-0.4-5.8-0.6c-0.4,0-0.8-0.1-1.1-0.6
		C293.5,266.1,291.7,262.2,289.9,258.1z"/>
	<path d="M363.4,277.7c0-1.3,0.1-2.5,0-3.8c0-0.9,0.2-1,1-0.7c5.2,1.7,10.3,3.6,15.4,5.6c11.9,4.7,23.5,10.1,34.9,16.1
		c9,4.7,17.7,9.8,26.3,15.2c0.4,0.3,1.1,0.5,0.7,1.1c-0.4,0.8-1.1,0.2-1.5,0c-15.2-7.7-30.8-14.1-46.9-19.6
		c-9.5-3.3-19-6.2-28.7-8.7c-0.9-0.2-1.2-0.6-1.1-1.5C363.5,280.1,363.4,278.9,363.4,277.7C363.4,277.7,363.4,277.7,363.4,277.7z"/>
	<path d="M276.6,269.3c-5.5-0.4-10.9-0.5-16.3-0.5c-6.6,0-13.2,0-19.8,0.4c-1,0.1-1.2-0.1-0.8-1.1c1.4-3.4,2.7-6.8,4-10.3
		c0.2-0.6,0.6-0.9,1.3-0.9c7.1-0.1,14.2-0.3,21.3-0.1c1.6,0.1,3.2,0.3,4.8,0.1c0.4,0,0.6,0.1,0.8,0.5c1.6,3.8,3.1,7.5,4.7,11.3
		C276.5,268.9,276.5,269,276.6,269.3z"/>
</g>
</svg>
