<?xml version="1.0" encoding="utf-8"?>
<!-- Generator: Adobe Illustrator 24.3.0, SVG Export Plug-In . SVG Version: 6.00 Build 0)  -->
<svg version="1.1" id="Layer_1" xmlns="http://www.w3.org/2000/svg" xmlns:xlink="http://www.w3.org/1999/xlink" x="0px" y="0px"
	 viewBox="0 0 283.3 73.1" style="enable-background:new 0 0 283.3 73.1;" xml:space="preserve">
<style type="text/css">
	.st0{fill:#DB6551;}
	.st1{enable-background:new    ;}
	.st2{fill:#232323;}
</style>
<g>
	<g>
		<g>
			<circle class="st0" cx="85.3" cy="55" r="7.6"/>
			<circle class="st0" cx="85.3" cy="54.6" r="7.6"/>
			<circle class="st0" cx="85.3" cy="54.1" r="7.6"/>
			<circle class="st0" cx="85.3" cy="53.7" r="7.6"/>
			<circle class="st0" cx="85.3" cy="53.3" r="7.6"/>
			<circle class="st0" cx="85.3" cy="52.8" r="7.6"/>
			<circle class="st0" cx="85.3" cy="52.4" r="7.6"/>
			<circle class="st0" cx="85.3" cy="51.9" r="7.6"/>
			<circle class="st0" cx="85.3" cy="51.5" r="7.6"/>
			<circle class="st0" cx="85.3" cy="51.1" r="7.6"/>
			<circle class="st0" cx="85.3" cy="50.6" r="7.6"/>
			<circle class="st0" cx="85.3" cy="50.2" r="7.6"/>
			<circle class="st0" cx="85.3" cy="49.8" r="7.6"/>
			<circle class="st0" cx="85.3" cy="49.3" r="7.6"/>
			<circle class="st0" cx="85.3" cy="48.9" r="7.6"/>
			<circle class="st0" cx="85.3" cy="48.5" r="7.6"/>
			<circle class="st0" cx="85.3" cy="48" r="7.6"/>
			<circle class="st0" cx="85.3" cy="47.6" r="7.6"/>
			<circle class="st0" cx="85.3" cy="47.2" r="7.6"/>
			<circle class="st0" cx="85.3" cy="46.7" r="7.6"/>
			<circle class="st0" cx="85.3" cy="46.3" r="7.6"/>
			<circle class="st0" cx="85.3" cy="45.8" r="7.6"/>
			<circle class="st0" cx="85.3" cy="45.4" r="7.6"/>
			<circle class="st0" cx="85.3" cy="45" r="7.6"/>
			<circle class="st0" cx="85.3" cy="44.5" r="7.6"/>
			<circle class="st0" cx="85.3" cy="44.1" r="7.6"/>
			<circle class="st0" cx="85.3" cy="43.7" r="7.6"/>
			<circle class="st0" cx="85.3" cy="43.2" r="7.6"/>
			<circle class="st0" cx="85.3" cy="42.8" r="7.6"/>
			<circle class="st0" cx="85.3" cy="42.4" r="7.6"/>
			<circle class="st0" cx="85.3" cy="41.9" r="7.6"/>
			<circle class="st0" cx="85.3" cy="41.5" r="7.6"/>
			<circle class="st0" cx="85.3" cy="41" r="7.6"/>
			<circle class="st0" cx="85.3" cy="40.6" r="7.6"/>
			<circle class="st0" cx="85.3" cy="40.2" r="7.6"/>
			<circle class="st0" cx="85.3" cy="39.7" r="7.6"/>
			<circle class="st0" cx="85.3" cy="39.3" r="7.6"/>
			<circle class="st0" cx="85.3" cy="38.9" r="7.6"/>
			<circle class="st0" cx="85.3" cy="38.4" r="7.6"/>
			<circle class="st0" cx="85.3" cy="38" r="7.6"/>
			<circle class="st0" cx="85.3" cy="37.6" r="7.6"/>
			<circle class="st0" cx="85.3" cy="37.1" r="7.6"/>
			<circle class="st0" cx="85.3" cy="36.7" r="7.6"/>
			<circle class="st0" cx="85.3" cy="36.3" r="7.6"/>
			<circle class="st0" cx="85.3" cy="35.8" r="7.6"/>
			<circle class="st0" cx="85.3" cy="35.4" r="7.6"/>
			<circle class="st0" cx="85.3" cy="34.9" r="7.6"/>
			<circle class="st0" cx="85.3" cy="34.5" r="7.6"/>
			<circle class="st0" cx="85.3" cy="34.1" r="7.6"/>
			<circle class="st0" cx="85.3" cy="33.6" r="7.6"/>
			<circle class="st0" cx="85.3" cy="33.2" r="7.6"/>
			<circle class="st0" cx="85.3" cy="32.8" r="7.6"/>
			<circle class="st0" cx="85.3" cy="32.3" r="7.6"/>
			<circle class="st0" cx="85.3" cy="31.9" r="7.6"/>
			<circle class="st0" cx="85.3" cy="31.5" r="7.6"/>
			<circle class="st0" cx="85.3" cy="31" r="7.6"/>
			<circle class="st0" cx="85.3" cy="30.6" r="7.6"/>
			<circle class="st0" cx="85.3" cy="30.1" r="7.6"/>
			<circle class="st0" cx="85.3" cy="29.7" r="7.6"/>
			<circle class="st0" cx="85.3" cy="29.3" r="7.6"/>
			<circle class="st0" cx="85.3" cy="28.8" r="7.6"/>
			<circle class="st0" cx="85.3" cy="28.4" r="7.6"/>
			<circle class="st0" cx="85.3" cy="28" r="7.6"/>
			<circle class="st0" cx="85.3" cy="27.5" r="7.6"/>
			<circle class="st0" cx="85.3" cy="27.1" r="7.6"/>
			<circle class="st0" cx="85.3" cy="26.7" r="7.6"/>
			<circle class="st0" cx="85.3" cy="26.2" r="7.6"/>
			<circle class="st0" cx="85.3" cy="25.8" r="7.6"/>
			<circle class="st0" cx="85.3" cy="25.4" r="7.6"/>
			<circle class="st0" cx="85.3" cy="24.9" r="7.6"/>
			<circle class="st0" cx="85.3" cy="24.5" r="7.6"/>
			<circle class="st0" cx="85.3" cy="24" r="7.6"/>
			<circle class="st0" cx="85.3" cy="23.6" r="7.6"/>
			<circle class="st0" cx="85.3" cy="23.2" r="7.6"/>
			<circle class="st0" cx="85.3" cy="22.7" r="7.6"/>
			<circle class="st0" cx="85.3" cy="22.3" r="7.6"/>
			<circle class="st0" cx="85.3" cy="21.9" r="7.6"/>
			<circle class="st0" cx="85.3" cy="21.4" r="7.6"/>
			<circle class="st0" cx="85.3" cy="21" r="7.6"/>
			<circle class="st0" cx="85.3" cy="20.6" r="7.6"/>
			<circle class="st0" cx="85.3" cy="20.1" r="7.6"/>
			<circle class="st0" cx="85.3" cy="19.7" r="7.6"/>
			<circle class="st0" cx="85.3" cy="19.3" r="7.6"/>
			<circle class="st0" cx="85.3" cy="18.8" r="7.6"/>
			<circle class="st0" cx="85.3" cy="18.4" r="7.6"/>
			<circle class="st0" cx="85.3" cy="17.9" r="7.6"/>
			<circle class="st0" cx="85.3" cy="17.5" r="7.6"/>
			<circle class="st0" cx="85.3" cy="17.1" r="7.6"/>
			<circle class="st0" cx="85.3" cy="16.6" r="7.6"/>
			<circle class="st0" cx="85.3" cy="16.2" r="7.6"/>
			<circle class="st0" cx="85.3" cy="15.8" r="7.6"/>
			<circle class="st0" cx="85.3" cy="15.3" r="7.6"/>
			<circle class="st0" cx="85.3" cy="14.9" r="7.6"/>
			<circle class="st0" cx="85.3" cy="14.5" r="7.6"/>
			<circle class="st0" cx="85.3" cy="14" r="7.6"/>
			<circle class="st0" cx="85.3" cy="13.6" r="7.6"/>
			<circle class="st0" cx="85.3" cy="13.1" r="7.6"/>
			<circle class="st0" cx="85.3" cy="12.7" r="7.6"/>
			<circle class="st0" cx="85.3" cy="12.3" r="7.6"/>
			<circle class="st0" cx="85.3" cy="11.8" r="7.6"/>
			<circle class="st0" cx="85.3" cy="11.4" r="7.6"/>
			<circle class="st0" cx="85.3" cy="11" r="7.6"/>
			<circle class="st0" cx="84.9" cy="11.4" r="7.6"/>
			<circle class="st0" cx="84.5" cy="11.8" r="7.6"/>
			<circle class="st0" cx="84.2" cy="12.3" r="7.6"/>
			<circle class="st0" cx="83.8" cy="12.7" r="7.6"/>
			<circle class="st0" cx="83.5" cy="13.1" r="7.6"/>
			<circle class="st0" cx="83.1" cy="13.6" r="7.6"/>
			<circle class="st0" cx="82.7" cy="14" r="7.6"/>
			<circle class="st0" cx="82.4" cy="14.5" r="7.6"/>
			<circle class="st0" cx="82" cy="14.9" r="7.6"/>
			<circle class="st0" cx="81.7" cy="15.3" r="7.6"/>
			<circle class="st0" cx="81.3" cy="15.8" r="7.6"/>
			<circle class="st0" cx="80.9" cy="16.2" r="7.6"/>
			<circle class="st0" cx="80.6" cy="16.6" r="7.6"/>
			<circle class="st0" cx="80.2" cy="17.1" r="7.6"/>
			<circle class="st0" cx="79.9" cy="17.5" r="7.6"/>
			<circle class="st0" cx="79.5" cy="17.9" r="7.6"/>
			<circle class="st0" cx="79.2" cy="18.4" r="7.6"/>
			<circle class="st0" cx="78.8" cy="18.8" r="7.6"/>
			<circle class="st0" cx="78.4" cy="19.3" r="7.6"/>
			<circle class="st0" cx="78.1" cy="19.7" r="7.6"/>
			<circle class="st0" cx="77.7" cy="20.1" r="7.6"/>
			<circle class="st0" cx="77.4" cy="20.6" r="7.6"/>
			<circle class="st0" cx="77" cy="21" r="7.6"/>
			<circle class="st0" cx="76.6" cy="21.4" r="7.6"/>
			<circle class="st0" cx="76.3" cy="21.9" r="7.6"/>
			<circle class="st0" cx="75.9" cy="22.3" r="7.6"/>
			<circle class="st0" cx="75.6" cy="22.7" r="7.6"/>
			<circle class="st0" cx="75.2" cy="23.2" r="7.6"/>
			<circle class="st0" cx="74.8" cy="23.6" r="7.6"/>
			<circle class="st0" cx="74.5" cy="24" r="7.6"/>
			<circle class="st0" cx="74.1" cy="24.5" r="7.6"/>
			<circle class="st0" cx="73.8" cy="24.9" r="7.6"/>
			<circle class="st0" cx="73.4" cy="25.4" r="7.6"/>
			<circle class="st0" cx="73" cy="25.8" r="7.6"/>
			<circle class="st0" cx="72.7" cy="26.2" r="7.6"/>
			<circle class="st0" cx="72.3" cy="26.7" r="7.6"/>
			<circle class="st0" cx="72" cy="27.1" r="7.6"/>
			<circle class="st0" cx="71.6" cy="27.5" r="7.6"/>
			<circle class="st0" cx="71.2" cy="28" r="7.6"/>
			<circle class="st0" cx="70.9" cy="28.4" r="7.6"/>
			<circle class="st0" cx="70.5" cy="28.8" r="7.6"/>
			<circle class="st0" cx="70.2" cy="29.3" r="7.6"/>
			<circle class="st0" cx="69.8" cy="29.7" r="7.6"/>
			<circle class="st0" cx="69.5" cy="30.1" r="7.6"/>
			<circle class="st0" cx="69.1" cy="30.6" r="7.6"/>
			<circle class="st0" cx="68.7" cy="31" r="7.6"/>
			<circle class="st0" cx="68.4" cy="31.5" r="7.6"/>
			<circle class="st0" cx="68" cy="31.9" r="7.6"/>
			<circle class="st0" cx="67.7" cy="32.3" r="7.6"/>
			<circle class="st0" cx="67.3" cy="32.8" r="7.6"/>
			<circle class="st0" cx="66.9" cy="33.2" r="7.6"/>
			<circle class="st0" cx="66.6" cy="33.6" r="7.6"/>
			<circle class="st0" cx="66.2" cy="34.1" r="7.6"/>
			<circle class="st0" cx="65.9" cy="34.5" r="7.6"/>
			<circle class="st0" cx="65.5" cy="34.9" r="7.6"/>
			<circle class="st0" cx="65.1" cy="35.4" r="7.6"/>
			<circle class="st0" cx="64.8" cy="35.8" r="7.6"/>
			<circle class="st0" cx="64.4" cy="36.3" r="7.6"/>
			<circle class="st0" cx="64.1" cy="36.7" r="7.6"/>
			<circle class="st0" cx="63.7" cy="37.1" r="7.6"/>
			<circle class="st0" cx="63.3" cy="37.6" r="7.6"/>
			<circle class="st0" cx="63" cy="38" r="7.6"/>
			<circle class="st0" cx="62.6" cy="38.4" r="7.6"/>
			<circle class="st0" cx="62.3" cy="38.9" r="7.6"/>
			<circle class="st0" cx="61.9" cy="39.3" r="7.6"/>
			<circle class="st0" cx="61.6" cy="39.7" r="7.6"/>
			<circle class="st0" cx="61.2" cy="40.2" r="7.6"/>
			<circle class="st0" cx="60.8" cy="40.6" r="7.6"/>
			<circle class="st0" cx="60.5" cy="41" r="7.6"/>
			<circle class="st0" cx="60.1" cy="41.5" r="7.6"/>
			<circle class="st0" cx="59.8" cy="41.9" r="7.6"/>
			<circle class="st0" cx="59.4" cy="42.4" r="7.6"/>
			<circle class="st0" cx="59" cy="42.8" r="7.6"/>
			<circle class="st0" cx="58.7" cy="43.2" r="7.6"/>
			<circle class="st0" cx="58.3" cy="43.7" r="7.6"/>
			<circle class="st0" cx="58" cy="44.1" r="7.6"/>
			<circle class="st0" cx="57.6" cy="44.5" r="7.6"/>
			<circle class="st0" cx="57.2" cy="45" r="7.6"/>
			<circle class="st0" cx="56.9" cy="45.4" r="7.6"/>
			<circle class="st0" cx="56.5" cy="45.8" r="7.6"/>
			<circle class="st0" cx="56.2" cy="46.3" r="7.6"/>
			<circle class="st0" cx="55.8" cy="46.7" r="7.6"/>
			<circle class="st0" cx="55.4" cy="47.2" r="7.6"/>
			<circle class="st0" cx="55.1" cy="47.6" r="7.6"/>
			<circle class="st0" cx="54.7" cy="48" r="7.6"/>
			<circle class="st0" cx="54.4" cy="48.5" r="7.6"/>
			<circle class="st0" cx="54" cy="48.9" r="7.6"/>
			<circle class="st0" cx="53.6" cy="49.3" r="7.6"/>
			<circle class="st0" cx="53.3" cy="49.8" r="7.6"/>
			<circle class="st0" cx="52.9" cy="50.2" r="7.6"/>
			<circle class="st0" cx="52.6" cy="50.6" r="7.6"/>
			<circle class="st0" cx="52.2" cy="51.1" r="7.6"/>
			<circle class="st0" cx="51.9" cy="51.5" r="7.6"/>
			<circle class="st0" cx="51.5" cy="51.9" r="7.6"/>
			<circle class="st0" cx="51.1" cy="52.4" r="7.6"/>
			<circle class="st0" cx="50.8" cy="52.8" r="7.6"/>
			<circle class="st0" cx="50.4" cy="53.3" r="7.6"/>
			<circle class="st0" cx="50.1" cy="53.7" r="7.6"/>
			<circle class="st0" cx="49.7" cy="54.1" r="7.6"/>
			<circle class="st0" cx="49.3" cy="54.6" r="7.6"/>
			<circle class="st0" cx="49" cy="55" r="7.6"/>
			<circle class="st0" cx="48.6" cy="54.6" r="7.6"/>
			<circle class="st0" cx="48.3" cy="54.1" r="7.6"/>
			<circle class="st0" cx="47.9" cy="53.7" r="7.6"/>
			<circle class="st0" cx="47.5" cy="53.3" r="7.6"/>
			<circle class="st0" cx="47.2" cy="52.8" r="7.6"/>
			<circle class="st0" cx="46.8" cy="52.4" r="7.6"/>
			<circle class="st0" cx="46.5" cy="51.9" r="7.6"/>
			<circle class="st0" cx="46.1" cy="51.5" r="7.6"/>
			<circle class="st0" cx="45.7" cy="51.1" r="7.6"/>
			<circle class="st0" cx="45.4" cy="50.6" r="7.6"/>
			<circle class="st0" cx="45" cy="50.2" r="7.6"/>
			<circle class="st0" cx="44.7" cy="49.8" r="7.6"/>
			<circle class="st0" cx="44.3" cy="49.3" r="7.6"/>
			<circle class="st0" cx="43.9" cy="48.9" r="7.6"/>
			<circle class="st0" cx="43.6" cy="48.5" r="7.6"/>
			<circle class="st0" cx="43.2" cy="48" r="7.6"/>
			<circle class="st0" cx="42.9" cy="47.6" r="7.6"/>
			<circle class="st0" cx="42.5" cy="47.2" r="7.6"/>
			<circle class="st0" cx="42.2" cy="46.7" r="7.6"/>
			<circle class="st0" cx="41.8" cy="46.3" r="7.6"/>
			<circle class="st0" cx="41.4" cy="45.8" r="7.6"/>
			<circle class="st0" cx="41.1" cy="45.4" r="7.6"/>
			<circle class="st0" cx="40.7" cy="45" r="7.6"/>
			<circle class="st0" cx="40.4" cy="44.5" r="7.6"/>
			<circle class="st0" cx="40" cy="44.1" r="7.6"/>
			<circle class="st0" cx="39.6" cy="43.7" r="7.6"/>
			<circle class="st0" cx="39.3" cy="43.2" r="7.6"/>
			<circle class="st0" cx="38.9" cy="42.8" r="7.6"/>
			<circle class="st0" cx="38.6" cy="42.4" r="7.6"/>
			<circle class="st0" cx="38.2" cy="41.9" r="7.6"/>
			<circle class="st0" cx="37.8" cy="41.5" r="7.6"/>
			<circle class="st0" cx="37.5" cy="41" r="7.6"/>
			<circle class="st0" cx="37.1" cy="40.6" r="7.6"/>
			<circle class="st0" cx="36.8" cy="40.2" r="7.6"/>
			<circle class="st0" cx="36.4" cy="39.7" r="7.6"/>
			<circle class="st0" cx="36" cy="39.3" r="7.6"/>
			<circle class="st0" cx="35.7" cy="38.9" r="7.6"/>
			<circle class="st0" cx="35.3" cy="38.4" r="7.6"/>
			<circle class="st0" cx="35" cy="38" r="7.6"/>
			<circle class="st0" cx="34.6" cy="37.6" r="7.6"/>
			<circle class="st0" cx="34.3" cy="37.1" r="7.6"/>
			<circle class="st0" cx="33.9" cy="36.7" r="7.6"/>
			<circle class="st0" cx="33.5" cy="36.3" r="7.6"/>
			<circle class="st0" cx="33.2" cy="35.8" r="7.6"/>
			<circle class="st0" cx="32.8" cy="35.4" r="7.6"/>
			<circle class="st0" cx="32.5" cy="34.9" r="7.6"/>
			<circle class="st0" cx="32.1" cy="34.5" r="7.6"/>
			<circle class="st0" cx="31.7" cy="34.1" r="7.6"/>
			<circle class="st0" cx="31.4" cy="33.6" r="7.6"/>
			<circle class="st0" cx="31" cy="33.2" r="7.6"/>
			<circle class="st0" cx="30.7" cy="32.8" r="7.6"/>
			<circle class="st0" cx="30.3" cy="32.3" r="7.6"/>
			<circle class="st0" cx="29.9" cy="31.9" r="7.6"/>
			<circle class="st0" cx="29.6" cy="31.5" r="7.6"/>
			<circle class="st0" cx="29.2" cy="31" r="7.6"/>
			<circle class="st0" cx="28.9" cy="30.6" r="7.6"/>
			<circle class="st0" cx="28.5" cy="30.1" r="7.6"/>
			<circle class="st0" cx="28.1" cy="29.7" r="7.6"/>
			<circle class="st0" cx="27.8" cy="29.3" r="7.6"/>
			<circle class="st0" cx="27.4" cy="28.8" r="7.6"/>
			<circle class="st0" cx="27.1" cy="28.4" r="7.6"/>
			<circle class="st0" cx="26.7" cy="28" r="7.6"/>
			<circle class="st0" cx="26.3" cy="27.5" r="7.6"/>
			<circle class="st0" cx="26" cy="27.1" r="7.6"/>
			<circle class="st0" cx="25.6" cy="26.7" r="7.6"/>
			<circle class="st0" cx="25.3" cy="26.2" r="7.6"/>
			<circle class="st0" cx="24.9" cy="25.8" r="7.6"/>
			<circle class="st0" cx="24.6" cy="25.4" r="7.6"/>
			<circle class="st0" cx="24.2" cy="24.9" r="7.6"/>
			<circle class="st0" cx="23.8" cy="24.5" r="7.6"/>
			<circle class="st0" cx="23.5" cy="24" r="7.6"/>
			<circle class="st0" cx="23.1" cy="23.6" r="7.6"/>
			<circle class="st0" cx="22.8" cy="23.2" r="7.6"/>
			<circle class="st0" cx="22.4" cy="22.7" r="7.6"/>
			<circle class="st0" cx="22" cy="22.3" r="7.6"/>
			<circle class="st0" cx="21.7" cy="21.9" r="7.6"/>
			<circle class="st0" cx="21.3" cy="21.4" r="7.6"/>
			<circle class="st0" cx="21" cy="21" r="7.6"/>
			<circle class="st0" cx="20.6" cy="20.6" r="7.6"/>
			<circle class="st0" cx="20.2" cy="20.1" r="7.6"/>
			<circle class="st0" cx="19.9" cy="19.7" r="7.6"/>
			<circle class="st0" cx="19.5" cy="19.3" r="7.6"/>
			<circle class="st0" cx="19.2" cy="18.8" r="7.6"/>
			<circle class="st0" cx="18.8" cy="18.4" r="7.6"/>
			<circle class="st0" cx="18.4" cy="17.9" r="7.6"/>
			<circle class="st0" cx="18.1" cy="17.5" r="7.6"/>
			<circle class="st0" cx="17.7" cy="17.1" r="7.6"/>
			<circle class="st0" cx="17.4" cy="16.6" r="7.6"/>
			<circle class="st0" cx="17" cy="16.2" r="7.6"/>
			<circle class="st0" cx="16.7" cy="15.8" r="7.6"/>
			<circle class="st0" cx="16.3" cy="15.3" r="7.6"/>
			<circle class="st0" cx="15.9" cy="14.9" r="7.6"/>
			<circle class="st0" cx="15.6" cy="14.5" r="7.6"/>
			<circle class="st0" cx="15.2" cy="14" r="7.6"/>
			<circle class="st0" cx="14.9" cy="13.6" r="7.6"/>
			<circle class="st0" cx="14.5" cy="13.1" r="7.6"/>
			<circle class="st0" cx="14.1" cy="12.7" r="7.6"/>
			<circle class="st0" cx="13.8" cy="12.3" r="7.6"/>
			<circle class="st0" cx="13.4" cy="11.8" r="7.6"/>
			<circle class="st0" cx="13.1" cy="11.4" r="7.6"/>
			<circle class="st0" cx="12.7" cy="11" r="7.6"/>
			<circle class="st0" cx="12.7" cy="11.4" r="7.6"/>
			<circle class="st0" cx="12.7" cy="11.8" r="7.6"/>
			<circle class="st0" cx="12.7" cy="12.3" r="7.6"/>
			<circle class="st0" cx="12.7" cy="12.7" r="7.6"/>
			<circle class="st0" cx="12.7" cy="13.1" r="7.6"/>
			<circle class="st0" cx="12.7" cy="13.6" r="7.6"/>
			<circle class="st0" cx="12.7" cy="14" r="7.6"/>
			<circle class="st0" cx="12.7" cy="14.5" r="7.6"/>
			<circle class="st0" cx="12.7" cy="14.9" r="7.6"/>
			<circle class="st0" cx="12.7" cy="15.3" r="7.6"/>
			<circle class="st0" cx="12.7" cy="15.8" r="7.6"/>
			<circle class="st0" cx="12.7" cy="16.2" r="7.6"/>
			<circle class="st0" cx="12.7" cy="16.6" r="7.6"/>
			<circle class="st0" cx="12.7" cy="17.1" r="7.6"/>
			<circle class="st0" cx="12.7" cy="17.5" r="7.6"/>
			<circle class="st0" cx="12.7" cy="17.9" r="7.6"/>
			<circle class="st0" cx="12.7" cy="18.4" r="7.6"/>
			<circle class="st0" cx="12.7" cy="18.8" r="7.6"/>
			<circle class="st0" cx="12.7" cy="19.3" r="7.6"/>
			<circle class="st0" cx="12.7" cy="19.7" r="7.6"/>
			<circle class="st0" cx="12.7" cy="20.1" r="7.6"/>
			<circle class="st0" cx="12.7" cy="20.6" r="7.6"/>
			<circle class="st0" cx="12.7" cy="21" r="7.6"/>
			<circle class="st0" cx="12.7" cy="21.4" r="7.6"/>
			<circle class="st0" cx="12.7" cy="21.9" r="7.6"/>
			<circle class="st0" cx="12.7" cy="22.3" r="7.6"/>
			<circle class="st0" cx="12.7" cy="22.7" r="7.6"/>
			<circle class="st0" cx="12.7" cy="23.2" r="7.6"/>
			<circle class="st0" cx="12.7" cy="23.6" r="7.6"/>
			<circle class="st0" cx="12.7" cy="24" r="7.6"/>
			<circle class="st0" cx="12.7" cy="24.5" r="7.6"/>
			<circle class="st0" cx="12.7" cy="24.9" r="7.6"/>
			<circle class="st0" cx="12.7" cy="25.4" r="7.6"/>
			<circle class="st0" cx="12.7" cy="25.8" r="7.6"/>
			<circle class="st0" cx="12.7" cy="26.2" r="7.6"/>
			<circle class="st0" cx="12.7" cy="26.7" r="7.6"/>
			<circle class="st0" cx="12.7" cy="27.1" r="7.6"/>
			<circle class="st0" cx="12.7" cy="27.5" r="7.6"/>
			<circle class="st0" cx="12.7" cy="28" r="7.6"/>
			<circle class="st0" cx="12.7" cy="28.4" r="7.6"/>
			<circle class="st0" cx="12.7" cy="28.8" r="7.6"/>
			<circle class="st0" cx="12.7" cy="29.3" r="7.6"/>
			<circle class="st0" cx="12.7" cy="29.7" r="7.6"/>
			<circle class="st0" cx="12.7" cy="30.1" r="7.6"/>
			<circle class="st0" cx="12.7" cy="30.6" r="7.6"/>
			<circle class="st0" cx="12.7" cy="31" r="7.6"/>
			<circle class="st0" cx="12.7" cy="31.5" r="7.6"/>
			<circle class="st0" cx="12.7" cy="31.9" r="7.6"/>
			<circle class="st0" cx="12.7" cy="32.3" r="7.6"/>
			<circle class="st0" cx="12.7" cy="32.8" r="7.6"/>
			<circle class="st0" cx="12.7" cy="33.2" r="7.6"/>
			<circle class="st0" cx="12.7" cy="33.6" r="7.6"/>
			<circle class="st0" cx="12.7" cy="34.1" r="7.6"/>
			<circle class="st0" cx="12.7" cy="34.5" r="7.6"/>
			<circle class="st0" cx="12.7" cy="34.9" r="7.6"/>
			<circle class="st0" cx="12.7" cy="35.4" r="7.6"/>
			<circle class="st0" cx="12.7" cy="35.8" r="7.6"/>
			<circle class="st0" cx="12.7" cy="36.3" r="7.6"/>
			<circle class="st0" cx="12.7" cy="36.7" r="7.6"/>
			<circle class="st0" cx="12.7" cy="37.1" r="7.6"/>
			<circle class="st0" cx="12.7" cy="37.6" r="7.6"/>
			<circle class="st0" cx="12.7" cy="38" r="7.6"/>
			<circle class="st0" cx="12.7" cy="38.4" r="7.6"/>
			<circle class="st0" cx="12.7" cy="38.9" r="7.6"/>
			<circle class="st0" cx="12.7" cy="39.3" r="7.6"/>
			<circle class="st0" cx="12.7" cy="39.7" r="7.6"/>
			<circle class="st0" cx="12.7" cy="40.2" r="7.6"/>
			<circle class="st0" cx="12.7" cy="40.6" r="7.6"/>
			<circle class="st0" cx="12.7" cy="41" r="7.6"/>
			<circle class="st0" cx="12.7" cy="41.5" r="7.6"/>
			<circle class="st0" cx="12.7" cy="41.9" r="7.6"/>
			<circle class="st0" cx="12.7" cy="42.4" r="7.6"/>
			<circle class="st0" cx="12.7" cy="42.8" r="7.6"/>
			<circle class="st0" cx="12.7" cy="43.2" r="7.6"/>
			<circle class="st0" cx="12.7" cy="43.7" r="7.6"/>
			<circle class="st0" cx="12.7" cy="44.1" r="7.6"/>
			<circle class="st0" cx="12.7" cy="44.5" r="7.6"/>
			<circle class="st0" cx="12.7" cy="45" r="7.6"/>
			<circle class="st0" cx="12.7" cy="45.4" r="7.6"/>
			<circle class="st0" cx="12.7" cy="45.8" r="7.6"/>
			<circle class="st0" cx="12.7" cy="46.3" r="7.6"/>
			<circle class="st0" cx="12.7" cy="46.7" r="7.6"/>
			<circle class="st0" cx="12.7" cy="47.2" r="7.6"/>
			<circle class="st0" cx="12.7" cy="47.6" r="7.6"/>
			<circle class="st0" cx="12.7" cy="48" r="7.6"/>
			<circle class="st0" cx="12.7" cy="48.5" r="7.6"/>
			<circle class="st0" cx="12.7" cy="48.9" r="7.6"/>
			<circle class="st0" cx="12.7" cy="49.3" r="7.6"/>
			<circle class="st0" cx="12.7" cy="49.8" r="7.6"/>
			<circle class="st0" cx="12.7" cy="50.2" r="7.6"/>
			<circle class="st0" cx="12.7" cy="50.6" r="7.6"/>
			<circle class="st0" cx="12.7" cy="51.1" r="7.6"/>
			<circle class="st0" cx="12.7" cy="51.5" r="7.6"/>
			<circle class="st0" cx="12.7" cy="51.9" r="7.6"/>
			<circle class="st0" cx="12.7" cy="52.4" r="7.6"/>
			<circle class="st0" cx="12.7" cy="52.8" r="7.6"/>
			<circle class="st0" cx="12.7" cy="53.3" r="7.6"/>
			<circle class="st0" cx="12.7" cy="53.7" r="7.6"/>
			<circle class="st0" cx="12.7" cy="54.1" r="7.6"/>
			<circle class="st0" cx="12.7" cy="54.6" r="7.6"/>
			<circle class="st0" cx="12.7" cy="55" r="7.6"/>
		</g>
	</g>
	<g class="st1">
		<path class="st0" d="M97.5,46c1-0.9,2.1-1.5,3.2-2s2.5-0.7,3.8-0.7c1,0,1.9,0.2,2.7,0.5c0.8,0.3,1.4,0.8,2,1.3
			c0.5,0.6,1,1.3,1.2,2.1c0.3,0.8,0.4,1.7,0.4,2.6v10.4h-2c-0.4,0-0.7-0.1-1-0.2c-0.2-0.1-0.4-0.4-0.5-0.7l-0.4-1.1
			c-0.4,0.4-0.8,0.7-1.2,1c-0.4,0.3-0.8,0.5-1.2,0.7c-0.4,0.2-0.9,0.3-1.3,0.4s-1,0.1-1.6,0.1c-0.7,0-1.4-0.1-2-0.3
			c-0.6-0.2-1.1-0.5-1.6-0.9c-0.4-0.4-0.8-0.9-1-1.4c-0.2-0.6-0.4-1.2-0.4-2c0-0.6,0.2-1.2,0.5-1.8c0.3-0.6,0.8-1.2,1.6-1.7
			c0.8-0.5,1.8-0.9,3-1.2c1.3-0.3,2.8-0.5,4.7-0.6v-0.9c0-1-0.2-1.8-0.7-2.3c-0.4-0.5-1.1-0.7-1.9-0.7c-0.6,0-1.1,0.1-1.5,0.2
			c-0.4,0.1-0.8,0.3-1.1,0.5c-0.3,0.2-0.6,0.3-0.9,0.5c-0.3,0.1-0.6,0.2-0.9,0.2c-0.3,0-0.6-0.1-0.8-0.2c-0.2-0.2-0.4-0.3-0.5-0.6
			L97.5,46z M106.6,53.4c-1.1,0.1-2,0.1-2.7,0.3c-0.7,0.1-1.3,0.3-1.7,0.5c-0.4,0.2-0.7,0.5-0.9,0.7s-0.3,0.6-0.3,0.9
			c0,0.6,0.2,1.1,0.5,1.4c0.4,0.3,0.9,0.4,1.5,0.4c0.7,0,1.4-0.1,1.9-0.4c0.5-0.3,1.1-0.7,1.6-1.2V53.4z"/>
		<path class="st0" d="M118.5,45.7c0.3-0.3,0.7-0.6,1-0.9s0.7-0.5,1.1-0.7s0.8-0.3,1.3-0.5c0.5-0.1,1-0.2,1.5-0.2
			c0.9,0,1.7,0.2,2.4,0.5c0.7,0.3,1.3,0.7,1.8,1.3c0.5,0.6,0.8,1.2,1.1,2s0.4,1.6,0.4,2.5v10.6h-4.4V49.8c0-0.9-0.2-1.6-0.6-2.2
			c-0.4-0.5-1.1-0.8-1.9-0.8c-0.6,0-1.2,0.1-1.8,0.4c-0.5,0.3-1.1,0.6-1.6,1.1v11.9h-4.4V43.7h2.7c0.6,0,0.9,0.3,1.1,0.8L118.5,45.7
			z"/>
		<path class="st0" d="M138.2,60.6c-0.8,0-1.4-0.1-2-0.3c-0.6-0.2-1.1-0.5-1.5-0.9s-0.7-0.9-0.9-1.5c-0.2-0.6-0.3-1.2-0.3-2v-9h-1.6
			c-0.2,0-0.4-0.1-0.6-0.2s-0.2-0.4-0.2-0.7v-1.7l2.7-0.5l0.9-4.3c0.1-0.5,0.4-0.7,1-0.7h2.3v5.1h4.3v3.1h-4.3v8.7
			c0,0.5,0.1,0.8,0.3,1.1c0.2,0.3,0.5,0.4,0.9,0.4c0.2,0,0.4,0,0.5-0.1c0.2,0,0.3-0.1,0.4-0.2c0.1-0.1,0.2-0.1,0.3-0.2
			c0.1,0,0.2-0.1,0.3-0.1c0.1,0,0.2,0,0.3,0.1c0.1,0.1,0.2,0.2,0.3,0.3l1.3,2.1c-0.6,0.5-1.3,0.8-2.1,1.1
			C139.8,60.5,139,60.6,138.2,60.6z"/>
		<path class="st0" d="M148.8,46.5c0.5-0.9,1.1-1.7,1.8-2.2c0.7-0.5,1.5-0.8,2.4-0.8c0.8,0,1.4,0.2,1.8,0.5l-0.3,3.3
			c-0.1,0.2-0.1,0.4-0.2,0.4c-0.1,0.1-0.3,0.1-0.5,0.1c-0.2,0-0.4,0-0.7-0.1c-0.3,0-0.6-0.1-0.9-0.1c-0.4,0-0.8,0.1-1.1,0.2
			c-0.3,0.1-0.6,0.3-0.8,0.5s-0.5,0.5-0.7,0.8s-0.4,0.7-0.6,1.1v10.2h-4.5V43.7h2.6c0.5,0,0.8,0.1,0.9,0.2s0.3,0.4,0.4,0.8
			L148.8,46.5z"/>
		<path class="st0" d="M156.2,46c1-0.9,2.1-1.5,3.2-2c1.2-0.4,2.5-0.7,3.8-0.7c1,0,1.9,0.2,2.7,0.5s1.4,0.8,2,1.3
			c0.5,0.6,1,1.3,1.2,2.1c0.3,0.8,0.4,1.7,0.4,2.6v10.4h-2c-0.4,0-0.7-0.1-1-0.2c-0.2-0.1-0.4-0.4-0.5-0.7l-0.4-1.1
			c-0.4,0.4-0.8,0.7-1.2,1c-0.4,0.3-0.8,0.5-1.2,0.7c-0.4,0.2-0.9,0.3-1.3,0.4s-1,0.1-1.6,0.1c-0.7,0-1.4-0.1-2-0.3
			s-1.1-0.5-1.6-0.9s-0.8-0.9-1-1.4s-0.4-1.2-0.4-2c0-0.6,0.2-1.2,0.5-1.8c0.3-0.6,0.8-1.2,1.6-1.7c0.8-0.5,1.8-0.9,3-1.2
			c1.3-0.3,2.8-0.5,4.7-0.6v-0.9c0-1-0.2-1.8-0.7-2.3c-0.4-0.5-1.1-0.7-1.9-0.7c-0.6,0-1.1,0.1-1.5,0.2c-0.4,0.1-0.8,0.3-1.1,0.5
			c-0.3,0.2-0.6,0.3-0.9,0.5c-0.3,0.1-0.6,0.2-0.9,0.2c-0.3,0-0.6-0.1-0.8-0.2c-0.2-0.2-0.4-0.3-0.5-0.6L156.2,46z M165.2,53.4
			c-1.1,0.1-2,0.1-2.7,0.3c-0.7,0.1-1.3,0.3-1.7,0.5c-0.4,0.2-0.7,0.5-0.9,0.7c-0.2,0.3-0.3,0.6-0.3,0.9c0,0.6,0.2,1.1,0.5,1.4
			s0.9,0.4,1.5,0.4c0.7,0,1.4-0.1,1.9-0.4c0.5-0.3,1.1-0.7,1.6-1.2V53.4z"/>
	</g>
	<g class="st1">
		<path class="st2" d="M185.6,40v7.8h9.3v2.8h-9.3v9.8h-3.5V37.2h14.3V40H185.6z"/>
		<path class="st2" d="M197.1,46.3c0.9-0.9,1.9-1.5,3-2s2.2-0.6,3.5-0.6c0.9,0,1.8,0.2,2.5,0.5c0.7,0.3,1.3,0.7,1.8,1.3
			c0.5,0.5,0.9,1.2,1.1,2c0.3,0.8,0.4,1.6,0.4,2.5v10.4H208c-0.3,0-0.5-0.1-0.7-0.2c-0.2-0.1-0.3-0.3-0.4-0.6l-0.3-1.4
			c-0.4,0.4-0.8,0.7-1.2,1c-0.4,0.3-0.8,0.5-1.3,0.8c-0.4,0.2-0.9,0.4-1.4,0.5s-1.1,0.2-1.7,0.2c-0.6,0-1.2-0.1-1.8-0.3
			c-0.6-0.2-1.1-0.4-1.5-0.8s-0.7-0.8-1-1.4s-0.4-1.2-0.4-1.9c0-0.6,0.2-1.3,0.5-1.9c0.3-0.6,0.9-1.1,1.7-1.6s1.8-0.9,3.1-1.2
			c1.3-0.3,2.8-0.5,4.7-0.5v-1.2c0-1.2-0.3-2.2-0.8-2.8c-0.5-0.6-1.3-0.9-2.3-0.9c-0.7,0-1.3,0.1-1.7,0.3c-0.5,0.2-0.9,0.4-1.2,0.6
			c-0.3,0.2-0.6,0.4-0.9,0.6c-0.3,0.2-0.5,0.3-0.8,0.3c-0.2,0-0.4-0.1-0.6-0.2c-0.2-0.1-0.3-0.3-0.4-0.4L197.1,46.3z M206.3,53.1
			c-1.3,0-2.4,0.1-3.3,0.3c-0.9,0.2-1.6,0.4-2.2,0.6c-0.6,0.3-1,0.6-1.2,0.9c-0.2,0.3-0.4,0.7-0.4,1.2c0,0.4,0.1,0.8,0.2,1.1
			c0.1,0.3,0.3,0.5,0.5,0.7c0.2,0.2,0.5,0.3,0.8,0.4c0.3,0.1,0.6,0.1,1,0.1c0.5,0,0.9,0,1.3-0.1c0.4-0.1,0.8-0.2,1.1-0.4
			c0.4-0.2,0.7-0.4,1-0.7s0.6-0.6,1-0.9V53.1z"/>
		<path class="st2" d="M216.8,46.2c0.7-0.8,1.4-1.4,2.3-1.8c0.9-0.5,1.8-0.7,2.9-0.7c1,0,1.8,0.2,2.6,0.6c0.8,0.4,1.4,0.9,2,1.6
			c0.5,0.7,1,1.5,1.2,2.5c0.3,1,0.4,2.1,0.4,3.4c0,1.3-0.2,2.5-0.5,3.6c-0.3,1.1-0.8,2-1.4,2.8c-0.6,0.8-1.3,1.4-2.2,1.8
			s-1.8,0.6-2.9,0.6c-0.5,0-1-0.1-1.5-0.2c-0.4-0.1-0.8-0.2-1.2-0.4s-0.7-0.4-1-0.7c-0.3-0.3-0.6-0.6-0.9-1l-0.1,1.4
			c-0.1,0.4-0.4,0.7-0.8,0.7h-2V36.6h3.1V46.2z M216.8,56.3c0.5,0.7,1.1,1.2,1.7,1.4c0.6,0.3,1.3,0.4,2,0.4c1.5,0,2.6-0.5,3.4-1.6
			c0.8-1,1.2-2.6,1.2-4.7c0-1.9-0.3-3.4-1-4.3c-0.7-0.9-1.7-1.4-3-1.4c-0.9,0-1.7,0.2-2.3,0.6s-1.3,1-1.8,1.7V56.3z"/>
		<path class="st2" d="M234.7,47.1c0.5-1.1,1.2-1.9,1.9-2.5c0.7-0.6,1.6-0.9,2.7-0.9c0.4,0,0.7,0,1,0.1c0.3,0.1,0.6,0.2,0.8,0.4
			l-0.2,2.4c-0.1,0.3-0.3,0.4-0.5,0.4c-0.2,0-0.4,0-0.7-0.1c-0.3-0.1-0.6-0.1-1-0.1c-0.5,0-1,0.1-1.3,0.2c-0.4,0.1-0.7,0.4-1,0.6
			c-0.3,0.3-0.6,0.6-0.8,1c-0.2,0.4-0.5,0.9-0.7,1.4v10.3h-3.1V44h1.8c0.3,0,0.6,0.1,0.7,0.2c0.1,0.1,0.2,0.3,0.3,0.7L234.7,47.1z"
			/>
		<path class="st2" d="M247.4,38.9c0,0.3-0.1,0.6-0.2,0.8c-0.1,0.3-0.3,0.5-0.5,0.7c-0.2,0.2-0.4,0.4-0.7,0.5
			c-0.3,0.1-0.5,0.2-0.8,0.2c-0.3,0-0.6-0.1-0.8-0.2c-0.3-0.1-0.5-0.3-0.7-0.5c-0.2-0.2-0.4-0.4-0.5-0.7c-0.1-0.3-0.2-0.5-0.2-0.8
			c0-0.3,0.1-0.6,0.2-0.8c0.1-0.3,0.3-0.5,0.5-0.7s0.4-0.4,0.7-0.5c0.3-0.1,0.5-0.2,0.8-0.2c0.3,0,0.6,0.1,0.8,0.2
			c0.3,0.1,0.5,0.3,0.7,0.5c0.2,0.2,0.4,0.4,0.5,0.7C247.4,38.3,247.4,38.6,247.4,38.9z M246.8,44v16.4h-3.1V44H246.8z"/>
		<path class="st2" d="M262.9,47c-0.1,0.1-0.2,0.2-0.3,0.3c-0.1,0.1-0.2,0.1-0.4,0.1s-0.4-0.1-0.5-0.2c-0.2-0.1-0.4-0.3-0.7-0.4
			c-0.3-0.2-0.6-0.3-1-0.4c-0.4-0.1-0.9-0.2-1.5-0.2c-0.8,0-1.5,0.1-2,0.4s-1.1,0.7-1.5,1.2c-0.4,0.5-0.7,1.1-0.9,1.9
			c-0.2,0.7-0.3,1.6-0.3,2.5c0,1,0.1,1.8,0.3,2.6c0.2,0.7,0.5,1.4,0.9,1.9s0.9,0.9,1.5,1.2c0.6,0.3,1.2,0.4,1.9,0.4
			c0.7,0,1.2-0.1,1.7-0.2c0.4-0.2,0.8-0.3,1.1-0.5s0.5-0.4,0.7-0.5s0.4-0.2,0.6-0.2c0.3,0,0.5,0.1,0.6,0.3l0.9,1.2
			c-0.4,0.5-0.8,0.9-1.3,1.2c-0.5,0.3-1,0.6-1.5,0.8c-0.5,0.2-1.1,0.4-1.7,0.5c-0.6,0.1-1.2,0.1-1.7,0.1c-1,0-2-0.2-2.9-0.6
			c-0.9-0.4-1.7-0.9-2.3-1.6s-1.2-1.6-1.5-2.7c-0.4-1-0.6-2.2-0.6-3.6c0-1.2,0.2-2.3,0.5-3.4c0.3-1,0.8-1.9,1.5-2.7
			c0.7-0.7,1.5-1.3,2.4-1.8c1-0.4,2.1-0.6,3.3-0.6c1.2,0,2.2,0.2,3.1,0.6c0.9,0.4,1.7,0.9,2.4,1.6L262.9,47z"/>
		<path class="st2" d="M276.5,46.8c-0.1,0.1-0.2,0.2-0.3,0.3c-0.1,0.1-0.2,0.1-0.4,0.1c-0.2,0-0.4-0.1-0.6-0.2
			c-0.2-0.1-0.5-0.2-0.8-0.4c-0.3-0.1-0.6-0.3-1-0.4s-0.9-0.2-1.4-0.2c-0.5,0-0.9,0.1-1.2,0.2c-0.4,0.1-0.7,0.3-0.9,0.5
			c-0.3,0.2-0.5,0.4-0.6,0.7s-0.2,0.6-0.2,0.9c0,0.4,0.1,0.7,0.4,1c0.2,0.3,0.6,0.5,1,0.7s0.8,0.4,1.3,0.5c0.5,0.2,1,0.3,1.5,0.5
			s1,0.4,1.5,0.6c0.5,0.2,0.9,0.5,1.3,0.8c0.4,0.3,0.7,0.7,1,1.2c0.2,0.5,0.4,1,0.4,1.7c0,0.8-0.1,1.5-0.4,2.1
			c-0.3,0.6-0.7,1.2-1.2,1.7c-0.5,0.5-1.2,0.8-2,1.1c-0.8,0.3-1.7,0.4-2.7,0.4c-1.1,0-2.2-0.2-3.1-0.6c-1-0.4-1.8-0.9-2.4-1.4
			l0.7-1.2c0.1-0.2,0.2-0.3,0.3-0.3c0.1-0.1,0.3-0.1,0.5-0.1c0.2,0,0.4,0.1,0.6,0.2s0.5,0.3,0.8,0.5c0.3,0.2,0.7,0.3,1.1,0.5
			c0.4,0.1,1,0.2,1.6,0.2c0.5,0,1-0.1,1.4-0.2s0.7-0.3,1-0.5c0.3-0.2,0.5-0.5,0.6-0.8s0.2-0.6,0.2-1c0-0.4-0.1-0.8-0.4-1.1
			c-0.2-0.3-0.6-0.5-1-0.7c-0.4-0.2-0.8-0.4-1.3-0.5c-0.5-0.2-1-0.3-1.5-0.5s-1-0.4-1.5-0.6s-1-0.5-1.3-0.9c-0.4-0.3-0.7-0.8-1-1.3
			s-0.4-1.1-0.4-1.8c0-0.6,0.1-1.2,0.4-1.8s0.6-1.1,1.1-1.5s1.1-0.8,1.9-1.1c0.7-0.3,1.6-0.4,2.5-0.4c1.1,0,2.1,0.2,2.9,0.5
			c0.9,0.3,1.6,0.8,2.2,1.4L276.5,46.8z"/>
	</g>
</g>
</svg>
