<?xml version="1.0" encoding="utf-8"?>
<!-- Generator: Adobe Illustrator 24.3.0, SVG Export Plug-In . SVG Version: 6.00 Build 0)  -->
<svg version="1.1" id="Layer_1" xmlns="http://www.w3.org/2000/svg" xmlns:xlink="http://www.w3.org/1999/xlink" x="0px" y="0px"
	 viewBox="0 0 500 500" style="enable-background:new 0 0 500 500;" xml:space="preserve">
<g>
	<g>
		<g>
			<path d="M186.2,401c3.4-4.6,6.5-8.7,9.5-12.9c5.6-7.8,11.2-15.6,16.9-23.3c1.4-1.8,1.3-3.1,0-4.8c-8.5-11.7-16.9-23.4-25.2-35.2
				c-0.6-0.8-1.8-1.6-1.2-2.6c0.5-0.9,1.9-0.4,2.9-0.4c5.7,0,11.4,0.1,17-0.1c2.1-0.1,3.4,0.7,4.6,2.4c5,7.4,10.2,14.8,15.2,22.2
				c1.3,1.9,2,2,3.3,0c4.9-7.5,10.1-14.9,15-22.3c1.1-1.6,2.3-2.3,4.3-2.3c6.8,0.1,13.6,0,20.4,0c0.2,1.6-0.8,2.3-1.4,3.2
				c-8.2,11.4-16.3,22.8-24.6,34.1c-1.7,2.3-1.9,3.9,0,6.3c9.2,12.3,18.1,24.8,27.1,37.3c0.5,0.6,1.4,1.3,0.9,2.1
				c-0.5,0.8-1.5,0.4-2.3,0.4c-6,0-12-0.1-18,0.1c-2,0-3.2-0.7-4.3-2.3c-5.7-8.2-11.6-16.3-17.2-24.6c-1.4-2.1-2.1-1.5-3.2,0.1
				c-5.7,8.2-11.6,16.3-17.3,24.5c-1.1,1.6-2.3,2.3-4.3,2.3c-11.7-0.1-23.3-0.1-35,0c-2.2,0-3.3-0.7-4-2.8c-1.4-4.2-3-8.3-4.4-12.5
				c-0.5-1.5-1.4-2.1-3-2.1c-9.4,0-18.8,0.1-28.2,0c-1.8,0-2.6,0.7-3.1,2.3c-1.5,4.3-3.2,8.5-4.6,12.8c-0.6,1.8-1.5,2.4-3.4,2.3
				c-5.2-0.1-10.3,0-15.5,0c-3.5,0-3.5,0-2.2-3.2c6.1-15.2,12.3-30.4,18.4-45.6c4.3-10.8,8.7-21.6,12.9-32.5
				c0.7-1.7,1.6-2.4,3.4-2.3c5.1,0.1,10.1,0.2,15.2,0c2.7-0.1,3.8,0.9,4.7,3.3c9.5,23.8,19.2,47.6,28.8,71.4
				C184.8,397.7,185.3,399,186.2,401z M143.7,343.3c-3.5,9.5-6.7,18.1-9.9,26.6c-0.7,1.9-0.3,2.6,1.8,2.6c5.4-0.1,10.7-0.1,16.1,0
				c2.4,0.1,2.5-1,1.9-2.8c-2.1-5.7-4.2-11.4-6.3-17.1C146.1,349.9,145.1,347,143.7,343.3z"/>
			<path d="M72.6,354.3c-3.8,4-6.4,8.6-9.7,12.8c-3.7,4.7-7.1,9.6-10.7,14.4c-2.7,3.6-2.7,3.5-5.4-0.2c-5.8-7.9-11.6-15.8-17.4-23.7
				c-0.8-1.1-1.6-2.1-2.6-3.3c-1,1.3-0.6,2.6-0.6,3.7c0,14.7-0.1,29.3,0,44c0,2.6-0.7,3.4-3.3,3.3c-4.2-0.2-8.5-0.2-12.7,0
				c-2.9,0.2-3.9-0.7-3.9-3.7c0.1-22.4,0.1-44.8,0.1-67.2c0-3.3,0.1-6.6,0-9.9c-0.1-2.2,0.8-2.9,2.9-2.8c4.3,0.1,8.7,0.1,13,0
				c1.9-0.1,3,0.6,4.1,2.2c6.9,9.9,14,19.7,20.9,29.5c2.4,3.4,2.3,3.4,4.8,0c6.9-9.8,13.9-19.5,20.8-29.3c1.2-1.7,2.5-2.4,4.6-2.4
				c4.1,0.1,8.3,0.2,12.4,0c2.5-0.1,3.2,0.9,3.2,3.2c-0.1,14.4,0,28.9,0,43.3c0,11.1-0.1,22.3,0.1,33.4c0,2.8-0.8,3.8-3.7,3.7
				c-4.1-0.2-8.3-0.2-12.4,0c-3.1,0.2-3.8-1-3.7-3.9c0.1-14.5,0.1-29.1,0-43.6C73.1,356.7,73.4,355.6,72.6,354.3z"/>
		</g>
		<g>
			<path d="M317.1,386.7c0,3.8,0,7.6,0,11.4c0,1.5-0.2,2.6-2.2,2.6c-1.9,0-2.2-0.9-2.2-2.5c0.1-2.5-0.1-4.9,0-7.4
				c0.1-1.8-0.5-2.6-2.5-2.6c-3.5,0.1-7,0.1-10.5,0c-2.1-0.1-2.6,0.9-2.6,2.8c0.1,2.5,0,4.9,0,7.4c0,1.5-0.4,2.3-2.1,2.3
				c-1.8,0-2.3-0.7-2.3-2.4c0.1-7.7,0-15.5,0-23.2c0-1.6,0.4-2.5,2.2-2.5c1.9,0,2.2,1.1,2.1,2.6c0,2.3,0.1,4.5,0,6.8
				c0,1.5,0.4,2.3,2.1,2.3c3.8,0,7.6,0,11.4,0c1.4,0,2-0.7,2-2.1c0-2.1,0-4.1,0-6.2c0-1.6-0.5-3.4,2.2-3.4c2.8,0.1,2.1,2.1,2.1,3.5
				C317.1,379.6,317.1,383.1,317.1,386.7z"/>
			<path d="M393.3,386.7c0-3.9,0-7.8,0-11.7c0-1.5,0.4-2.3,2.1-2.3c1.6,0,1.8,1,1.8,2.2c0,1.9,0,3.7,0.1,5.6c0,1.4,0.6,1.9,1.9,1
				c1.4-0.9,3-1.4,4.6-1.6c4.3-0.4,7,1.8,7.2,6.1c0.2,4.1,0,8.2,0,12.4c0,1.2-0.1,2.2-1.7,2.3c-1.8,0.1-2-1.1-2-2.4
				c0-3.4,0-6.8-0.1-10.2c-0.1-3.4-1.4-4.8-4.2-4.9c-3.4-0.1-5.7,1.9-5.7,5c-0.1,3.4,0,6.8,0,10.2c0,1.4-0.4,2.3-2.1,2.3
				c-1.6-0.1-1.8-1-1.8-2.2C393.3,394.5,393.3,390.6,393.3,386.7z"/>
			<path d="M483.9,401.2c-5.1,0-8.9-2.8-10.2-7.4c-1.4-5.1,0.4-10.1,4.7-12.6c3.9-2.3,8.8-1.8,12,1.3c0.8,0.8,1.5,1.7,2,2.7
				c2.5,5,1.6,6.5-3.9,6.5c-2.9,0-5.8,0.1-8.6,0c-2.5-0.1-2.5,1.1-1.6,2.8c1.5,2.9,5,4.2,8.5,3.1c0.8-0.2,1.6-0.5,2.2-1
				c1.1-0.8,1.8-0.6,2.5,0.5c0.9,1.4-0.2,1.9-1.1,2.3C488.4,400.6,486.2,401.2,483.9,401.2z M483.6,389c1.3,0,2.7,0,4,0
				c2.2,0.1,2.4-1,1.6-2.7c-1.1-2.2-3-3.3-5.4-3.3c-2.5,0-4.3,1.1-5.5,3.3c-1,1.9-0.6,2.9,1.7,2.8C481.1,388.9,482.3,389,483.6,389z
				"/>
			<path d="M332.1,401.2c-4-0.2-7.6-1.4-9.4-5.3c-1.9-4.1-1.9-8.3,0.9-12c2.5-3.4,6.2-4.6,10.4-3.7c4.2,0.9,7.3,4.6,7.7,9
				c0.2,1.8-0.4,2.7-2.3,2.7c-3.8-0.1-7.6,0.1-11.4,0c-2.5,0-2.5,1.1-1.6,2.8c1.8,3.3,5.9,4.4,10,2.5c1.2-0.5,2.4-1.8,3.3,0.2
				c0.8,1.9-1,2.1-2.1,2.7C335.9,400.8,334,401.2,332.1,401.2z M331.7,389C331.7,389,331.7,389,331.7,389c1.4,0,2.9,0,4.3,0
				c1.9,0,2-0.9,1.4-2.3c-1-2.3-2.8-3.5-5.2-3.7c-2.6-0.2-4.6,0.9-5.8,3.2c-1,1.9-0.6,2.9,1.7,2.8C329.2,388.9,330.5,389,331.7,389z
				"/>
			<path d="M358.3,389.8c1.8-4.2-1.1-7.9-6.8-6.4c-1,0.3-1.9,0.8-2.7,1.4c-0.9,0.6-1.5,0.3-2-0.5c-0.6-0.8-0.6-1.4,0.3-2.1
				c3.5-2.6,7.4-3.2,11.4-1.7c3.8,1.3,4.4,4.5,4.3,8c-0.1,3.2-0.1,6.4,0,9.6c0.1,2.5-1.6,3.2-3,2.2c-1.7-1.1-2.8-0.3-4.2,0.2
				c-3.6,1.2-7.5,0.4-9.3-2.1c-1.6-2.3-1.9-4.8-0.5-7.3c1.6-2.7,4.2-3.5,7.1-3.4C354.9,387.9,356.7,388.7,358.3,389.8z M353.9,390.6
				c-3-0.1-4.9,1.4-4.9,3.9c0,2.3,1.8,4,4.5,4.1c2.9,0.1,5.3-1.5,5.4-3.8C359,392.2,357.3,390.7,353.9,390.6z"/>
			<path d="M450.4,389.6c0.9-5.2-2.1-7.7-7.1-6.2c-0.8,0.2-1.5,0.7-2.2,1.1c-0.8,0.5-1.5,1.3-2.3,0c-0.6-1-0.4-1.6,0.4-2.4
				c2.9-2.6,9.3-3.1,12.5-0.8c1.8,1.3,2.8,3,2.8,5.2c0,3.9-0.1,7.8,0,11.7c0.1,2.3-1.4,3.1-2.8,2.2c-1.8-1.1-3-0.3-4.4,0.2
				c-4.4,1.4-8.6-0.2-9.9-3.7c-1.8-5,2-9.5,7.5-9.1C446.9,387.9,448.6,388.9,450.4,389.6z M445.7,390.6c-3,0-4.9,1.5-4.9,3.9
				c0,2.4,2,4.1,4.8,4.1c3.1,0,5.1-1.6,5.2-4C450.8,392,449.1,390.6,445.7,390.6z"/>
			<path d="M425.9,401.2c-4.8,0-8.4-2.6-9.8-7c-1.5-4.6-0.1-9.6,3.4-12.3c3.3-2.6,8.6-2.9,11.9-0.5c0.8,0.6,2.7,0.9,1.4,2.7
				c-1,1.4-1.9,1.2-3.3,0.2c-2.7-1.9-6.3-1.3-8.3,1.2c-2.3,2.8-2.3,7.6,0.2,10.3c2.1,2.3,5.6,3,8.1,1c1.6-1.2,2.6-1.1,3.5,0.4
				c0.9,1.6-0.8,2.1-1.7,2.7C429.7,400.8,427.8,401.2,425.9,401.2z"/>
			<path d="M385.5,401.2c-3.3,0-5.1-1.6-5.2-4.7c-0.1-3.1,0-6.2-0.1-9.3c0-1.7,0.4-3.6-2.3-3.8c-0.9,0-1-0.9-1-1.7
				c0-0.8,0.2-1.5,1.2-1.5c2.4,0,2.1-1.7,2.1-3.2c0-1.3,0.1-2.5,1.9-2.5c1.8,0,2.1,1.1,2,2.4c-0.1,2,0.3,3.4,2.8,3.3
				c0.9,0,1.2,0.6,1.2,1.5c0,0.9-0.3,1.7-1.3,1.7c-2.8-0.1-2.8,1.8-2.7,3.8c0,2.6,0,5.1,0.1,7.7c0,1.5,0.5,2.8,2.2,2.7
				c1.2,0,2.1,0.1,2.2,1.4c0.1,1.6-1.2,1.7-2.3,2C386.1,401.2,385.6,401.2,385.5,401.2z"/>
			<path d="M460.8,390.4c0-2.6,0-5.1,0-7.7c0-1-0.1-2.2,1.3-2.3c1-0.1,2.2-0.4,2.4,1.2c0.3,1.6,1,0.8,1.7,0.3
				c0.9-0.5,1.7-1.1,2.7-1.5c0.8-0.3,1.9-0.7,2.3,0.6c0.3,1.1,0.3,2.1-1.2,2.7c-5.4,1.9-5.4,2-5.4,7.6c0,2.5,0,4.9,0,7.4
				c0,1.2-0.3,2.2-1.9,2.1c-1.6,0-1.8-1-1.8-2.2C460.8,395.7,460.8,393.1,460.8,390.4z"/>
			<path d="M372.8,386.6c0,3.9,0,7.8,0,11.7c0,1.5-0.4,2.3-2.1,2.3c-1.6-0.1-1.8-1.1-1.8-2.3c0-7.8,0-15.6,0-23.4
				c0-1.2,0.1-2.2,1.8-2.3c1.7-0.1,2.1,0.8,2.1,2.3C372.8,378.8,372.8,382.7,372.8,386.6z"/>
		</g>
	</g>
	<g>
		<path d="M250.3,94.7c24.8,0,49.6,0.1,74.5-0.1c3.9,0,5.1,1.1,5.1,5.1c-0.1,45.3-0.1,90.5-0.1,135.8c0,8-3.3,14.1-9.8,18.7
			c-12.4,8.7-24.8,17.5-37.2,26.3c-4.4,3.2-9.2,4.7-14.8,4.6c-12.3-0.2-24.7-0.1-37,0c-4.9,0-9.2-1.4-13.1-4.2
			c-12.5-8.8-25-17.8-37.5-26.6c-7-4.9-10.3-11.4-10.3-19.9c0.1-44.8,0.1-89.6,0-134.4c0-4,1-5.4,5.3-5.4
			C200.4,94.8,225.3,94.7,250.3,94.7z M218.1,247.9c1.8-1.5,2.8-2.2,3.6-3.1c8.2-8.2,16.5-16.2,24.5-24.6c2.8-3,4.6-3.4,7.4-0.2
			c3.2,3.6,6.8,6.9,10.2,10.2c5.7,5.7,11.4,11.3,17.3,17.1c1.3-1.8,0.9-3.3,0.9-4.8c0.1-7.2,0.2-14.4,0-21.7
			c-0.1-3.4,1.1-4.4,4.4-4.3c7.7,0.2,15.3,0.1,23,0c1,0,2.3,0.5,2.8-0.7c0.5-1.2-0.7-1.9-1.4-2.6c-6.4-6.4-12.8-12.7-19.1-19.1
			c-3.9-3.9-8.3-7-13.6-8.6c-0.9-0.3-2.2-0.3-2.3-1.7c-0.1-1.8,1.3-1.8,2.4-2.1c5.5-1.7,9.9-4.9,13.9-9c5.6-5.7,11.3-11.2,17-16.8
			c1.4-1.4,3.1-2.6,3.9-5.2c-8.6,0-16.7,0-24.8,0c-6.1,0-6.1,0-6.1-6.1c0-8,0-16.1,0-24.2c-2.2,0-2.8,1.4-3.7,2.3
			c-8.5,8.3-17,16.6-25.3,25.1c-2.4,2.5-3.6,2.3-5.9-0.1c-6.3-6.6-12.9-13-19.5-19.4c-2.8-2.7-5.2-6-8.8-8.1c-1,1.7-0.6,3.2-0.7,4.7
			c0,6.8-0.3,13.5,0.1,20.3c0.2,4.2-0.9,5.9-5.4,5.7c-7.2-0.4-14.4-0.1-21.7-0.1c-1.2,0-2.7-0.6-3.8,1.1c6,6,12,12.1,18.1,18.1
			c5.5,5.4,10.9,10.9,19,12.3c0.8,0.1,1.5,0.5,1.4,1.4c0,1.2-1.1,1.3-2,1.4c-6.3,1.3-11.2,5-15.6,9.4c-6.3,6.4-12.8,12.7-19.2,19.1
			c-0.7,0.7-1.9,1.2-1.1,2.9c8.3,0,16.7,0.2,25.1-0.1c3.9-0.1,5.3,0.9,5.2,5C217.9,229.9,218.1,238.3,218.1,247.9z"/>
	</g>
</g>
</svg>
