<?xml version="1.0" encoding="utf-8"?>
<!-- Generator: Adobe Illustrator 24.3.0, SVG Export Plug-In . SVG Version: 6.00 Build 0)  -->
<svg version="1.1" xmlns="http://www.w3.org/2000/svg" xmlns:xlink="http://www.w3.org/1999/xlink" x="0px" y="0px"
	 viewBox="0 0 480.7 382.7" style="enable-background:new 0 0 480.7 382.7;" xml:space="preserve">
<style type="text/css">
	.st0{opacity:0.1;fill:#0BA9B9;}
	.st1{opacity:0.25;fill:#117BD3;}
	.st2{opacity:0.17;fill:#0BA9B9;}
	.st3{fill:#F77B00;}
	.st4{fill:#DD6B05;}
	.st5{fill:#AA5611;}
	.st6{opacity:0.2;fill:#F77B00;}
	.st7{fill:#05777C;}
	.st8{fill:#0BA9B9;}
	.st9{opacity:0.31;fill:#0BA9B9;}
	.st10{fill:#97FFFF;}
	.st11{fill:#224D99;}
	.st12{fill:#FFFFFF;}
	.st13{opacity:0.22;fill:#0BA9B9;}
	.st14{opacity:0.15;fill:#117BD3;}
	.st15{fill:#FFC400;}
	.st16{fill:#2F2C33;stroke:#2F2C33;stroke-width:0.1887;stroke-miterlimit:10;}
	.st17{font-family:'Montserrat-Regular';}
	.st18{font-size:13.9216px;}
	.st19{fill:#2F2C33;}
	.st20{font-size:8.6879px;}
	.st21{opacity:0.19;fill:#FFFFFF;}
	.st22{opacity:0.34;fill:#FFC400;}
	.st23{opacity:0.73;fill:#FFC400;}
	.st24{fill:#EAC3B2;}
	.st25{opacity:0.43;fill:#EAC3B2;}
	.st26{fill:#DB3537;}
	.st27{fill:#513216;}
	.st28{opacity:0.33;}
</style>
<g id="BACKGROUND">
</g>
<g id="OBJECTS">
	<g>
		<path class="st1" d="M468.4,339.2c0-11.2-78.9-20.3-176.3-20.3c-19.2,0-37.7,0.4-55,1c-17.3-0.7-35.8-1-55-1
			c-97.4,0-176.3,9.1-176.3,20.3c0,5.9,22,11.2,57,15c5.4,10.7,82.1,19.1,176,19.1c95,0,172.4-8.7,176.2-19.5
			C447.9,350.1,468.4,344.9,468.4,339.2z"/>
		<path class="st2" d="M179.5,82.6c21,4.1,42.8,0.5,61.4-10.3c23.8-13.8,61.7-41.6,109.9-37.3c103.6,9.3,156,90.8,103.6,183.2
			c-49.6,87.5-212.6,76.2-212.6,76.2S74.2,316.2,37.5,224.3C13.5,164.5,46,56.5,179.5,82.6z"/>
		<g>
			<g>
				<path class="st3" d="M168.2,260.1H78.7c0,0-2.7,69.4,21.8,92.6h58.9c0,0,28.2-9.2,28.2-92.6H168.2z"/>
				<path class="st4" d="M187.6,260.1c0,4-24.4,7.3-54.5,7.3s-54.5-3.3-54.5-7.3c0-4,24.4-7.3,54.5-7.3S187.6,256,187.6,260.1z"/>
				<path class="st5" d="M86,263.7c9.4,2.2,27,3.7,47.2,3.7c20.2,0,37.7-1.5,47.2-3.7c-9.4-2.2-27-3.7-47.2-3.7
					C113,260.1,95.4,261.6,86,263.7z"/>
				<path class="st6" d="M185.3,260.1c-8.5,45.9-39.8,79.8-76.7,79.8H91.4c2.5,5,5.5,9.4,9.1,12.8h58.9c0,0,28.2-9.2,28.2-92.6
					H185.3z"/>
			</g>
			<g>
				<g>
					<path class="st7" d="M97.2,22.2c3.8,3.7,6.9,7.9,9.5,12.6c2.6,4.6,4.4,9.7,5.2,14.9c0.7,5.3,0.2,10.6-0.8,15.8
						c-1,5.2-2.2,10.3-3,15.5c-0.8,5.2-1,10.4-0.4,15.5c0.5,5.2,1.9,10.1,3.8,15c3.7,9.7,8.6,19.1,12.7,28.9c4.1,9.8,7.4,20,9,30.6
						c1.7,10.6,1.2,21.4,0.1,32c-1,10.5-2.5,20.9-2.4,31.2c0,5.1,0.5,10.2,1.5,15.2c1,5,2.5,9.8,4.5,14.5l0,0c0.6,1.5,0,3.1-1.5,3.8
						c-1.5,0.6-3.1,0-3.8-1.5c0,0,0,0,0-0.1c-2.1-5.1-3.6-10.3-4.5-15.7c-0.9-5.4-1.3-10.8-1.2-16.2c0.1-10.8,1.9-21.3,3.1-31.7
						c1.3-10.4,2-20.8,0.6-31c-1.3-10.3-4.3-20.3-8.1-30c-1.9-4.9-4-9.7-6.1-14.5c-2.1-4.8-4.2-9.7-6-14.7c-1.8-5-3.2-10.2-3.6-15.6
						c-0.4-5.3-0.1-10.7,0.8-15.9c0.9-5.2,2.3-10.3,3.3-15.5c1.1-5.1,1.7-10.3,1.1-15.5c-0.6-5.2-2.3-10.2-4.8-14.8
						C103.9,30.3,100.8,25.9,97.2,22.2z"/>
				</g>
				<g>
					<path class="st7" d="M145.4,114.4c-0.2,3.1-1.1,6.1-2.3,9c-1.2,2.9-2.7,5.6-4.6,8.2c-0.5,0.6-1,1.2-1.5,1.9l-0.7,0.9l-0.8,0.9
						c-0.5,0.6-1.1,1.2-1.6,1.7l-1.8,1.6l-0.9,0.8l-0.9,0.7l-1.9,1.5c-1.3,0.9-2.6,1.7-4,2.6l-1.6-3c1.3-0.7,2.7-1.4,3.9-2.1
						l1.9-1.2l0.9-0.6l0.9-0.7l1.8-1.3c0.6-0.5,1.1-1,1.7-1.5l0.8-0.7l0.8-0.8c0.5-0.5,1.1-1.1,1.6-1.6c2-2.3,3.7-4.8,5.1-7.5
						C143.8,120.3,144.9,117.4,145.4,114.4z"/>
				</g>
				<g>
					<path class="st7" d="M85.5,119.7c1.9,4.1,4.6,7.8,7.6,11.1c3,3.3,6.4,6.2,10.1,8.7c0.9,0.6,1.9,1.2,2.8,1.7l1.4,0.9l1.5,0.7
						c1,0.5,2,1,3,1.5l3.1,1.2l1.5,0.6l1.6,0.5l3.1,1c2.1,0.6,4.3,1,6.4,1.5l-1.2,4.9c-2.2-0.8-4.5-1.4-6.6-2.2l-3.2-1.4l-1.6-0.7
						l-1.6-0.8l-3.1-1.6c-1-0.6-2-1.2-3-1.8l-1.5-0.9l-1.4-1c-0.9-0.7-1.9-1.4-2.8-2.1c-3.6-2.9-6.8-6.3-9.6-9.9
						C89.3,127.9,87,123.9,85.5,119.7z"/>
				</g>
				<g>
					<path class="st8" d="M88.4,9.4c0,0,32.6,3.5,37.7,35.4c1.9,11.9-1.3,20.1-4.6,25.5c-6.5,10.4-21.8,9.9-28.2-0.6
						c-1.7-2.8-3.2-6.3-4-10.7C84.2,33.7,97.5,30,88.4,9.4z"/>
					<path class="st9" d="M126.1,44.8C120.9,13,88.4,9.4,88.4,9.4s11.8,8.1,18.8,26.6c5.1,13.5,2.7,32.4,1,41.8
						c5.1-0.1,10.2-2.6,13.3-7.5C124.8,64.9,128,56.8,126.1,44.8z"/>
					<g>
						<path class="st10" d="M88.4,9.4c5.1,3.6,9.4,8.5,12.8,13.7c1.7,2.6,3.3,5.4,4.6,8.3c0.7,1.4,1.2,2.9,1.9,4.4l0.8,2.3
							c0.3,0.8,0.4,1.5,0.6,2.3c1.5,6.2,1.8,12.5,1.6,18.8c-0.3,6.3-1.1,12.5-2.5,18.7c0.4-3.1,0.8-6.2,1.1-9.3
							c0.3-3.1,0.5-6.2,0.5-9.4c0-3.1,0-6.2-0.3-9.3c-0.3-3.1-0.8-6.2-1.5-9.2c-0.2-0.7-0.4-1.5-0.6-2.2l-0.7-2.2
							c-0.6-1.4-1.1-2.9-1.8-4.3c-1.2-2.9-2.8-5.6-4.4-8.2C98.8,21,97,18.4,95,16.1C93,13.7,90.8,11.4,88.4,9.4z"/>
					</g>
					<g>
						<path class="st10" d="M106.3,19.3c0.9,1.6,1.6,3.3,2.2,5.1c0.6,1.8,1.1,3.6,1.4,5.4c0.3,1.8,0.4,3.7,0.2,5.6
							c-0.1,1.9-0.6,3.7-1.2,5.6l-1.1-0.4c0.7-1.7,1.2-3.4,1.4-5.2c0.2-1.8,0.3-3.6,0.1-5.5c-0.2-1.8-0.6-3.6-1.1-5.4
							C107.7,22.7,107.1,21,106.3,19.3z"/>
					</g>
					<g>
						<path class="st10" d="M117.2,29.9c0.1,1.8,0.1,3.7-0.1,5.6c-0.2,1.9-0.5,3.7-1,5.5c-0.5,1.8-1.2,3.6-2.1,5.2
							c-0.9,1.7-2.1,3.2-3.4,4.5l-0.8-0.8c1.3-1.2,2.5-2.6,3.5-4.1c0.9-1.6,1.8-3.2,2.3-4.9c0.6-1.7,1-3.5,1.3-5.4
							C117.1,33.6,117.2,31.8,117.2,29.9z"/>
					</g>
					<g>
						<path class="st10" d="M98.7,41.4c0.4,1.8,1,3.6,1.8,5.3c0.7,1.7,1.6,3.3,2.6,4.9c1,1.5,2.2,2.9,3.5,4.2
							c1.3,1.3,2.8,2.3,4.4,3.1l-0.5,1c-1.6-1-3.2-2.1-4.5-3.5c-1.3-1.4-2.4-2.9-3.4-4.5c-0.9-1.6-1.7-3.3-2.4-5.1
							C99.5,45.1,99,43.3,98.7,41.4z"/>
					</g>
					<g>
						<path class="st10" d="M97,27.8c0.5,1.8,1.1,3.5,1.9,5.2c0.8,1.7,1.7,3.3,2.7,4.8c1,1.5,2.3,2.9,3.6,4.1c1.3,1.2,2.9,2.2,4.5,3
							l-0.5,1c-1.7-0.9-3.2-2-4.6-3.4c-1.3-1.3-2.5-2.8-3.5-4.4c-1-1.6-1.8-3.3-2.5-5C97.9,31.4,97.4,29.6,97,27.8z"/>
					</g>
					<g>
						<path class="st10" d="M122.7,45.7c-0.4,1.8-1,3.6-1.8,5.3c-0.7,1.7-1.6,3.4-2.6,4.9c-1,1.6-2.3,3-3.6,4.3
							c-1.4,1.3-3,2.4-4.7,3.3l-0.5-1c1.6-0.8,3.2-1.7,4.6-2.9c1.4-1.2,2.6-2.5,3.7-4c1.1-1.5,2-3.1,2.9-4.7
							C121.5,49.2,122.2,47.5,122.7,45.7z"/>
					</g>
				</g>
				<g>
					<path class="st8" d="M47.7,67.7c0,0-21,34.9,6.7,64c10.4,10.9,20.9,13.9,28.7,14.6c15.2,1.4,26.2-14.2,20.6-28.4
						c-1.5-3.8-3.9-7.9-7.5-12C74.9,81.9,61.2,92.2,47.7,67.7z"/>
					<path class="st9" d="M54.4,131.7c-27.7-29.1-6.7-64-6.7-64s-0.8,17.8,12.2,38.6c9.5,15.2,30,27,40.6,32.5
						c-4,5-10.2,8.1-17.4,7.5C75.2,145.6,64.7,142.6,54.4,131.7z"/>
					<g>
						<path class="st10" d="M47.7,67.7c0.1,3.9,0.7,7.8,1.6,11.5c0.8,3.8,2,7.5,3.4,11.1c1.4,3.6,3,7.2,4.9,10.5l0.7,1.3l0.7,1.2
							l1.5,2.5l1.6,2.4c0.5,0.8,1.2,1.5,1.8,2.3c2.4,3,5.1,5.8,7.9,8.4c2.9,2.6,5.9,5,9,7.3c3.1,2.3,6.3,4.5,9.6,6.5
							c3.3,2.1,6.6,4,10,6c-3.5-1.6-7-3.5-10.4-5.4c-3.4-1.9-6.7-4-9.9-6.2c-6.4-4.5-12.5-9.6-17.5-15.7c-0.6-0.8-1.2-1.5-1.8-2.4
							l-1.6-2.5l-1.5-2.5l-0.7-1.3l-0.7-1.3L55,98.9l-1.2-2.7c-0.4-0.9-0.8-1.8-1.1-2.7c-0.4-0.9-0.7-1.8-1-2.8
							C49,83.4,47.4,75.6,47.7,67.7z"/>
					</g>
					<g>
						<path class="st10" d="M44,92.9c1,2.1,2.3,4,3.6,5.8c1.4,1.8,2.9,3.6,4.6,5.1c1.6,1.6,3.5,2.9,5.4,4.1c1.9,1.2,4.1,1.9,6.2,2.5
							l-0.4,1.4c-2.3-0.7-4.5-1.6-6.4-2.9c-2-1.3-3.8-2.8-5.4-4.5c-1.6-1.7-3.1-3.5-4.3-5.4C46.1,97,44.9,95,44,92.9z"/>
					</g>
					<g>
						<path class="st10" d="M46.3,111.7c1.8,1.4,3.7,2.7,5.7,3.8c2,1.1,4.1,2,6.3,2.8c2.2,0.8,4.4,1.2,6.6,1.4
							c2.3,0.2,4.5,0,6.7-0.3l0.3,1.4c-2.4,0.3-4.7,0.4-7.1,0c-2.3-0.4-4.6-0.9-6.8-1.8c-2.2-0.9-4.2-1.9-6.2-3.1
							C49.9,114.6,48,113.2,46.3,111.7z"/>
					</g>
					<g>
						<path class="st10" d="M71.6,102c1.6,1.7,2.9,3.6,4.2,5.5c1.2,2,2.3,4,3.2,6.2c0.9,2.1,1.5,4.4,1.9,6.7
							c0.4,2.3,0.4,4.7,0.1,7.1l-1.4-0.2c0.3-2.2,0.5-4.5,0.2-6.7c-0.3-2.2-0.7-4.5-1.5-6.6c-0.8-2.1-1.7-4.2-2.9-6.2
							C74.4,105.7,73.1,103.8,71.6,102z"/>
					</g>
					<g>
						<path class="st10" d="M59.3,90.1c1.5,1.7,2.8,3.6,4,5.6c1.2,2,2.2,4.1,3,6.2c0.8,2.2,1.4,4.5,1.7,6.8c0.3,2.3,0.2,4.7-0.1,7.1
							l-1.4-0.3c0.4-2.2,0.6-4.4,0.4-6.7c-0.2-2.2-0.6-4.5-1.3-6.7c-0.7-2.2-1.6-4.3-2.7-6.3C62,93.9,60.8,91.9,59.3,90.1z"/>
					</g>
					<g>
						<path class="st10" d="M57.7,129c2.1,0.8,4.4,1.4,6.6,1.9c2.3,0.4,4.5,0.7,6.8,0.7c2.3,0.1,4.6-0.2,6.8-0.7
							c2.2-0.5,4.3-1.3,6.3-2.4l0.7,1.3c-2.2,1-4.4,1.8-6.7,2.1c-2.3,0.4-4.7,0.5-7,0.3c-2.3-0.2-4.6-0.5-6.9-1.1
							C62,130.7,59.8,130,57.7,129z"/>
					</g>
				</g>
				<g>
					<path class="st8" d="M157.7,30.7c0,0,40.3,27,25.3,72.4c-5.7,17-15.5,25.5-23.5,30.3c-15.7,9.2-35.5-2-36.6-20.1
						c-0.3-4.9,0.2-10.5,2-16.8C135.6,59.7,155.6,63.9,157.7,30.7z"/>
					<path class="st9" d="M183,103c15.1-45.4-25.3-72.4-25.3-72.4s9.9,18.8,6.4,47.8c-2.5,21.3-18.6,44.4-27.3,55.6
						c6.8,3.3,15.2,3.6,22.6-0.8C167.5,128.6,177.4,120,183,103z"/>
					<g>
						<path class="st10" d="M157.7,30.7c4.2,8.3,6.5,17.5,7.4,26.8c0.2,1.2,0.2,2.3,0.3,3.5c0.1,1.2,0.2,2.3,0.2,3.5l0,3.5l-0.1,3.5
							l-0.1,1.8l-0.2,1.7l-0.3,3.5l-0.5,3.5c-0.2,1.2-0.5,2.3-0.7,3.5c-1.1,4.6-2.7,9-4.5,13.3c-1.9,4.3-4,8.5-6.3,12.5
							c-2.3,4-4.9,8-7.5,11.8c-2.7,3.8-5.5,7.5-8.5,11.1c2.7-3.8,5.3-7.6,7.8-11.5c2.5-3.9,4.9-7.9,7.1-11.9c2.2-4.1,4.2-8.2,6-12.5
							c1.8-4.3,3.3-8.6,4.3-13.1c0.2-1.1,0.6-2.2,0.7-3.4l0.5-3.4l0.3-3.4l0.2-1.7l0.1-1.7c0.3-4.6,0.2-9.2-0.1-13.8
							c-0.3-4.6-1-9.2-2-13.7C160.9,39.4,159.6,34.9,157.7,30.7z"/>
					</g>
					<g>
						<path class="st10" d="M174.5,55.9c0.1,2.7-0.1,5.5-0.5,8.2c-0.4,2.7-1.1,5.4-1.9,8.1c-0.9,2.6-2.1,5.2-3.5,7.5
							c-1.5,2.4-3.4,4.5-5.4,6.4l-1.1-1.3c2-1.7,3.9-3.6,5.5-5.8c1.5-2.2,2.8-4.6,3.8-7.1c1-2.5,1.8-5.2,2.3-7.8
							C174.1,61.4,174.4,58.7,174.5,55.9z"/>
					</g>
					<g>
						<path class="st10" d="M181.6,77.3c-1.1,2.5-2.4,4.9-3.9,7.3c-1.5,2.3-3.2,4.5-5.1,6.5c-1.9,2-4.1,3.8-6.4,5.4
							c-2.3,1.6-4.9,2.7-7.6,3.6l-0.4-1.6c2.6-0.7,5.1-1.6,7.4-3c2.3-1.4,4.5-3,6.4-4.9c2-1.9,3.7-4,5.4-6.2
							C178.9,82.1,180.4,79.8,181.6,77.3z"/>
					</g>
					<g>
						<path class="st10" d="M149.3,79.8c-0.7,2.7-1.1,5.4-1.3,8.1c-0.2,2.7-0.2,5.5,0.1,8.2c0.2,2.7,0.9,5.4,1.7,7.9
							c0.8,2.6,2.2,4.9,3.7,7.1l-1.4,1c-1.5-2.4-2.7-5-3.5-7.7c-0.7-2.7-1.2-5.5-1.3-8.2c-0.1-2.8,0-5.5,0.3-8.3
							C148,85.1,148.5,82.4,149.3,79.8z"/>
					</g>
					<g>
						<path class="st10" d="M156.5,60.7c-0.6,2.7-0.9,5.4-1.1,8.1c-0.1,2.7,0,5.5,0.3,8.2c0.3,2.7,1,5.3,1.9,7.9
							c0.9,2.5,2.3,4.8,3.9,7l-1.4,1c-1.5-2.4-2.9-4.9-3.7-7.6c-0.8-2.7-1.4-5.4-1.6-8.2c-0.2-2.8-0.2-5.5,0.1-8.3
							C155.3,66.1,155.7,63.3,156.5,60.7z"/>
					</g>
					<g>
						<path class="st10" d="M178,101.8c-1.8,2.1-3.8,4-5.9,5.7c-2.1,1.7-4.4,3.3-6.9,4.7c-2.4,1.4-5,2.4-7.7,3.2
							c-2.7,0.8-5.5,1.1-8.4,1.1l0.1-1.7c2.7,0.1,5.3,0,8-0.6c2.6-0.6,5.2-1.5,7.6-2.7c2.4-1.2,4.8-2.6,7-4.2
							C174,105.6,176.1,103.8,178,101.8z"/>
					</g>
				</g>
				<g>
					<path class="st7" d="M151.2,218.6c-0.2,3.1-1.1,6.1-2.3,9c-1.2,2.9-2.7,5.6-4.6,8.2c-0.5,0.6-1,1.2-1.5,1.9l-0.7,0.9l-0.8,0.9
						c-0.5,0.6-1.1,1.2-1.6,1.7l-1.8,1.6l-0.9,0.8l-0.9,0.7l-1.9,1.5c-1.3,0.9-2.6,1.7-4,2.6l-1.6-3c1.3-0.7,2.7-1.4,3.9-2.1
						l1.9-1.2l0.9-0.6l0.9-0.7l1.8-1.3c0.6-0.5,1.1-1,1.7-1.5l0.8-0.7l0.8-0.8c0.5-0.5,1.1-1.1,1.6-1.6c2-2.3,3.7-4.8,5.1-7.5
						C149.5,224.5,150.7,221.6,151.2,218.6z"/>
				</g>
				<g>
					<path class="st7" d="M101.9,197.4c1.3,2.8,3.1,5.3,5.1,7.6c2.1,2.2,4.4,4.2,6.9,5.9c0.6,0.4,1.3,0.8,1.9,1.2l1,0.6l1,0.5
						c0.7,0.3,1.3,0.7,2,1l2.1,0.8l1,0.4l1.1,0.3l2.1,0.7c1.4,0.4,2.9,0.7,4.4,1l-0.8,3.3c-1.5-0.5-3-1-4.5-1.5l-2.2-0.9l-1.1-0.5
						l-1.1-0.5l-2.1-1.1c-0.7-0.4-1.3-0.8-2-1.3l-1-0.6l-1-0.7c-0.6-0.5-1.3-0.9-1.9-1.4c-2.4-2-4.6-4.3-6.5-6.7
						C104.5,203.1,102.9,200.4,101.9,197.4z"/>
				</g>
				<g>
					<path class="st8" d="M164.9,145.6c0,0,32.8,21.9,20.5,58.8c-4.6,13.8-12.6,20.7-19.1,24.6c-12.7,7.5-28.8-1.6-29.8-16.4
						c-0.3-4,0.1-8.5,1.6-13.7C146.9,169.2,163.2,172.6,164.9,145.6z"/>
					<path class="st9" d="M185.4,204.3c12.2-36.9-20.5-58.8-20.5-58.8s8,15.2,5.2,38.8c-2.1,17.3-15.1,36-22.2,45.2
						c5.6,2.7,12.3,2.9,18.3-0.6C172.9,225.1,180.8,218.2,185.4,204.3z"/>
					<g>
						<path class="st10" d="M148,229.6c2.2-3.1,4.3-6.2,6.3-9.4c2-3.2,4-6.4,5.8-9.7c1.8-3.3,3.4-6.7,4.9-10.1
							c1.4-3.5,2.6-7,3.5-10.6c0.2-0.9,0.5-1.8,0.6-2.7l0.4-2.8l0.3-2.8l0.1-1.4l0.1-1.4c0.3-3.7,0.1-7.5-0.1-11.2
							c-0.2-3.7-0.8-7.5-1.6-11.1c-0.8-3.7-1.9-7.3-3.4-10.8c3.5,6.7,5.3,14.3,6,21.8c0.1,0.9,0.2,1.9,0.2,2.8
							c0.1,0.9,0.1,1.9,0.1,2.8l0,2.9l-0.1,2.8l-0.1,1.4l-0.1,1.4l-0.2,2.8l-0.4,2.8c-0.1,0.9-0.4,1.9-0.6,2.8
							c-1.8,7.4-5,14.4-8.8,21C157.2,217.6,152.8,223.8,148,229.6z"/>
					</g>
					<g>
						<path class="st10" d="M178.5,166.1c0.1,2.2-0.1,4.5-0.4,6.7c-0.3,2.2-0.9,4.4-1.6,6.5c-0.7,2.1-1.7,4.2-2.9,6.1
							c-1.2,2-2.7,3.7-4.4,5.2l-0.9-1.1c1.6-1.4,3.2-2.9,4.4-4.7c1.2-1.8,2.3-3.7,3.1-5.8c0.8-2.1,1.4-4.2,1.9-6.4
							C178.2,170.5,178.5,168.3,178.5,166.1z"/>
					</g>
					<g>
						<path class="st10" d="M184.3,183.5c-0.9,2.1-2,4-3.2,5.9c-1.2,1.9-2.6,3.7-4.1,5.3c-1.5,1.7-3.3,3.1-5.2,4.4
							c-1.9,1.3-4,2.2-6.2,2.9l-0.4-1.3c2.1-0.6,4.1-1.3,6-2.5c1.9-1.1,3.6-2.4,5.2-4c1.6-1.5,3-3.2,4.4-5
							C182.1,187.4,183.3,185.5,184.3,183.5z"/>
					</g>
					<g>
						<path class="st10" d="M158.1,185.5c-0.6,2.2-0.9,4.4-1.1,6.6c-0.2,2.2-0.1,4.4,0.1,6.6c0.2,2.2,0.7,4.4,1.4,6.4
							c0.7,2.1,1.8,4,3,5.8l-1.1,0.8c-1.2-2-2.2-4-2.8-6.2c-0.6-2.2-1-4.4-1.1-6.7c-0.1-2.3,0-4.5,0.3-6.7
							C157,189.8,157.4,187.6,158.1,185.5z"/>
					</g>
					<g>
						<path class="st10" d="M163.9,170c-0.5,2.2-0.8,4.4-0.9,6.6c-0.1,2.2,0,4.4,0.3,6.6c0.3,2.2,0.8,4.3,1.6,6.4
							c0.7,2.1,1.9,3.9,3.1,5.7l-1.1,0.8c-1.2-1.9-2.3-4-3-6.2c-0.7-2.2-1.1-4.4-1.3-6.7c-0.2-2.2-0.1-4.5,0.1-6.7
							C162.9,174.3,163.3,172.1,163.9,170z"/>
					</g>
					<g>
						<path class="st10" d="M181.4,203.4c-1.5,1.7-3.1,3.2-4.8,4.6c-1.7,1.4-3.6,2.7-5.6,3.8c-2,1.1-4.1,2-6.3,2.6
							c-2.2,0.6-4.5,0.9-6.8,0.9l0.1-1.4c2.2,0.1,4.3,0,6.5-0.5c2.1-0.5,4.2-1.2,6.2-2.2c2-1,3.9-2.1,5.7-3.4
							C178.2,206.4,179.9,205,181.4,203.4z"/>
					</g>
				</g>
				<g>
					<path class="st8" d="M17.5,140.2c0,0-13.6,53.3,33.5,80.2c17.7,10.1,32.4,9.8,42.8,7.7c20.2-4.1,28.4-28.6,15.7-44.8
						c-3.4-4.4-8.1-8.7-14.5-12.7C58.2,147.9,44.5,166.7,17.5,140.2z"/>
					<path class="st9" d="M51,220.4c-47.1-26.9-33.5-80.2-33.5-80.2s5.9,23.3,30.8,45.2c18.3,16,49.3,23.4,65.2,26.3
						c-3.2,8-10.1,14.5-19.7,16.5C83.4,230.3,68.7,230.5,51,220.4z"/>
					<g>
						<path class="st10" d="M17.5,140.2c1.7,5,3.9,9.8,6.5,14.3c2.6,4.6,5.5,8.9,8.7,13.1c0.8,1.1,1.6,2,2.5,3.1c0.8,1,1.6,2,2.5,3
							l2.6,2.9l2.8,2.8l1.4,1.4l1.4,1.3l2.9,2.7l3,2.5c1,0.8,2.1,1.5,3.2,2.3c8.6,5.9,18.2,10.2,28.1,13.7c4.9,1.8,10,3.3,15,4.7
							c5.1,1.4,10.2,2.7,15.3,3.8c-10.4-1.6-20.8-3.8-30.8-7.1c-5-1.6-10-3.6-14.8-5.7c-4.8-2.2-9.5-4.8-13.9-7.8
							c-1.1-0.8-2.2-1.5-3.2-2.4l-3.1-2.5l-2.9-2.7l-1.5-1.4l-1.4-1.4l-2.8-2.9l-2.6-3c-0.9-1-1.7-2-2.5-3.1c-0.8-1-1.7-2.1-2.4-3.2
							c-3.2-4.3-5.9-8.8-8.3-13.5c-1.2-2.4-2.3-4.8-3.2-7.2C18.9,145.3,18.1,142.8,17.5,140.2z"/>
					</g>
					<g>
						<path class="st10" d="M22.5,174.2c2.1,2.3,4.5,4.3,7,6.2c2.5,1.8,5.1,3.5,7.9,4.9c2.7,1.4,5.7,2.4,8.6,3.1c3,0.7,6,0.9,9,0.8
							l0.1,1.9c-3.2-0.1-6.4-0.4-9.5-1.3c-3-0.9-6-2.1-8.7-3.7c-2.7-1.6-5.3-3.3-7.7-5.3C26.8,178.7,24.5,176.6,22.5,174.2z"/>
					</g>
					<g>
						<path class="st10" d="M32.7,197.6c2.9,1.2,5.9,2,8.9,2.7c3,0.6,6.1,1,9.2,1.1c3.1,0.1,6.2-0.2,9.2-0.7c3-0.6,5.8-1.7,8.5-3
							l0.9,1.7c-2.9,1.3-6,2.3-9.2,2.7c-3.1,0.4-6.3,0.6-9.5,0.3c-3.1-0.3-6.2-0.8-9.3-1.6C38.5,200,35.5,199,32.7,197.6z"/>
					</g>
					<g>
						<path class="st10" d="M61.8,175.3c2.7,1.6,5.2,3.5,7.6,5.5c2.4,2,4.6,4.3,6.6,6.7c2,2.4,3.7,5.1,5.1,8c1.4,2.9,2.3,6,2.9,9.1
							l-1.9,0.2c-0.4-3-1.1-6-2.3-8.8c-1.2-2.8-2.7-5.5-4.5-8c-1.8-2.5-3.9-4.8-6.1-7C66.8,179,64.4,177,61.8,175.3z"/>
					</g>
					<g>
						<path class="st10" d="M41.3,164.6c2.6,1.7,5.1,3.6,7.4,5.7c2.3,2.1,4.4,4.4,6.4,6.9c1.9,2.5,3.5,5.2,4.9,8.1
							c1.3,2.9,2.1,6,2.6,9.2l-1.9,0.2c-0.3-3-0.9-6-2.1-8.8c-1.1-2.8-2.5-5.6-4.3-8.1c-1.8-2.5-3.7-4.9-5.9-7.1
							C46.2,168.4,43.8,166.4,41.3,164.6z"/>
					</g>
					<g>
						<path class="st10" d="M54.3,215.6c3.1,0.2,6.2,0.1,9.3-0.2c3.1-0.3,6.1-0.9,9.1-1.7c3-0.8,5.8-2,8.5-3.5
							c2.7-1.5,5-3.4,7.2-5.5l1.4,1.4c-2.4,2.1-5,4-7.9,5.4c-2.9,1.4-5.8,2.5-8.9,3.1c-3.1,0.7-6.2,1.1-9.3,1.3
							C60.5,216.1,57.4,216,54.3,215.6z"/>
					</g>
				</g>
			</g>
		</g>
		<g>
			<g>
				<g>
					<path class="st11" d="M339.4,353.1H178.5c-9.3,0-16.9-7.6-16.9-16.9V37.8c0-9.3,7.6-16.9,16.9-16.9h160.9
						c9.3,0,16.9,7.6,16.9,16.9v298.3C356.3,345.5,348.7,353.1,339.4,353.1z"/>
					<rect x="174.1" y="42.6" class="st12" width="169.6" height="266.9"/>
					<path class="st11" d="M281,340.2h-44.1c-4.9,0-8.9-4-8.9-8.9l0,0c0-4.9,4-8.9,8.9-8.9H281c4.9,0,8.9,4,8.9,8.9l0,0
						C289.9,336.2,285.9,340.2,281,340.2z"/>
					<circle class="st11" cx="204.3" cy="32.5" r="2.8"/>
					<path class="st11" d="M216.4,32.5c0,1.1-0.9,2-2,2c-1.1,0-2-0.9-2-2c0-1.1,0.9-2,2-2C215.5,30.4,216.4,31.3,216.4,32.5z"/>
					<path class="st11" d="M284.1,35.3h-50.3c-0.8,0-1.4-0.6-1.4-1.4l0,0c0-0.8,0.6-1.4,1.4-1.4h50.3c0.8,0,1.4,0.6,1.4,1.4l0,0
						C285.5,34.7,284.8,35.3,284.1,35.3z"/>
					<rect x="174.1" y="42.6" class="st13" width="169.6" height="266.9"/>
				</g>
				<path class="st14" d="M323.7,167.4H214.7c-4.6,0-8.3-3.7-8.3-8.3l0,0c0-4.6,3.7-8.3,8.3-8.3h108.9c4.6,0,8.3,3.7,8.3,8.3l0,0
					C332,163.7,328.3,167.4,323.7,167.4z"/>
				<path class="st14" d="M323.7,194.9H214.8c-4.6,0-8.3-3.7-8.3-8.3l0,0c0-4.6,3.7-8.3,8.3-8.3h108.9c4.6,0,8.3,3.7,8.3,8.3l0,0
					C332,191.2,328.3,194.9,323.7,194.9z"/>
				<path class="st15" d="M196.7,185.7v-1.3c0-2.9-2.4-5.3-5.3-5.3c-2.9,0-5.3,2.4-5.3,5.3v1.3c-0.5,0.2-1,0.6-1,1.2v6.2
					c0,0.7,0.6,1.3,1.3,1.3h10c0.7,0,1.3-0.6,1.3-1.3V187C197.7,186.3,197.3,185.8,196.7,185.7z M190,192.5l0.6-2.3
					c-0.3-0.2-0.5-0.6-0.5-1c0-0.7,0.6-1.3,1.3-1.3c0.7,0,1.3,0.6,1.3,1.3c0,0.4-0.2,0.8-0.5,1l0.7,2.2H190z M195.8,185.6H187v-1.2
					c0-2.4,2-4.4,4.4-4.4c2.4,0,4.4,2,4.4,4.4V185.6z"/>
				<g>
					<path class="st15" d="M196,154.7c0,1.8-1.4,3.2-3.2,3.2c-1.8,0-3.2-1.4-3.2-3.2c0-1.8,1.4-3.2,3.2-3.2
						C194.5,151.4,196,152.9,196,154.7z"/>
					<path class="st15" d="M198.2,165.7h-10.9v-2.4c0-3,2.4-5.5,5.5-5.5l0,0c3,0,5.5,2.4,5.5,5.5V165.7z"/>
				</g>
				<path class="st15" d="M294.3,228h-63.8c-4.7,0-8.6-3.8-8.6-8.6V218c0-4.7,3.8-8.6,8.6-8.6h63.8c4.7,0,8.6,3.8,8.6,8.6v1.4
					C302.9,224.2,299.1,228,294.3,228z"/>
				<g>
					<text transform="matrix(1 0 0 1 215.2439 130.4431)" class="st16 st17 st18">USER LOGIN</text>
				</g>
				<g>
					<text transform="matrix(1 0 0 1 242.8044 221.4563)" class="st19 st17 st20">SIGN IN</text>
				</g>
				<path class="st21" d="M336.9,20.9H178.5c-9.3,0-16.9,7.6-16.9,16.9v233.8L336.9,20.9z"/>
			</g>
			<path class="st19" d="M367.6,263.1c0,0-11.3,0-11.3,4.6c0,4.6-1.8,32.1,0,32.1s5.3-4,6.7-10.3c1.4-6.3,6.6-15.8,10.3-17.9
				C377,269.4,367.6,263.1,367.6,263.1z"/>
			<path class="st19" d="M392.1,325.8c0,0-1.4,10.7,5.4,12.5c7.4,2,10.8,3.6,12.2,5.3c1.2,1.4,0.2,3.5-1.6,3.6
				c-7.6,0.3-29.7,0.8-31.2-1.4c-3.9-5.4,1-12.6-0.2-18.8C376,323.3,392.1,325.8,392.1,325.8z"/>
			<path class="st15" d="M376,190.8l-10.7,2.9c0,0,1.1,20.7,10.7,59.3c0,0-4.6,27.5-3.4,41.3c1.1,13.8,3.4,36.9,3.4,36.9h18
				l10.9-94.3l-9-38.2L376,190.8z"/>
			<path class="st22" d="M376,190.8l-10.7,2.9c0,0,1.1,20.7,10.7,59.3c0,0-4.6,27.5-3.4,41.3c1.1,13.8,3.4,36.9,3.4,36.9h18
				l10.9-94.3l-9-38.2L376,190.8z"/>
			<path class="st15" d="M379.6,178.2l-18.3,6c0,0,1.4,16.7,33.2,34.4c33.8,18.7,56.2,21.2,42.4-1.1c-13.8-22.4-42.4-41.5-42.4-41.5
				L379.6,178.2z"/>
			<path class="st15" d="M422,221.5c0,0-16.9,0.7-30.1,11c-13.2,10.3-30.7,31.8-30.7,31.8l10.6,11.5c0,0,56.5-26,68.5-45.1
				L422,221.5z"/>
			<path class="st23" d="M384.7,212.6c0,0,16.4,8.6,24.1,7.7c7.7-0.8,13.1-0.3,18,1.1c0,0-10.2-0.9-21,3
				C405.8,224.4,385.5,213.9,384.7,212.6z"/>
			<path class="st24" d="M383.8,89.7l-5.7-12.2c0,0-3.5,18.1-9.7,24.7c0,0,6.1,11,18.4,13.5c0,0-1.1-12.3,4.1-18.5
				C396.1,91,383.8,89.7,383.8,89.7z"/>
			<path class="st25" d="M383.8,89.7l-5.7-12.2c0,0-3.5,18.1-9.7,24.7c0,0,6.1,11,18.4,13.5c0,0-1.1-12.3,4.1-18.5
				C396.1,91,383.8,89.7,383.8,89.7z"/>
			<ellipse class="st24" cx="393.6" cy="84.6" rx="16" ry="21.2"/>
			<path class="st25" d="M382.7,84.6c0-10.6,5.8-19.3,13.4-20.9c-0.8-0.2-1.7-0.3-2.6-0.3c-8.8,0-16,9.5-16,21.2s7.2,21.2,16,21.2
				c0.9,0,1.7-0.1,2.6-0.3C388.5,103.9,382.7,95.1,382.7,84.6z"/>
			<path class="st11" d="M430.6,138.5l-0.6-0.7c-0.4-0.5-0.3-1.2,0.2-1.6l18.4-14.6c0.5-0.4,1.2-0.3,1.6,0.2l0.6,0.7
				c0.4,0.5,0.3,1.2-0.2,1.6l-18.4,14.6C431.7,139.1,431,139,430.6,138.5z"/>
			<path class="st26" d="M369.7,100.7c0,0,8.8,11.1,16.3,8.1c9.3-3.7,19.2,45.9,18.9,69.4l0,6c0,0-28.1,8-43.6,0
				c0,0-3.2-30.4-2-47.6C360.4,119.6,364.3,98.7,369.7,100.7z"/>
			<path class="st26" d="M391,144.2c0,0-21.7-18.5-21.2-13.8c4.1,39,30.7,54.9,30.7,54.9l4.3-1.1l-0.2-12.6L391,144.2z"/>
			<g>
				<path class="st24" d="M425.7,145c0,0,6-6,6.1-9.6c0.1-3.6,1.6-6.7,6.5-6c5.9,0.9,14-8.2,11.4-2.2c-2.8,6.4-6.6,5.6-16.1,23.1
					C430.8,155.6,425.7,145,425.7,145z"/>
				<path class="st26" d="M379.8,112.7c3.3,0.2,6.4,1.9,8.5,4.5c1.8,2.2,4.5,5.7,7.4,10.3c3,4.8,6.3,10.7,9.2,17.6
					c8,19.3,12.4,37.7-2.5,30c-14.9-7.7-22.8-20.8-29.8-35.6C366.6,126.9,369.3,112.2,379.8,112.7z"/>
				<path class="st26" d="M399.9,161.1c5.5-7.3,5.8-1.9,27-20.7c0.7-0.6,1.3-1.3,2-2l11.5,5.3c0,0-14.5,31.3-29.9,33
					C395.1,178.4,396.7,165.3,399.9,161.1z"/>
			</g>
			<path class="st27" d="M392.2,77.5c0,0,0.5-2.8,8.9,2.1c8.4,4.9,17.1-1.5,14.8-7.1c-1.6-4-6.6-3.6-5.2-7.3c1.4-3.6-2.7-8.6-7.9-9
				c-5.2-0.4-7.8,4.7-9.4,0.9c-1.6-3.8-10.3-4.6-11.7,0c-1.4,4.6-3.1,5.2-7.7,6.2c-4.7,1-6,4.8-5.8,7.5c0.3,2.7,1.1,6.5-3.1,8
				c-4.2,1.5-4.7,9.6-0.4,11.1c4.3,1.5,1.4,2.1-2.9,5.3c-4.7,3.6-0.3,17.5,9.7,11.4c8.6-5.2-1.1-12.4,5.8-13.6
				c6-1.1,6.2-3.3,5.9-8.4C383.2,81.1,387.6,85.8,392.2,77.5z"/>
			<g class="st28">
				<path class="st27" d="M369.2,95.1c4.2-3.2,7.1-3.7,2.9-5.3c-4.3-1.5-3.8-9.6,0.4-11.1c4.2-1.5,3.4-5.3,3.1-8
					c-0.3-2.7,1.1-6.5,5.8-7.5c4.7-1,6.4-1.7,7.7-6.2c0.3-1,1-1.8,1.9-2.3c-3.2-1.4-8.1-0.9-9.1,2.4c-1.4,4.6-3.1,5.2-7.7,6.2
					c-4.7,1-6,4.8-5.8,7.5c0.3,2.7,1.1,6.5-3.1,8c-4.2,1.5-4.7,9.6-0.4,11.1c4.3,1.5,1.4,2.1-2.9,5.3c-4.6,3.5-0.5,16.8,8.9,11.9
					C367,104.5,366,97.5,369.2,95.1z"/>
			</g>
			<path class="st26" d="M400.5,159.8c0,0,3-3.1,8.4-5.3l-1.4-2.5C407.5,152,402.6,155.5,400.5,159.8z"/>
		</g>
	</g>
</g>
<g id="DESIGNED_BY_FREEPIK">
</g>
</svg>
